<svg xmlns="http://www.w3.org/2000/svg" xmlns:svg="http://www.w3.org/2000/svg" id="svg11300" width="400" height="300" version="1.0" style="display:inline;enable-background:new"><title id="title3004">Suru Icon Theme Template</title><defs id="defs3"><clipPath id="clipPath9430" clipPathUnits="userSpaceOnUse"><path id="path9432" d="m 166.0625,-196 h 179.875 C 491.2348,-196 512,-175.28677 512,-30.125 v 148.25 C 512,263.28618 491.2348,284 345.9375,284 H 166.0625 C 20.7652,284 0,263.28618 0,118.125 V -30.125 C 0,-175.28677 20.7652,-196 166.0625,-196 Z" style="color:#000;display:inline;overflow:visible;visibility:visible;fill:#fff;fill-opacity:1;fill-rule:nonzero;stroke:none;stroke-width:1;marker:none;enable-background:new"/></clipPath><clipPath id="clipPath1082" clipPathUnits="userSpaceOnUse"><path id="path1084" d="M 361.9375,-212 C 507.2348,-212 528,-191.28677 528,-46.125 V 70.125 C 528,215.28618 507.2348,236 361.9375,236 H 214.0625 C 68.7652,236 48,215.28618 48,70.125 V -46.125 C 48,-191.28677 68.7652,-212 214.0625,-212 Z" style="display:inline;opacity:1;fill:#8c59d9;fill-opacity:1;stroke:none;stroke-width:2;stroke-linecap:round;stroke-linejoin:round;stroke-miterlimit:4;stroke-dasharray:none;stroke-dashoffset:0;stroke-opacity:1;enable-background:new"/></clipPath><clipPath id="clipPath994" clipPathUnits="userSpaceOnUse"><path style="color:#000;display:inline;overflow:visible;visibility:visible;fill:#cdcdcd;fill-opacity:1;fill-rule:nonzero;stroke:none;stroke-width:2;stroke-miterlimit:4;stroke-dasharray:none;stroke-opacity:1;marker:none;enable-background:accumulate" id="path996" d="m 335.73108,62 c -8.82418,0 -9.77365,0.90635 -9.7304,9.74838 V 84 96.25162 c -0.0433,8.84203 0.90622,9.74838 9.7304,9.74838 h 16.53919 c 8.82418,0 9.7304,-0.90625 9.7304,-9.74838 V 84 71.74838 C 362.00067,62.90625 361.09445,62 352.27027,62 Z"/></clipPath><clipPath id="clipPath994-5" clipPathUnits="userSpaceOnUse"><path style="color:#000;display:inline;overflow:visible;visibility:visible;fill:#cdcdcd;fill-opacity:1;fill-rule:nonzero;stroke:none;stroke-width:2;stroke-miterlimit:4;stroke-dasharray:none;stroke-opacity:1;marker:none;enable-background:accumulate" id="path996-3" d="m 335.73108,62 c -8.82418,0 -9.77365,0.90635 -9.7304,9.74838 V 84 96.25162 c -0.0433,8.84203 0.90622,9.74838 9.7304,9.74838 h 16.53919 c 8.82418,0 9.7304,-0.90625 9.7304,-9.74838 V 84 71.74838 C 362.00067,62.90625 361.09445,62 352.27027,62 Z"/></clipPath><clipPath id="clipPath971" clipPathUnits="userSpaceOnUse"><path style="color:#000;display:inline;overflow:visible;visibility:visible;opacity:1;fill:#46a926;fill-opacity:1;fill-rule:nonzero;stroke:none;stroke-width:2;stroke-miterlimit:4;stroke-dasharray:none;stroke-opacity:1;marker:none;enable-background:accumulate" id="path973" d="m 327.8652,189 c -4.41209,0 -4.88682,0.45318 -4.8652,4.87419 V 200 206.12581 C 322.9783,210.54682 323.45311,211 327.8652,211 h 8.2696 C 340.54689,211 341,210.54688 341,206.12581 V 200 193.87419 C 341,189.45313 340.54688,189 336.13479,189 Z"/></clipPath><clipPath id="clipPath983" clipPathUnits="userSpaceOnUse"><path id="path985" d="m 325.09646,237 c -2.80769,0 -3.10979,0.28839 -3.09603,3.10176 V 244 v 3.89824 c -0.0138,2.81337 0.28834,3.10176 3.09603,3.10176 h 5.8075 C 333.71166,251 334,250.71165 334,247.89824 V 244 240.10176 C 334,237.28836 333.71165,237 330.90396,237 Z" style="color:#000;display:inline;overflow:visible;visibility:visible;opacity:1;fill:#46a926;fill-opacity:1;fill-rule:nonzero;stroke:none;stroke-width:2;stroke-miterlimit:4;stroke-dasharray:none;stroke-opacity:1;marker:none;enable-background:accumulate"/></clipPath><clipPath id="clipPath959" clipPathUnits="userSpaceOnUse"><path style="color:#000;display:inline;overflow:visible;visibility:visible;opacity:1;fill:#46a926;fill-opacity:1;fill-rule:nonzero;stroke:none;stroke-width:2;stroke-miterlimit:4;stroke-dasharray:none;stroke-opacity:1;marker:none;enable-background:accumulate" id="path961" d="m 330.1929,133.99999 c -5.61538,0 -6.21958,0.57678 -6.19206,6.20352 v 7.79648 7.79648 c -0.0276,5.62673 0.57668,6.20351 6.19206,6.20351 h 11.615 c 5.6154,0 6.19208,-0.5767 6.19208,-6.20351 v -7.79648 -7.79648 c 0,-5.6268 -0.5767,-6.20352 -6.19208,-6.20352 z"/></clipPath><filter style="color-interpolation-filters:sRGB" id="filter945" width="1.048" height="1.048" x="-.024" y="-.024"><feGaussianBlur id="feGaussianBlur947" stdDeviation="2.24"/></filter><filter style="color-interpolation-filters:sRGB" id="filter951" width="1.12" height="1.12" x="-.06" y="-.06"><feGaussianBlur id="feGaussianBlur953" stdDeviation="5.6"/></filter></defs><metadata id="metadata4"/><g style="display:inline" id="layer1"><g style="display:none" id="layer7"><text style="font-style:normal;font-variant:normal;font-weight:400;font-stretch:normal;line-height:0%;font-family:'DejaVu Sans';-inkscape-font-specification:'DejaVu Sans';display:inline;fill:#000;fill-opacity:1;stroke:none;enable-background:new" id="context" x="19.007" y="-8.255" xml:space="preserve"><tspan style="font-style:normal;font-variant:normal;font-weight:400;font-stretch:normal;font-size:18px;line-height:1.25;font-family:'DejaVu Sans';-inkscape-font-specification:'DejaVu Sans'" id="tspan3933" x="19.007" y="-8.255">emblems</tspan></text><text style="font-style:normal;font-variant:normal;font-weight:700;font-stretch:normal;line-height:0%;font-family:'DejaVu Sans';-inkscape-font-specification:'DejaVu Sans Bold';text-align:start;writing-mode:lr-tb;text-anchor:start;display:inline;fill:#000;fill-opacity:1;stroke:none;enable-background:new" id="icon-name" x="146.488" y="-8.255" xml:space="preserve"><tspan style="font-style:normal;font-variant:normal;font-weight:700;font-stretch:normal;font-size:18px;line-height:1.25;font-family:'DejaVu Sans';-inkscape-font-specification:'DejaVu Sans Bold'" id="tspan924" x="146.488" y="-8.255">emblem-readonly</tspan></text><rect style="display:inline;overflow:visible;visibility:visible;fill:#cdcdcd;fill-opacity:1;fill-rule:nonzero;stroke:none;stroke-width:2;marker:none;enable-background:accumulate" id="rect16x16" width="16" height="16" x="320" y="236"/><rect style="display:inline;overflow:visible;visibility:visible;fill:#cdcdcd;fill-opacity:1;fill-rule:nonzero;stroke:none;stroke-width:2;marker:none;enable-background:accumulate" id="rect24x24" width="24" height="24" x="320" y="188"/><rect style="display:inline;overflow:visible;visibility:visible;fill:#cdcdcd;fill-opacity:1;fill-rule:nonzero;stroke:none;stroke-width:2;marker:none;enable-background:accumulate" id="rect32x32" width="32" height="32" x="320" y="132"/><rect id="rect48x48" width="48" height="48" x="320" y="60" style="display:inline;overflow:visible;visibility:visible;fill:#cdcdcd;fill-opacity:1;fill-rule:nonzero;stroke:none;stroke-width:2;marker:none;enable-background:accumulate"/><rect style="display:inline;overflow:visible;visibility:visible;fill:#cdcdcd;fill-opacity:1;fill-rule:nonzero;stroke:none;stroke-width:2;marker:none;enable-background:accumulate" id="rect3951" width="256" height="256" x="24" y="28"/><rect id="rect841" width="8" height="8" x="320" y="268" style="display:inline;overflow:visible;visibility:visible;fill:#cdcdcd;fill-opacity:1;fill-rule:nonzero;stroke:none;stroke-width:1;marker:none;enable-background:accumulate"/></g><g id="layer2" style="display:inline"><rect style="display:inline;opacity:.2;fill:#000;fill-opacity:1;stroke:none;stroke-width:1;stroke-opacity:.25098039;enable-background:new" id="rect892" width="15" height="15" x="-252" y="-336" rx="7.5" ry="7.5" transform="matrix(0,-1,-1,0,0,0)"/><rect style="display:inline;fill:#000;fill-opacity:1;stroke:none;stroke-width:1.02439022;stroke-miterlimit:4;stroke-dasharray:none;stroke-opacity:.25098039;enable-background:new;opacity:.2" id="rect894" width="42" height="42" x="-106" y="-365" rx="21" ry="21" transform="matrix(0,-1,-1,0,0,0)"/><rect id="rect896" width="22" height="22" x="-212" y="-343" rx="11" ry="11" transform="matrix(0,-1,-1,0,0,0)" style="display:inline;fill:#000;fill-opacity:1;stroke:none;stroke-width:1.0476191;stroke-opacity:.25098039;enable-background:new;opacity:.2"/><rect style="display:inline;fill:#000;fill-opacity:1;stroke:none;stroke-width:1.03448272;stroke-opacity:.25098039;enable-background:new;opacity:.2" id="rect876" width="30" height="30" x="-164" y="-351" rx="15" ry="15" transform="matrix(0,-1,-1,0,0,0)"/><rect style="display:inline;fill:#000;fill-opacity:1;stroke:none;stroke-width:.5;enable-background:new;opacity:.1;filter:url(#filter951)" id="rect949" width="224" height="224" x="-270" y="-264" rx="112" ry="112" transform="matrix(0,-1,-1,0,0,0)"/><rect id="rect939" width="224" height="224" x="-270" y="-264" rx="112" ry="112" transform="matrix(0,-1,-1,0,0,0)" style="display:inline;fill:#000;fill-opacity:1;stroke:none;stroke-width:.5;enable-background:new;opacity:.5;filter:url(#filter945)"/><rect id="rect4414" width="15" height="15" x="-251" y="-336" rx="7.5" ry="7.5" transform="matrix(0,-1,-1,0,0,0)" style="display:inline;fill:#e95420;fill-opacity:1;stroke:none;stroke-width:1;stroke-opacity:.25098039;enable-background:new"/><rect style="display:inline;fill:#000;fill-opacity:1;stroke:none;stroke-width:1.04999995;stroke-opacity:.25098039;enable-background:new;opacity:.1" id="rect917" width="42" height="42" x="-106" y="-365" rx="21" ry="21" transform="matrix(0,-1,-1,0,0,0)"/><rect id="rect4408" width="42" height="42" x="-105" y="-365" rx="21" ry="21" transform="matrix(0,-1,-1,0,0,0)" style="display:inline;fill:#e95420;fill-opacity:1;stroke:none;stroke-width:1.02439022;stroke-miterlimit:4;stroke-dasharray:none;stroke-opacity:.25098039;enable-background:new"/><rect style="display:inline;fill:#e95420;fill-opacity:1;stroke:none;stroke-width:1.0476191;stroke-opacity:.25098039;enable-background:new" id="rect4410" width="22" height="22" x="-211" y="-343" rx="11" ry="11" transform="matrix(0,-1,-1,0,0,0)"/><rect id="rect4412" width="30" height="30" x="-163" y="-351" rx="15" ry="15" transform="matrix(0,-1,-1,0,0,0)" style="display:inline;fill:#e95420;fill-opacity:1;stroke:none;stroke-width:1.03448272;stroke-opacity:.25098039;enable-background:new"/><rect style="display:inline;fill:#e95420;fill-opacity:1;stroke:none;stroke-width:.5;enable-background:new" id="rect4418" width="224" height="224" x="-268" y="-264" rx="112" ry="112" transform="matrix(0,-1,-1,0,0,0)"/><rect style="display:inline;fill:#e95420;fill-opacity:1;stroke:none;stroke-width:1.14285719;stroke-opacity:.25098039;enable-background:new" id="rect4420" width="8" height="8" x="-276" y="-328" rx="1" ry="1" transform="matrix(0,-1,-1,0,0,0)"/></g><g id="layer6" style="display:inline"><g style="display:inline" id="g2708" transform="translate(-829.00024,439)"><rect style="color:#000;display:inline;overflow:visible;visibility:visible;fill:none;stroke:none;stroke-width:4;marker:none;enable-background:accumulate" id="rect2682" width="16" height="16" x="-247" y="-1169" transform="rotate(90)"/><path style="color:#000;font-style:normal;font-variant:normal;font-weight:400;font-stretch:normal;font-size:medium;line-height:normal;font-family:sans-serif;font-variant-ligatures:none;font-variant-position:normal;font-variant-caps:normal;font-variant-numeric:normal;font-variant-alternates:normal;font-feature-settings:normal;text-indent:0;text-align:start;text-decoration:none;text-decoration-line:none;text-decoration-style:solid;text-decoration-color:#000;letter-spacing:normal;word-spacing:normal;text-transform:none;writing-mode:lr-tb;direction:ltr;baseline-shift:baseline;text-anchor:start;white-space:normal;shape-padding:0;clip-rule:nonzero;display:inline;overflow:visible;visibility:visible;opacity:1;isolation:auto;mix-blend-mode:normal;color-interpolation:sRGB;color-interpolation-filters:linearRGB;solid-color:#000;solid-opacity:1;fill:#fff;fill-opacity:1;fill-rule:nonzero;stroke:none;stroke-width:4.00000048;stroke-linecap:butt;stroke-linejoin:miter;stroke-miterlimit:4;stroke-dasharray:none;stroke-dashoffset:0;stroke-opacity:1;marker:none;color-rendering:auto;image-rendering:auto;shape-rendering:auto;text-rendering:auto;enable-background:accumulate" id="path2684" d="m 1161.0002,-246 c -2.222,0 -4,1.778 -4,4 v 2 h -1 v 7 h 10 v -7 h -1 v -2 c 0,-2.222 -1.778,-4 -4,-4 z m 0,1 c 1.662,0 3,1.338 3,3 v 2 h -6 v -2 c 0,-1.662 1.338,-3 3,-3 z m 1,6.75 v 3.25 h -2 v -3 z"/></g><g id="g873" transform="matrix(2,0,0,2,-1978.0005,562)" style="display:inline"><rect id="rect869" width="16" height="16" x="-247" y="-1169" transform="rotate(90)" style="color:#000;display:inline;overflow:visible;visibility:visible;fill:none;stroke:none;stroke-width:4;marker:none;enable-background:accumulate"/><path id="path871" d="m 1161.0002,-246 c -2.222,0 -4,1.778 -4,4 v 2 h -1 v 7 h 10 v -7 h -1 v -2 c 0,-2.222 -1.778,-4 -4,-4 z m 0,1 c 1.662,0 3,1.338 3,3 v 2 h -6 v -2 c 0,-1.662 1.338,-3 3,-3 z m 1,6.75 v 3.25 h -2 v -3 z" style="color:#000;font-style:normal;font-variant:normal;font-weight:400;font-stretch:normal;font-size:medium;line-height:normal;font-family:sans-serif;font-variant-ligatures:none;font-variant-position:normal;font-variant-caps:normal;font-variant-numeric:normal;font-variant-alternates:normal;font-feature-settings:normal;text-indent:0;text-align:start;text-decoration:none;text-decoration-line:none;text-decoration-style:solid;text-decoration-color:#000;letter-spacing:normal;word-spacing:normal;text-transform:none;writing-mode:lr-tb;direction:ltr;baseline-shift:baseline;text-anchor:start;white-space:normal;shape-padding:0;clip-rule:nonzero;display:inline;overflow:visible;visibility:visible;opacity:1;isolation:auto;mix-blend-mode:normal;color-interpolation:sRGB;color-interpolation-filters:linearRGB;solid-color:#000;solid-opacity:1;fill:#fff;fill-opacity:1;fill-rule:nonzero;stroke:none;stroke-width:4.00000048;stroke-linecap:butt;stroke-linejoin:miter;stroke-miterlimit:4;stroke-dasharray:none;stroke-dashoffset:0;stroke-opacity:1;marker:none;color-rendering:auto;image-rendering:auto;shape-rendering:auto;text-rendering:auto;enable-background:accumulate"/></g><rect id="rect875" width="160" height="160" x="76" y="-232" transform="rotate(90)" style="color:#000;display:inline;overflow:visible;visibility:visible;fill:none;stroke:none;stroke-width:32;marker:none;enable-background:accumulate"/><path id="path877" d="m 152,86 c -22.22,0 -40,17.78 -40,40 v 20 h -10 v 70 h 100 v -70 h -10 v -20 c 0,-22.22 -17.78,-40 -40,-40 z m 0,10 c 16.62,0 30,13.38 30,30 v 20 h -60 v -20 c 0,-16.62 13.38,-30 30,-30 z m 10,67.5 V 196 h -20 v -30 z" style="color:#000;font-style:normal;font-variant:normal;font-weight:400;font-stretch:normal;font-size:medium;line-height:normal;font-family:sans-serif;font-variant-ligatures:none;font-variant-position:normal;font-variant-caps:normal;font-variant-numeric:normal;font-variant-alternates:normal;font-feature-settings:normal;text-indent:0;text-align:start;text-decoration:none;text-decoration-line:none;text-decoration-style:solid;text-decoration-color:#000;letter-spacing:normal;word-spacing:normal;text-transform:none;writing-mode:lr-tb;direction:ltr;baseline-shift:baseline;text-anchor:start;white-space:normal;shape-padding:0;clip-rule:nonzero;display:inline;overflow:visible;visibility:visible;opacity:1;isolation:auto;mix-blend-mode:normal;color-interpolation:sRGB;color-interpolation-filters:linearRGB;solid-color:#000;solid-opacity:1;fill:#fff;fill-opacity:1;fill-rule:nonzero;stroke:none;stroke-width:32.00000381;stroke-linecap:butt;stroke-linejoin:miter;stroke-miterlimit:4;stroke-dasharray:none;stroke-dashoffset:0;stroke-opacity:1;marker:none;color-rendering:auto;image-rendering:auto;shape-rendering:auto;text-rendering:auto;enable-background:accumulate"/><path id="path6628" d="m 324,269 c -1.108,0 -2,1 -2,2.03125 V 272 h -1 v 1 1 1 h 1 4 1 v -1 -1 c 0,-0.29614 0,1.11801 0,-1 h -1 v -0.96875 C 326,269.91135 325.108,269 324,269 Z m 0,1 c 0.554,0 1,0.4424 1,1 v 1 h -2 v -1 c 0,-0.5576 0.446,-1 1,-1 z" style="display:inline;fill:#fff;fill-opacity:1;stroke:none;stroke-opacity:1;enable-background:new"/><g id="g901"><rect id="rect890" width="14" height="10" x="329" y="146" style="opacity:1;fill:#fff;fill-opacity:1;stroke:none;stroke-width:1;stroke-linecap:butt;stroke-linejoin:round;stroke-miterlimit:4;stroke-dasharray:none;stroke-dashoffset:1;stroke-opacity:1"/><rect id="rect888" width="9" height="14" x="331.5" y="138.5" ry="4.5" style="opacity:1;fill:none;fill-opacity:1;stroke:#fff;stroke-width:1;stroke-linecap:butt;stroke-linejoin:round;stroke-miterlimit:4;stroke-dasharray:none;stroke-dashoffset:1;stroke-opacity:1"/><path style="color:#000;font-style:normal;font-variant:normal;font-weight:400;font-stretch:normal;font-size:medium;line-height:normal;font-family:sans-serif;font-variant-ligatures:none;font-variant-position:normal;font-variant-caps:normal;font-variant-numeric:normal;font-variant-alternates:normal;font-feature-settings:normal;text-indent:0;text-align:start;text-decoration:none;text-decoration-line:none;text-decoration-style:solid;text-decoration-color:#000;letter-spacing:normal;word-spacing:normal;text-transform:none;writing-mode:lr-tb;direction:ltr;baseline-shift:baseline;text-anchor:start;white-space:normal;shape-padding:0;clip-rule:nonzero;display:inline;overflow:visible;visibility:visible;opacity:1;isolation:auto;mix-blend-mode:normal;color-interpolation:sRGB;color-interpolation-filters:linearRGB;solid-color:#000;solid-opacity:1;fill:#e95420;fill-opacity:1;fill-rule:nonzero;stroke:none;stroke-width:4.89898014;stroke-linecap:butt;stroke-linejoin:miter;stroke-miterlimit:4;stroke-dasharray:none;stroke-dashoffset:0;stroke-opacity:1;marker:none;color-rendering:auto;image-rendering:auto;shape-rendering:auto;text-rendering:auto;enable-background:accumulate" id="path882" d="m 337,148.5 v 4.5 h -2 v -4 z"/></g><rect id="rect914" width="7" height="5" x="325" y="243" style="opacity:1;fill:#fff;fill-opacity:1;stroke:none;stroke-width:1;stroke-linecap:butt;stroke-linejoin:round;stroke-miterlimit:4;stroke-dasharray:none;stroke-dashoffset:1;stroke-opacity:1"/><rect id="rect916" width="4" height="6.091" x="326.5" y="239.506" ry="1.958" style="opacity:1;fill:none;fill-opacity:1;stroke:#fff;stroke-width:1;stroke-linecap:butt;stroke-linejoin:round;stroke-miterlimit:4;stroke-dasharray:none;stroke-dashoffset:1;stroke-opacity:1"/><path style="color:#000;font-style:normal;font-variant:normal;font-weight:400;font-stretch:normal;font-size:medium;line-height:normal;font-family:sans-serif;font-variant-ligatures:none;font-variant-position:normal;font-variant-caps:normal;font-variant-numeric:normal;font-variant-alternates:normal;font-feature-settings:normal;text-indent:0;text-align:start;text-decoration:none;text-decoration-line:none;text-decoration-style:solid;text-decoration-color:#000;letter-spacing:normal;word-spacing:normal;text-transform:none;writing-mode:lr-tb;direction:ltr;baseline-shift:baseline;text-anchor:start;white-space:normal;shape-padding:0;clip-rule:nonzero;display:inline;overflow:visible;visibility:visible;opacity:1;isolation:auto;mix-blend-mode:normal;color-interpolation:sRGB;color-interpolation-filters:linearRGB;solid-color:#000;solid-opacity:1;fill:#e95420;fill-opacity:1;fill-rule:nonzero;stroke:none;stroke-width:4.89898014;stroke-linecap:butt;stroke-linejoin:miter;stroke-miterlimit:4;stroke-dasharray:none;stroke-dashoffset:0;stroke-opacity:1;marker:none;color-rendering:auto;image-rendering:auto;shape-rendering:auto;text-rendering:auto;enable-background:accumulate" id="path918" d="M 329,244.81428 V 247 h -1 v -1.94286 z"/></g></g></svg>