<svg xmlns="http://www.w3.org/2000/svg" xmlns:svg="http://www.w3.org/2000/svg" xmlns:xlink="http://www.w3.org/1999/xlink" id="svg11300" width="400" height="300" version="1.0" style="display:inline;enable-background:new"><title id="title3004">Suru Icon Theme Template</title><defs id="defs3"><linearGradient id="linearGradient1129"><stop style="stop-color:#000;stop-opacity:0" id="stop1123" offset="0"/><stop id="stop1125" offset="1" style="stop-color:#000;stop-opacity:1"/></linearGradient><linearGradient id="linearGradient927"><stop style="stop-color:#fff;stop-opacity:1" id="stop923" offset="0"/><stop id="stop933" offset=".125" style="stop-color:#fff;stop-opacity:.09803922"/><stop id="stop931" offset=".925" style="stop-color:#fff;stop-opacity:.09803922"/><stop style="stop-color:#fff;stop-opacity:.49803922" id="stop925" offset="1"/></linearGradient><clipPath id="clipPath9430" clipPathUnits="userSpaceOnUse"><path id="path9432" d="m 166.0625,-196 h 179.875 C 491.2348,-196 512,-175.28677 512,-30.125 v 148.25 C 512,263.28618 491.2348,284 345.9375,284 H 166.0625 C 20.7652,284 0,263.28618 0,118.125 V -30.125 C 0,-175.28677 20.7652,-196 166.0625,-196 Z" style="color:#000;display:inline;overflow:visible;visibility:visible;fill:#fff;fill-opacity:1;fill-rule:nonzero;stroke:none;stroke-width:1;marker:none;enable-background:new"/></clipPath><linearGradient id="linearGradient929" x1="168" x2="168" y1="239" y2="279" gradientTransform="matrix(-1,0,0,1,512,-175)" gradientUnits="userSpaceOnUse" xlink:href="#linearGradient927"/><linearGradient id="linearGradient965" x1="112" x2="112" y1="255" y2="281" gradientTransform="matrix(-1,0,0,1,448,-120)" gradientUnits="userSpaceOnUse" xlink:href="#linearGradient927"/><linearGradient id="linearGradient1006" x1="64" x2="64" y1="263" y2="281" gradientTransform="matrix(-1,0,0,1,396,-72)" gradientUnits="userSpaceOnUse" xlink:href="#linearGradient927"/><linearGradient id="linearGradient1045" x1="760" x2="760" y1="254" y2="265" gradientTransform="translate(-432,-16)" gradientUnits="userSpaceOnUse" xlink:href="#linearGradient927"/><clipPath id="clipPath1082" clipPathUnits="userSpaceOnUse"><path id="path1084" d="M 361.9375,-212 C 507.2348,-212 528,-191.28677 528,-46.125 V 70.125 C 528,215.28618 507.2348,236 361.9375,236 H 214.0625 C 68.7652,236 48,215.28618 48,70.125 V -46.125 C 48,-191.28677 68.7652,-212 214.0625,-212 Z" style="display:inline;opacity:1;fill:#8c59d9;fill-opacity:1;stroke:none;stroke-width:2;stroke-linecap:round;stroke-linejoin:round;stroke-miterlimit:4;stroke-dasharray:none;stroke-dashoffset:0;stroke-opacity:1;enable-background:new"/></clipPath><filter style="color-interpolation-filters:sRGB" id="filter4569" width="1.023" height="1.025" x="-.012" y="-.012"><feGaussianBlur id="feGaussianBlur4571" stdDeviation="1.16"/></filter><linearGradient id="linearGradient4463"><stop id="stop4465" offset="0" style="stop-color:#000;stop-opacity:0"/><stop style="stop-color:#000;stop-opacity:1" id="stop4471" offset=".423"/><stop id="stop4467" offset="1" style="stop-color:#000;stop-opacity:0"/></linearGradient><clipPath id="clipPath1064" clipPathUnits="userSpaceOnUse"><path style="opacity:1;fill:#a3dbf0;fill-opacity:1;stroke:none;stroke-width:2;stroke-linecap:round;stroke-linejoin:round;stroke-miterlimit:4;stroke-dasharray:none;stroke-dashoffset:0;stroke-opacity:1" id="path1066" d="M 115.03125,44 C 42.3826,44 32,54.356615 32,126.9375 v 58.125 c 0,10.16582 0.217657,19.07051 0.767578,26.9375 3.376331,48.30069 19.790377,56 82.263672,56 h 73.9375 c 62.4733,0 78.88734,-7.69931 82.26367,-56 C 271.78234,204.13301 272,195.22832 272,185.0625 v -58.125 C 272,54.356615 261.6174,44 188.96875,44 Z"/></clipPath><linearGradient id="linearGradient1091" x1="128" x2="185.544" y1="100" y2="133.849" gradientTransform="translate(0,2)" gradientUnits="userSpaceOnUse" xlink:href="#linearGradient1129"/><filter style="color-interpolation-filters:sRGB" id="filter1101" width="1.21" height="1.28" x="-.105" y="-.14"><feGaussianBlur id="feGaussianBlur1103" stdDeviation="7"/></filter><filter style="color-interpolation-filters:sRGB" id="filter1117" width="1.021" height="1.028" x="-.011" y="-.014"><feGaussianBlur id="feGaussianBlur1119" stdDeviation=".7"/></filter><linearGradient id="linearGradient1121" x1="128" x2="264" y1="100" y2="180" gradientUnits="userSpaceOnUse" xlink:href="#linearGradient4463"/><clipPath id="clipPath1144" clipPathUnits="userSpaceOnUse"><path id="path1146" d="m 563.72139,-143.78206 c 77.49205,0 88.56678,11.04708 88.56678,88.466604 V 6.684672 c 0,77.419349 -11.07473,88.466603 -88.56678,88.466603 h -78.86661 c -77.49171,0 -88.56661,-11.047254 -88.56661,-88.466603 v -62.000128 c 0,-77.419524 11.0749,-88.466604 88.56678,-88.466604 z" style="display:inline;opacity:1;fill:#a3dbf0;fill-opacity:1;stroke:none;stroke-width:2;stroke-linecap:round;stroke-linejoin:round;stroke-miterlimit:4;stroke-dasharray:none;stroke-dashoffset:0;stroke-opacity:1;enable-background:new"/></clipPath><clipPath id="clipPath1151" clipPathUnits="userSpaceOnUse"><path id="path1153" d="m 335.71582,189.50031 c 6.81081,10e-6 7.78418,0.97093 7.78418,7.77539 v 5.44891 c 0,6.80444 -0.97337,7.77539 -7.78418,7.77539 h -7.43164 c -6.81081,0 -7.78418,-0.97095 -7.78418,-7.77539 v -5.44892 c 0,-6.80446 0.97337,-7.7754 7.78418,-7.77539 z" style="display:inline;opacity:1;fill:#a3dbf0;fill-opacity:1;stroke:none;stroke-width:2;stroke-linecap:round;stroke-linejoin:round;stroke-miterlimit:4;stroke-dasharray:none;stroke-dashoffset:0;stroke-opacity:1;enable-background:new"/></clipPath><clipPath id="clipPath1158" clipPathUnits="userSpaceOnUse"><path style="display:inline;opacity:1;fill:#a3dbf0;fill-opacity:1;stroke:none;stroke-width:2;stroke-linecap:round;stroke-linejoin:round;stroke-miterlimit:4;stroke-dasharray:none;stroke-dashoffset:0;stroke-opacity:1;enable-background:new" id="path1160" d="m 341.12109,133.5 c 9.08109,0 10.37891,1.29458 10.37891,10.36719 v 8.26562 c 0,9.07258 -1.29782,10.36719 -10.37891,10.36719 H 330.87891 C 321.79783,162.5 320.5,161.20539 320.5,152.13281 v -8.26562 c 0,-9.07261 1.29783,-10.36719 10.37891,-10.36719 z"/></clipPath><clipPath id="clipPath1165" clipPathUnits="userSpaceOnUse"><path style="display:inline;opacity:1;fill:#a3dbf0;fill-opacity:1;stroke:none;stroke-width:2;stroke-linecap:round;stroke-linejoin:round;stroke-miterlimit:4;stroke-dasharray:none;stroke-dashoffset:0;stroke-opacity:1;enable-background:new" id="path1167" d="M 351.93164,62.5 C 365.55326,62.5 367.5,64.44187 367.5,78.05078 V 89.94922 C 367.5,103.55808 365.55326,105.5 351.93164,105.5 H 336.06836 C 322.44674,105.5 320.5,103.55808 320.5,89.94922 V 78.05078 C 320.5,64.44187 322.44674,62.5 336.06836,62.5 Z"/></clipPath><filter style="color-interpolation-filters:sRGB" id="filter956" width="1.046" height="1.05" x="-.023" y="-.025"><feGaussianBlur id="feGaussianBlur958" stdDeviation="2.32"/></filter><linearGradient id="linearGradient1108" x1="296" x2="296" y1="-212" y2="236" gradientUnits="userSpaceOnUse" xlink:href="#linearGradient1013"/><linearGradient id="linearGradient1013"><stop id="stop1005" offset="0" style="stop-color:#fff;stop-opacity:1"/><stop style="stop-color:#fff;stop-opacity:.09803922" id="stop1007" offset=".125"/><stop style="stop-color:#000;stop-opacity:.09803922" id="stop1009" offset=".925"/><stop id="stop1011" offset="1" style="stop-color:#000;stop-opacity:.49803922"/></linearGradient><clipPath id="clipPath1082-3" clipPathUnits="userSpaceOnUse"><path id="path1084-6" d="M 361.9375,-212 C 507.2348,-212 528,-191.28677 528,-46.125 V 70.125 C 528,215.28618 507.2348,236 361.9375,236 H 214.0625 C 68.7652,236 48,215.28618 48,70.125 V -46.125 C 48,-191.28677 68.7652,-212 214.0625,-212 Z" style="display:inline;opacity:1;fill:#8c59d9;fill-opacity:1;stroke:none;stroke-width:2;stroke-linecap:round;stroke-linejoin:round;stroke-miterlimit:4;stroke-dasharray:none;stroke-dashoffset:0;stroke-opacity:1;enable-background:new"/></clipPath><filter style="color-interpolation-filters:sRGB" id="filter1001" width="1.12" height="1.12" x="-.06" y="-.06"><feGaussianBlur id="feGaussianBlur1003" stdDeviation="1.2"/></filter></defs><metadata id="metadata4"/><g style="display:inline" id="layer1"><g style="display:none" id="layer7"><text style="font-style:normal;font-variant:normal;font-weight:400;font-stretch:normal;line-height:0%;font-family:'DejaVu Sans';-inkscape-font-specification:'DejaVu Sans';display:inline;fill:#000;fill-opacity:1;stroke:none;enable-background:new" id="context" x="19.007" y="-8.255" xml:space="preserve"><tspan style="font-style:normal;font-variant:normal;font-weight:400;font-stretch:normal;font-size:18px;line-height:1.25;font-family:'DejaVu Sans';-inkscape-font-specification:'DejaVu Sans'" id="tspan3933" x="19.007" y="-8.255">apps</tspan></text><text style="font-style:normal;font-variant:normal;font-weight:700;font-stretch:normal;line-height:0%;font-family:'DejaVu Sans';-inkscape-font-specification:'DejaVu Sans Bold';text-align:start;writing-mode:lr-tb;text-anchor:start;display:inline;fill:#000;fill-opacity:1;stroke:none;enable-background:new" id="icon-name" x="146.488" y="-8.255" xml:space="preserve"><tspan style="font-style:normal;font-variant:normal;font-weight:700;font-stretch:normal;font-size:18px;line-height:1.25;font-family:'DejaVu Sans';-inkscape-font-specification:'DejaVu Sans Bold'" id="tspan3937" x="146.488" y="-8.255">gallery-app</tspan></text><rect style="display:inline;overflow:visible;visibility:visible;fill:#cdcdcd;fill-opacity:1;fill-rule:nonzero;stroke:none;stroke-width:2;marker:none;enable-background:accumulate" id="rect16x16" width="16" height="16" x="320" y="236"/><rect style="display:inline;overflow:visible;visibility:visible;fill:#cdcdcd;fill-opacity:1;fill-rule:nonzero;stroke:none;stroke-width:2;marker:none;enable-background:accumulate" id="rect24x24" width="24" height="24" x="320" y="188"/><rect style="display:inline;overflow:visible;visibility:visible;fill:#cdcdcd;fill-opacity:1;fill-rule:nonzero;stroke:none;stroke-width:2;marker:none;enable-background:accumulate" id="rect32x32" width="32" height="32" x="320" y="132"/><rect id="rect48x48" width="48" height="48" x="320" y="60" style="display:inline;overflow:visible;visibility:visible;fill:#cdcdcd;fill-opacity:1;fill-rule:nonzero;stroke:none;stroke-width:2;marker:none;enable-background:accumulate"/><rect style="display:inline;overflow:visible;visibility:visible;fill:#cdcdcd;fill-opacity:1;fill-rule:nonzero;stroke:none;stroke-width:2;marker:none;enable-background:accumulate" id="rect3951" width="256" height="256" x="24" y="28"/></g><g id="layer4" style="display:inline"><path style="color:#000;font-style:normal;font-variant:normal;font-weight:400;font-stretch:normal;font-size:medium;line-height:normal;font-family:sans-serif;font-variant-ligatures:normal;font-variant-position:normal;font-variant-caps:normal;font-variant-numeric:normal;font-variant-alternates:normal;font-feature-settings:normal;text-indent:0;text-align:start;text-decoration:none;text-decoration-line:none;text-decoration-style:solid;text-decoration-color:#000;letter-spacing:normal;word-spacing:normal;text-transform:none;writing-mode:lr-tb;direction:ltr;text-orientation:mixed;dominant-baseline:auto;baseline-shift:baseline;text-anchor:start;white-space:normal;shape-padding:0;clip-rule:nonzero;display:inline;overflow:visible;visibility:visible;opacity:.2;isolation:auto;mix-blend-mode:normal;color-interpolation:sRGB;color-interpolation-filters:linearRGB;solid-color:#000;solid-opacity:1;vector-effect:none;fill:#000;fill-opacity:1;fill-rule:nonzero;stroke:none;stroke-width:1;stroke-linecap:round;stroke-linejoin:round;stroke-miterlimit:4;stroke-dasharray:none;stroke-dashoffset:0;stroke-opacity:1;color-rendering:auto;image-rendering:auto;shape-rendering:auto;text-rendering:auto;enable-background:accumulate" id="path907" d="m 351.93164,63 c 6.83457,0 10.87325,0.44856 13.24609,2.81836 C 367.55058,68.18816 368,72.22248 368,79.05078 v 11.89844 c 0,6.82827 -0.44942,10.86261 -2.82227,13.23242 C 362.80489,106.55145 358.76621,107 351.93164,107 h -15.86328 c -6.83457,0 -10.87325,-0.44855 -13.24609,-2.81836 C 320.44942,101.81183 320,97.77749 320,90.94922 V 79.05078 c 0,-6.8283 0.44942,-10.86262 2.82227,-13.23242 C 325.19511,63.44856 329.23379,63 336.06836,63 Z"/><path style="color:#000;font-style:normal;font-variant:normal;font-weight:400;font-stretch:normal;font-size:medium;line-height:normal;font-family:sans-serif;font-variant-ligatures:normal;font-variant-position:normal;font-variant-caps:normal;font-variant-numeric:normal;font-variant-alternates:normal;font-feature-settings:normal;text-indent:0;text-align:start;text-decoration:none;text-decoration-line:none;text-decoration-style:solid;text-decoration-color:#000;letter-spacing:normal;word-spacing:normal;text-transform:none;writing-mode:lr-tb;direction:ltr;text-orientation:mixed;dominant-baseline:auto;baseline-shift:baseline;text-anchor:start;white-space:normal;shape-padding:0;clip-rule:nonzero;display:inline;overflow:visible;visibility:visible;opacity:.2;isolation:auto;mix-blend-mode:normal;color-interpolation:sRGB;color-interpolation-filters:linearRGB;solid-color:#000;solid-opacity:1;vector-effect:none;fill:#000;fill-opacity:1;fill-rule:nonzero;stroke:none;stroke-width:1;stroke-linecap:round;stroke-linejoin:round;stroke-miterlimit:4;stroke-dasharray:none;stroke-dashoffset:0;stroke-opacity:1;color-rendering:auto;image-rendering:auto;shape-rendering:auto;text-rendering:auto;enable-background:new" id="path1011" d="m 341.12109,134 c 4.56431,0 7.30422,0.28679 8.94727,1.92773 1.64305,1.64095 1.93164,4.37931 1.93164,8.93946 v 8.26562 c 0,4.56013 -0.28859,7.29851 -1.93164,8.93946 C 348.42531,163.71321 345.6854,164 341.12109,164 h -10.24218 c -4.5643,0 -7.30422,-0.28679 -8.94727,-1.92773 C 320.28859,160.43132 320,157.69294 320,153.13281 v -8.26562 c 0,-4.56015 0.28859,-7.29851 1.93164,-8.93946 C 323.57469,134.28679 326.31461,134 330.87891,134 Z"/><path style="color:#000;font-style:normal;font-variant:normal;font-weight:400;font-stretch:normal;font-size:medium;line-height:normal;font-family:sans-serif;font-variant-ligatures:normal;font-variant-position:normal;font-variant-caps:normal;font-variant-numeric:normal;font-variant-alternates:normal;font-feature-settings:normal;text-indent:0;text-align:start;text-decoration:none;text-decoration-line:none;text-decoration-style:solid;text-decoration-color:#000;letter-spacing:normal;word-spacing:normal;text-transform:none;writing-mode:lr-tb;direction:ltr;text-orientation:mixed;dominant-baseline:auto;baseline-shift:baseline;text-anchor:start;white-space:normal;shape-padding:0;clip-rule:nonzero;display:inline;overflow:visible;visibility:visible;opacity:.2;isolation:auto;mix-blend-mode:normal;color-interpolation:sRGB;color-interpolation-filters:linearRGB;solid-color:#000;solid-opacity:1;vector-effect:none;fill:#000;fill-opacity:1;fill-rule:nonzero;stroke:none;stroke-width:1;stroke-linecap:round;stroke-linejoin:round;stroke-miterlimit:4;stroke-dasharray:none;stroke-dashoffset:0;stroke-opacity:1;color-rendering:auto;image-rendering:auto;shape-rendering:auto;text-rendering:auto;enable-background:new" id="path1013" d="m 335.71484,190 c 3.42917,1e-5 5.52264,0.20591 6.80078,1.48242 1.27815,1.27651 1.48438,3.3669 1.48438,6.79297 v 5.44922 c 0,3.42606 -0.20623,5.51645 -1.48438,6.79297 C 341.23748,211.79409 339.14401,212 335.71484,212 h -7.42968 c -3.42917,0 -5.52263,-0.20591 -6.80079,-1.48242 C 320.20622,209.24106 320,207.15067 320,203.72461 v -5.44922 c 0,-3.42607 0.20622,-5.51646 1.48437,-6.79297 1.27816,-1.27651 3.37162,-1.48243 6.80079,-1.48242 z"/><path style="color:#000;font-style:normal;font-variant:normal;font-weight:400;font-stretch:normal;font-size:medium;line-height:normal;font-family:sans-serif;font-variant-ligatures:normal;font-variant-position:normal;font-variant-caps:normal;font-variant-numeric:normal;font-variant-alternates:normal;font-feature-settings:normal;text-indent:0;text-align:start;text-decoration:none;text-decoration-line:none;text-decoration-style:solid;text-decoration-color:#000;letter-spacing:normal;word-spacing:normal;text-transform:none;writing-mode:lr-tb;direction:ltr;text-orientation:mixed;dominant-baseline:auto;baseline-shift:baseline;text-anchor:start;white-space:normal;shape-padding:0;clip-rule:nonzero;display:inline;overflow:visible;visibility:visible;opacity:.2;isolation:auto;mix-blend-mode:normal;color-interpolation:sRGB;color-interpolation-filters:linearRGB;solid-color:#000;solid-opacity:1;vector-effect:none;fill:#000;fill-opacity:1;fill-rule:nonzero;stroke:none;stroke-width:1;stroke-linecap:round;stroke-linejoin:round;stroke-miterlimit:4;stroke-dasharray:none;stroke-dashoffset:0;stroke-opacity:1;color-rendering:auto;image-rendering:auto;shape-rendering:auto;text-rendering:auto;enable-background:new" id="path1050" d="m 325.68945,237 c -2.29403,0 -3.73713,0.12503 -4.65039,1.03711 C 320.12581,238.94919 320,240.3916 320,242.68359 v 3.63282 c 0,2.29198 0.12581,3.7344 1.03906,4.64648 0.91325,0.91208 2.35637,1.03711 4.65039,1.03711 h 4.6211 c 2.29403,0 3.73713,-0.12503 4.65039,-1.03711 0.91325,-0.91208 1.03906,-2.3545 1.03906,-4.64648 v -3.63282 c 0,-2.29199 -0.12581,-3.7344 -1.03906,-4.64648 C 334.04768,237.12503 332.60458,237 330.31055,237 Z"/><path id="path4567" d="m 188.96876,43.999995 c 72.64865,0 83.03125,10.356615 83.03125,82.937505 v 58.125 c 0,72.58059 -10.3826,82.9375 -83.03125,82.9375 h -73.9375 C 42.382606,268 32.000006,257.64309 32.000006,185.0625 v -58.125 c 0,-72.58089 10.3826,-82.937505 83.031254,-82.937505 z" style="display:inline;opacity:.1;fill:#000;fill-opacity:1;stroke:none;stroke-width:2;stroke-linecap:round;stroke-linejoin:round;stroke-miterlimit:4;stroke-dasharray:none;stroke-dashoffset:0;stroke-opacity:1;filter:url(#filter4569);enable-background:new"/><path style="display:inline;opacity:.2;fill:#000;fill-opacity:1;stroke:none;stroke-width:2;stroke-linecap:round;stroke-linejoin:round;stroke-miterlimit:4;stroke-dasharray:none;stroke-dashoffset:0;stroke-opacity:1;enable-background:new;filter:url(#filter956)" id="path954" d="m 188.96876,45.999995 c 72.64865,0 83.03125,10.356615 83.03125,82.937505 v 58.125 c 0,72.58059 -10.3826,82.9375 -83.03125,82.9375 h -73.9375 C 42.382606,270 32.000006,259.64309 32.000006,187.0625 v -58.125 c 0,-72.58089 10.3826,-82.937505 83.031254,-82.937505 z"/></g><g id="layer2" style="display:inline"><path style="opacity:1;fill:#a3dbf0;fill-opacity:1;stroke:none;stroke-width:2;stroke-linecap:round;stroke-linejoin:round;stroke-miterlimit:4;stroke-dasharray:none;stroke-dashoffset:0;stroke-opacity:1" id="rect877" d="M 115.03125,44 C 42.3826,44 32,54.356615 32,126.9375 v 58.125 c 0,10.16582 0.217657,19.07051 0.767578,26.9375 L 48,220 h 208 l 15.23242,-8 C 271.78234,204.13301 272,195.22832 272,185.0625 v -58.125 C 272,54.356615 261.6174,44 188.96875,44 Z"/><path style="opacity:1;fill:#8fbf3a;fill-opacity:1;stroke:none;stroke-width:2;stroke-linecap:round;stroke-linejoin:round;stroke-miterlimit:4;stroke-dasharray:none;stroke-dashoffset:0;stroke-opacity:1" id="path1031" d="m 32.767578,212 c 3.376331,48.30069 19.790377,56 82.263672,56 h 73.9375 c 62.4733,0 78.88734,-7.69931 82.26367,-56 H 56.5 Z"/><path style="opacity:1;fill:#a3dbf0;fill-opacity:1;stroke:none;stroke-width:2;stroke-linecap:round;stroke-linejoin:round;stroke-miterlimit:4;stroke-dasharray:none;stroke-dashoffset:0;stroke-opacity:1" id="path888" d="M 336.06836 62.5 C 322.44674 62.5 320.5 64.441871 320.5 78.050781 L 320.5 89.949219 C 320.5 91.443282 320.53004 92.774311 320.58984 94 L 367.41016 94 C 367.46996 92.774311 367.5 91.443282 367.5 89.949219 L 367.5 78.050781 C 367.5 64.441871 365.55326 62.5 351.93164 62.5 L 336.06836 62.5 z"/><path style="opacity:1;fill:#a3dbf0;fill-opacity:1;stroke:none;stroke-width:2;stroke-linecap:round;stroke-linejoin:round;stroke-miterlimit:4;stroke-dasharray:none;stroke-dashoffset:0;stroke-opacity:1" id="path942" d="M 330.87891 133.5 C 321.79783 133.5 320.5 134.79458 320.5 143.86719 L 320.5 152.13281 C 320.5 153.19864 320.52397 154.13835 320.57031 155 L 351.42969 155 C 351.47603 154.13835 351.5 153.19864 351.5 152.13281 L 351.5 143.86719 C 351.5 134.79458 350.20218 133.5 341.12109 133.5 L 330.87891 133.5 z"/><path style="opacity:1;fill:#a3dbf0;fill-opacity:1;stroke:none;stroke-width:2;stroke-linecap:round;stroke-linejoin:round;stroke-miterlimit:4;stroke-dasharray:none;stroke-dashoffset:0;stroke-opacity:1" id="path946" d="M 325.68945 236.5 C 321.14891 236.5 320.5 237.14729 320.5 241.68359 L 320.5 245.31641 C 320.5 245.95824 320.51952 246.50469 320.55469 247 L 335.44531 247 C 335.48048 246.50469 335.5 245.95824 335.5 245.31641 L 335.5 241.68359 C 335.5 237.14729 334.8511 236.5 330.31055 236.5 L 325.68945 236.5 z"/><path style="opacity:1;fill:#a3dbf0;fill-opacity:1;stroke:none;stroke-width:2;stroke-linecap:round;stroke-linejoin:round;stroke-miterlimit:4;stroke-dasharray:none;stroke-dashoffset:0;stroke-opacity:1" id="path948" d="M 328.28516 189.5 C 321.47435 189.49999 320.5 190.47093 320.5 197.27539 L 320.5 202.72461 C 320.5 203.57081 320.51523 204.32488 320.55469 205 L 343.44531 205 C 343.48477 204.32488 343.5 203.57081 343.5 202.72461 L 343.5 197.27539 C 343.5 190.47093 342.52565 189.50001 335.71484 189.5 L 328.28516 189.5 z"/><g id="g1057" clip-path="url(#clipPath1064)"><path id="path4390" d="M 216,28 82,284 H 280 V 28 Z" style="color:#000;display:inline;overflow:visible;visibility:visible;opacity:.1;fill:#fff;fill-opacity:1;fill-rule:nonzero;stroke:none;stroke-width:2;stroke-linecap:butt;stroke-linejoin:miter;stroke-miterlimit:4;stroke-dasharray:none;stroke-dashoffset:0;stroke-opacity:1;marker:none;enable-background:accumulate"/><path style="color:#000;display:inline;overflow:visible;visibility:visible;fill:#b6e2f3;fill-opacity:1;fill-rule:nonzero;stroke:none;stroke-width:2;marker:none;enable-background:accumulate" id="rect4248" d="M 168,28 72,212 h 48 L 216,28 Z"/><path style="color:#000;display:inline;overflow:visible;visibility:visible;fill:#ffda64;fill-opacity:1;fill-rule:nonzero;stroke:none;stroke-width:2;marker:none;enable-background:accumulate" id="path4266" d="m 216,28 -96,184 h 72 L 288,28 Z"/><path id="path1051" d="m 288,28 -96,184 h 48 L 336,28 Z" style="color:#000;display:inline;overflow:visible;visibility:visible;fill:#b6e2f3;fill-opacity:1;fill-rule:nonzero;stroke:none;stroke-width:2;marker:none;enable-background:accumulate"/></g><path style="opacity:1;fill:#8fbf3a;fill-opacity:1;stroke:none;stroke-width:2;stroke-linecap:round;stroke-linejoin:round;stroke-miterlimit:4;stroke-dasharray:none;stroke-dashoffset:0;stroke-opacity:1" id="path1082" d="M 320.58984 94 C 321.07475 103.93865 323.9422 105.5 336.06836 105.5 L 351.93164 105.5 C 364.0578 105.5 366.92525 103.93865 367.41016 94 L 320.58984 94 z"/><path style="opacity:1;fill:#8fbf3a;fill-opacity:1;stroke:none;stroke-width:2;stroke-linecap:round;stroke-linejoin:round;stroke-miterlimit:4;stroke-dasharray:none;stroke-dashoffset:0;stroke-opacity:1" id="path1094" d="M 320.57031 155 C 320.91841 161.47292 322.86465 162.5 330.87891 162.5 L 341.12109 162.5 C 349.13535 162.5 351.08159 161.47292 351.42969 155 L 320.57031 155 z"/><path style="opacity:1;fill:#8fbf3a;fill-opacity:1;stroke:none;stroke-width:2;stroke-linecap:round;stroke-linejoin:round;stroke-miterlimit:4;stroke-dasharray:none;stroke-dashoffset:0;stroke-opacity:1" id="path1099" d="M 320.55469 205 C 320.83255 209.75362 322.32134 210.5 328.28516 210.5 L 335.71484 210.5 C 341.67866 210.5 343.16745 209.75362 343.44531 205 L 320.55469 205 z"/><path style="opacity:1;fill:#8fbf3a;fill-opacity:1;stroke:none;stroke-width:2;stroke-linecap:round;stroke-linejoin:round;stroke-miterlimit:4;stroke-dasharray:none;stroke-dashoffset:0;stroke-opacity:1" id="path1134" d="M 320.55469 247 C 320.76807 250.00539 321.79135 250.5 325.68945 250.5 L 330.31055 250.5 C 334.20866 250.5 335.23194 250.00539 335.44531 247 L 320.55469 247 z"/><path id="path1068" d="M 361.9375,-212 C 507.2348,-212 528,-191.28677 528,-46.125 V 70.125 C 528,215.28618 507.2348,236 361.9375,236 H 214.0625 C 68.7652,236 48,215.28618 48,70.125 V -46.125 C 48,-191.28677 68.7652,-212 214.0625,-212 Z" clip-path="url(#clipPath1082-3)" transform="matrix(0.5,0,0,0.5,8,150)" style="display:inline;opacity:.4;fill:none;fill-opacity:1;stroke:url(#linearGradient1108);stroke-width:8;stroke-linecap:round;stroke-linejoin:round;stroke-miterlimit:4;stroke-dasharray:none;stroke-dashoffset:0;stroke-opacity:1;enable-background:new"/></g><g id="layer6" style="display:inline"><path id="path1115" d="m 208,92 a 24,24 0 0 0 -24,24 24,24 0 0 0 24,24 24,24 0 0 0 24,-24 24,24 0 0 0 -24,-24 z M 119.63477,120.37109 72,212 H 167.26953 192 l -36,-69 -12.32227,23.61914 z" style="color:#000;display:inline;overflow:visible;visibility:visible;opacity:.1;fill:url(#linearGradient1121);fill-opacity:1;fill-rule:nonzero;stroke:none;stroke-width:6;marker:none;filter:url(#filter1117);enable-background:accumulate"/><path style="color:#000;display:inline;overflow:visible;visibility:visible;opacity:.3;fill:url(#linearGradient1091);fill-opacity:1;fill-rule:nonzero;stroke:none;stroke-width:6;marker:none;filter:url(#filter1101);enable-background:accumulate" id="path1078" d="M 119.63477,122.37109 72,214 H 167.26953 192 l -36,-69 -12.32227,23.61914 z"/><path id="path4244-2" d="M 72,212 119.63505,120.37174 167.2701,212 Z" style="color:#000;display:inline;overflow:visible;visibility:visible;fill:#f2f2f2;fill-opacity:1;fill-rule:nonzero;stroke:none;stroke-width:6;marker:none;enable-background:accumulate"/><path style="color:#000;display:inline;overflow:visible;visibility:visible;fill:#f9f9f9;fill-opacity:1;fill-rule:nonzero;stroke:none;stroke-width:6;marker:none;enable-background:accumulate" id="path4246-6" d="m 120,212 36,-69 36,69 z"/><circle id="circle967" cx="208" cy="118" r="24" style="opacity:.1;fill:#000;fill-opacity:1;stroke:none;stroke-width:2;stroke-linecap:round;stroke-linejoin:round;stroke-miterlimit:4;stroke-dasharray:none;stroke-dashoffset:0;stroke-opacity:1;filter:url(#filter1001)"/><circle style="opacity:1;fill:#f9f9f9;fill-opacity:1;stroke:none;stroke-width:2;stroke-linecap:round;stroke-linejoin:round;stroke-miterlimit:4;stroke-dasharray:none;stroke-dashoffset:0;stroke-opacity:1" id="path1076" cx="208" cy="116" r="24"/><path style="color:#000;display:inline;overflow:visible;visibility:visible;fill:#fff;fill-opacity:1;fill-rule:nonzero;stroke:none;stroke-width:6;marker:none;enable-background:accumulate" id="path1105" d="M 208 92 A 24 24 0 0 0 184 116 A 24 24 0 0 0 184.02148 116.41797 A 24 24 0 0 1 208 93 A 24 24 0 0 1 231.97852 116.58203 A 24 24 0 0 0 232 116 A 24 24 0 0 0 208 92 z M 119.63477 120.37109 L 72 212 L 72.519531 212 L 119.63477 121.37109 L 143.67773 167.61914 L 156 144 L 191.47852 212 L 192 212 L 156 143 L 143.67773 166.61914 L 119.63477 120.37109 z"/><g id="g1122" clip-path="url(#clipPath1165)"><path id="path4390-1" d="m 356,60 -25.125,48 H 368 V 60 Z" style="color:#000;display:inline;overflow:visible;visibility:visible;opacity:.1;fill:#fff;fill-opacity:1;fill-rule:nonzero;stroke:none;stroke-width:2;stroke-linecap:butt;stroke-linejoin:miter;stroke-miterlimit:4;stroke-dasharray:none;stroke-dashoffset:0;stroke-opacity:1;marker:none;enable-background:accumulate"/><path style="color:#000;display:inline;overflow:visible;visibility:visible;fill:#b6e2f3;fill-opacity:1;fill-rule:nonzero;stroke:none;stroke-width:2;marker:none;enable-background:accumulate" id="rect4248-2" d="M 348,59.5 330,94 h 9 l 18,-34.5 z"/><path id="path4266-7" d="M 357,59.5 339,94 h 13.5 L 369,62.375122 V 59.5 Z" style="color:#000;display:inline;overflow:visible;visibility:visible;fill:#ffda64;fill-opacity:1;fill-rule:nonzero;stroke:none;stroke-width:2;marker:none;enable-background:accumulate"/><path style="color:#000;display:inline;overflow:visible;visibility:visible;fill:#000;fill-opacity:1;fill-rule:nonzero;stroke:none;stroke-width:6;marker:none;enable-background:accumulate;opacity:.1" id="path1181" d="M 355.5,72.5 A 4.5,4.5 0 0 0 351,77 4.5,4.5 0 0 0 355.5,81.5 4.5,4.5 0 0 0 360,77 4.5,4.5 0 0 0 355.5,72.5 Z M 338.93164,77.820312 330,95 H 347.86328 352.5 l -6.75,-12.9375 -2.31055,4.427734 z"/><path id="path1051-0" d="M 369,62.375122 352.5,94 h 9 L 369,79.625122 Z" style="color:#000;display:inline;overflow:visible;visibility:visible;fill:#b6e2f3;fill-opacity:1;fill-rule:nonzero;stroke:none;stroke-width:2;marker:none;enable-background:accumulate"/><path style="color:#000;display:inline;overflow:visible;visibility:visible;fill:#f2f2f2;fill-opacity:1;fill-rule:nonzero;stroke:none;stroke-width:6;marker:none;enable-background:accumulate" id="path4244-2-6" d="M 330,94 338.93157,76.819702 347.86314,94 Z"/><path id="path4246-6-0" d="M 339,94 345.75,81.0625 352.5,94 Z" style="color:#000;display:inline;overflow:visible;visibility:visible;fill:#f9f9f9;fill-opacity:1;fill-rule:nonzero;stroke:none;stroke-width:6;marker:none;enable-background:accumulate"/><circle id="path1076-6" cx="355.5" cy="76" r="4.5" style="opacity:1;fill:#f9f9f9;fill-opacity:1;stroke:none;stroke-width:2;stroke-linecap:round;stroke-linejoin:round;stroke-miterlimit:4;stroke-dasharray:none;stroke-dashoffset:0;stroke-opacity:1"/></g><g id="g1113" clip-path="url(#clipPath1158)"><path style="color:#000;display:inline;overflow:visible;visibility:visible;opacity:.1;fill:#fff;fill-opacity:1;fill-rule:nonzero;stroke:none;stroke-width:2;stroke-linecap:butt;stroke-linejoin:miter;stroke-miterlimit:4;stroke-dasharray:none;stroke-dashoffset:0;stroke-opacity:1;marker:none;enable-background:accumulate" id="path1023" d="m 345,132 -16.75,32 H 353 v -32 z"/><path id="path1026" d="m 339,132 -12,23 h 6 l 12,-23 z" style="color:#000;display:inline;overflow:visible;visibility:visible;fill:#b6e2f3;fill-opacity:1;fill-rule:nonzero;stroke:none;stroke-width:2;marker:none;enable-background:accumulate"/><path style="color:#000;display:inline;overflow:visible;visibility:visible;fill:#ffda64;fill-opacity:1;fill-rule:nonzero;stroke:none;stroke-width:2;marker:none;enable-background:accumulate" id="path1028" d="m 345,132 -12,23 h 9 l 11,-21.08326 V 132 Z"/><path style="color:#000;display:inline;overflow:visible;visibility:visible;fill:#b6e2f3;fill-opacity:1;fill-rule:nonzero;stroke:none;stroke-width:2;marker:none;enable-background:accumulate" id="path1030" d="M 353,133.91674 342,155 h 6 l 5,-9.58326 z"/><path id="path1032" d="M 327,155 332.95439,143.54646 338.90877,155 Z" style="color:#000;display:inline;overflow:visible;visibility:visible;fill:#f2f2f2;fill-opacity:1;fill-rule:nonzero;stroke:none;stroke-width:6;marker:none;enable-background:accumulate"/><path style="color:#000;display:inline;overflow:visible;visibility:visible;fill:#f9f9f9;fill-opacity:1;fill-rule:nonzero;stroke:none;stroke-width:6;marker:none;enable-background:accumulate" id="path1034" d="m 333,155 4.5,-8.625 4.5,8.625 z"/><path id="path1195" d="m 344,141 a 3,3 0 0 0 -3,3 3,3 0 0 0 3,3 3,3 0 0 0 3,-3 3,3 0 0 0 -3,-3 z M 332.95508,144.54688 327,156 H 338.9082 342 l -4.5,-8.625 -1.54102,2.95312 z" style="color:#000;display:inline;overflow:visible;visibility:visible;fill:#000;fill-opacity:1;fill-rule:nonzero;stroke:none;stroke-width:6;marker:none;enable-background:accumulate;opacity:.1"/><circle style="opacity:1;fill:#f9f9f9;fill-opacity:1;stroke:none;stroke-width:2;stroke-linecap:round;stroke-linejoin:round;stroke-miterlimit:4;stroke-dasharray:none;stroke-dashoffset:0;stroke-opacity:1" id="circle1036" cx="344" cy="143" r="3"/><path style="color:#000;display:inline;overflow:visible;visibility:visible;fill:#f2f2f2;fill-opacity:1;fill-rule:nonzero;stroke:none;stroke-width:6;marker:none;enable-background:accumulate" id="path1188" d="M 344 140 A 3 3 0 0 0 341 143 A 3 3 0 0 0 344 146 A 3 3 0 0 0 347 143 A 3 3 0 0 0 344 140 z M 332.95508 143.54688 L 327 155 L 338.9082 155 L 342 155 L 337.5 146.375 L 335.95898 149.32812 L 332.95508 143.54688 z"/></g><g id="g1132" clip-path="url(#clipPath1151)"><g style="stroke-width:10.66666698" id="g1056" transform="matrix(0.09375,0,0,0.09375,282.24799,201.67957)"><path style="color:#000;display:inline;overflow:visible;visibility:visible;opacity:.1;fill:#fff;fill-opacity:1;fill-rule:nonzero;stroke:none;stroke-width:21.33333397;stroke-linecap:butt;stroke-linejoin:miter;stroke-miterlimit:4;stroke-dasharray:none;stroke-dashoffset:0;stroke-opacity:1;marker:none;enable-background:accumulate" id="path1040" d="m 600.02148,-148.58203 -134,256 h 198 v -256 z"/><path id="path1042" d="m 552.02148,-148.58203 -96,184 h 48 l 96,-184 z" style="color:#000;display:inline;overflow:visible;visibility:visible;fill:#b6e2f3;fill-opacity:1;fill-rule:nonzero;stroke:none;stroke-width:21.33333397;marker:none;enable-background:accumulate"/><path style="color:#000;display:inline;overflow:visible;visibility:visible;fill:#ffda64;fill-opacity:1;fill-rule:nonzero;stroke:none;stroke-width:21.33333397;marker:none;enable-background:accumulate" id="path1044" d="m 600.02148,-148.58203 -96,184 h 72 l 88,-168.66602 v -15.33398 z"/><path style="color:#000;display:inline;overflow:visible;visibility:visible;fill:#000;fill-opacity:1;fill-rule:nonzero;stroke:none;stroke-width:64;marker:none;enable-background:accumulate;opacity:.1" id="path1197" d="m 592.02158,-73.915302 a 24.000001,24.000001 0 0 0 -24,24.000001 24.000001,24.000001 0 0 0 24,24 24.000001,24.000001 0 0 0 24,-24 24.000001,24.000001 0 0 0 -24,-24.000001 z m -88.37504,28.375041 -47.62497,91.624963 h 95.27083 24.72918 l -36,-69.000002 -12.33334,23.62496025 z"/><path style="color:#000;display:inline;overflow:visible;visibility:visible;fill:#b6e2f3;fill-opacity:1;fill-rule:nonzero;stroke:none;stroke-width:21.33333397;marker:none;enable-background:accumulate" id="path1046" d="m 664.02148,-133.24805 -88,168.66602 h 48 l 40,-76.66602 z"/><path id="path1048" d="m 456.02148,35.41797 47.63505,-91.62826 47.63505,91.62826 z" style="color:#000;display:inline;overflow:visible;visibility:visible;fill:#f2f2f2;fill-opacity:1;fill-rule:nonzero;stroke:none;stroke-width:64;marker:none;enable-background:accumulate"/><path style="color:#000;display:inline;overflow:visible;visibility:visible;fill:#f9f9f9;fill-opacity:1;fill-rule:nonzero;stroke:none;stroke-width:64;marker:none;enable-background:accumulate" id="path1052" d="m 504.02148,35.41797 36,-69 36,69 z"/><circle style="opacity:1;fill:#f9f9f9;fill-opacity:1;stroke:none;stroke-width:21.33333397;stroke-linecap:round;stroke-linejoin:round;stroke-miterlimit:4;stroke-dasharray:none;stroke-dashoffset:0;stroke-opacity:1" id="circle1054" cx="592.021" cy="-60.582" r="24"/></g></g><g style="stroke-width:17.06666756" id="g1073" clip-path="url(#clipPath1144)" transform="matrix(0.05859375,0,0,0.05859375,297.27999,244.92473)"><path style="color:#000;display:inline;overflow:visible;visibility:visible;opacity:.1;fill:#fff;fill-opacity:1;fill-rule:nonzero;stroke:none;stroke-width:34.13333511;stroke-linecap:butt;stroke-linejoin:miter;stroke-miterlimit:4;stroke-dasharray:none;stroke-dashoffset:0;stroke-opacity:1;marker:none;enable-background:accumulate" id="path1058" d="m 600.02148,-148.58203 -134,256 h 198 v -256 z"/><path id="path1060" d="m 552.02148,-148.58203 -96,184 h 48 l 96,-184 z" style="color:#000;display:inline;overflow:visible;visibility:visible;fill:#b6e2f3;fill-opacity:1;fill-rule:nonzero;stroke:none;stroke-width:34.13333511;marker:none;enable-background:accumulate"/><path style="color:#000;display:inline;overflow:visible;visibility:visible;fill:#ffda64;fill-opacity:1;fill-rule:nonzero;stroke:none;stroke-width:34.13333511;marker:none;enable-background:accumulate" id="path1062" d="m 600.02148,-148.58203 -96,184 h 72 l 88,-168.66602 v -15.33398 z"/><path style="color:#000;display:inline;overflow:visible;visibility:visible;fill:#b6e2f3;fill-opacity:1;fill-rule:nonzero;stroke:none;stroke-width:34.13333511;marker:none;enable-background:accumulate" id="path1064" d="m 664.02148,-133.24805 -88,168.66602 h 48 l 40,-76.66602 z"/><path id="path1067" d="m 456.02148,35.41797 47.63505,-91.62826 47.63505,91.62826 z" style="color:#000;display:inline;overflow:visible;visibility:visible;fill:#f2f2f2;fill-opacity:1;fill-rule:nonzero;stroke:none;stroke-width:102.40000153;marker:none;enable-background:accumulate"/><path style="color:#000;display:inline;overflow:visible;visibility:visible;fill:#f9f9f9;fill-opacity:1;fill-rule:nonzero;stroke:none;stroke-width:102.40000153;marker:none;enable-background:accumulate" id="path1069" d="m 504.02148,35.41797 36,-69 36,69 z"/><circle style="opacity:1;fill:#f9f9f9;fill-opacity:1;stroke:none;stroke-width:34.13333511;stroke-linecap:round;stroke-linejoin:round;stroke-miterlimit:4;stroke-dasharray:none;stroke-dashoffset:0;stroke-opacity:1" id="circle1071" cx="592.021" cy="-60.582" r="24"/></g></g><g id="layer5" style="display:inline"><path style="display:inline;opacity:.4;fill:none;fill-opacity:1;stroke:#000;stroke-width:1;stroke-linecap:round;stroke-linejoin:round;stroke-miterlimit:4;stroke-dasharray:none;stroke-dashoffset:0;stroke-opacity:1;enable-background:new" id="path950" d="m 341.12109,133.5 c 9.08109,0 10.37891,1.29458 10.37891,10.36719 v 8.26562 c 0,9.07258 -1.29782,10.36719 -10.37891,10.36719 H 330.87891 C 321.79783,162.5 320.5,161.20539 320.5,152.13281 v -8.26562 c 0,-9.07261 1.29783,-10.36719 10.37891,-10.36719 z"/><path style="display:inline;opacity:.4;fill:none;fill-opacity:1;stroke:#000;stroke-width:1;stroke-linecap:round;stroke-linejoin:round;stroke-miterlimit:4;stroke-dasharray:none;stroke-dashoffset:0;stroke-opacity:1;enable-background:new" id="path892" d="M 351.93164,62.5 C 365.55326,62.5 367.5,64.44187 367.5,78.05078 V 89.94922 C 367.5,103.55808 365.55326,105.5 351.93164,105.5 H 336.06836 C 322.44674,105.5 320.5,103.55808 320.5,89.94922 V 78.05078 C 320.5,64.44187 322.44674,62.5 336.06836,62.5 Z"/><path id="path970" d="m 335.71582,189.50031 c 6.81081,10e-6 7.78418,0.97093 7.78418,7.77539 v 5.44891 c 0,6.80444 -0.97337,7.77539 -7.78418,7.77539 h -7.43164 c -6.81081,0 -7.78418,-0.97095 -7.78418,-7.77539 v -5.44892 c 0,-6.80446 0.97337,-7.7754 7.78418,-7.77539 z" style="display:inline;opacity:.4;fill:none;fill-opacity:1;stroke:#000;stroke-width:1;stroke-linecap:round;stroke-linejoin:round;stroke-miterlimit:4;stroke-dasharray:none;stroke-dashoffset:0;stroke-opacity:1;enable-background:new"/><path id="path1025" d="m 330.31054,236.5 c 4.54055,0 5.18946,0.64729 5.18946,5.18359 v 3.63282 c 0,4.53629 -0.64891,5.18359 -5.18946,5.18359 h -4.62109 c -4.54053,0 -5.18945,-0.6473 -5.18945,-5.18359 v -3.63282 c 0,-4.5363 0.64892,-5.18359 5.18946,-5.18359 z" style="display:inline;opacity:.4;fill:none;fill-opacity:1;stroke:#000;stroke-width:1;stroke-linecap:round;stroke-linejoin:round;stroke-miterlimit:4;stroke-dasharray:none;stroke-dashoffset:0;stroke-opacity:1;enable-background:new"/><path style="display:inline;enable-background:accumulate;color:#000;font-style:normal;font-variant:normal;font-weight:400;font-stretch:normal;font-size:medium;line-height:normal;font-family:sans-serif;font-variant-ligatures:normal;font-variant-position:normal;font-variant-caps:normal;font-variant-numeric:normal;font-variant-alternates:normal;font-feature-settings:normal;text-indent:0;text-align:start;text-decoration:none;text-decoration-line:none;text-decoration-style:solid;text-decoration-color:#000;letter-spacing:normal;word-spacing:normal;text-transform:none;writing-mode:lr-tb;direction:ltr;text-orientation:mixed;dominant-baseline:auto;baseline-shift:baseline;text-anchor:start;white-space:normal;shape-padding:0;clip-rule:nonzero;overflow:visible;visibility:visible;opacity:.5;isolation:auto;mix-blend-mode:normal;color-interpolation:sRGB;color-interpolation-filters:linearRGB;solid-color:#000;solid-opacity:1;vector-effect:none;fill:none;fill-opacity:1;fill-rule:nonzero;stroke:url(#linearGradient929);stroke-width:1;stroke-linecap:round;stroke-linejoin:round;stroke-miterlimit:4;stroke-dasharray:none;stroke-dashoffset:0;stroke-opacity:1;color-rendering:auto;image-rendering:auto;shape-rendering:auto;text-rendering:auto" id="path911" d="m 351.93164,63.5 h -15.86328 c -6.76329,0 -10.36307,0.55877 -12.18555,2.37891 -1.82247,1.82013 -2.38281,5.4151 -2.38281,12.17187 v 11.89844 c 0,6.75675 0.56034,10.35173 2.38281,12.17187 1.82248,1.82015 5.42226,2.37891 12.18555,2.37891 h 15.86328 c 6.76329,0 10.36307,-0.55876 12.18555,-2.37891 C 365.93966,100.30095 366.5,96.70597 366.5,89.94922 V 78.05078 c 0,-6.75677 -0.56034,-10.35174 -2.38281,-12.17187 C 362.29471,64.05877 358.69493,63.5 351.93164,63.5 Z"/><path style="display:inline;enable-background:accumulate;color:#000;font-style:normal;font-variant:normal;font-weight:400;font-stretch:normal;font-size:medium;line-height:normal;font-family:sans-serif;font-variant-ligatures:normal;font-variant-position:normal;font-variant-caps:normal;font-variant-numeric:normal;font-variant-alternates:normal;font-feature-settings:normal;text-indent:0;text-align:start;text-decoration:none;text-decoration-line:none;text-decoration-style:solid;text-decoration-color:#000;letter-spacing:normal;word-spacing:normal;text-transform:none;writing-mode:lr-tb;direction:ltr;text-orientation:mixed;dominant-baseline:auto;baseline-shift:baseline;text-anchor:start;white-space:normal;shape-padding:0;clip-rule:nonzero;overflow:visible;visibility:visible;opacity:.5;isolation:auto;mix-blend-mode:normal;color-interpolation:sRGB;color-interpolation-filters:linearRGB;solid-color:#000;solid-opacity:1;vector-effect:none;fill:none;fill-opacity:1;fill-rule:nonzero;stroke:url(#linearGradient965);stroke-width:1;stroke-linecap:round;stroke-linejoin:round;stroke-miterlimit:4;stroke-dasharray:none;stroke-dashoffset:0;stroke-opacity:1;color-rendering:auto;image-rendering:auto;shape-rendering:auto;text-rendering:auto" id="path955" d="m 341.12109,134.5 h -10.24218 c -4.49302,0 -6.796,0.397 -7.88868,1.48828 -1.09267,1.09128 -1.49023,3.39029 -1.49023,7.87891 v 8.26562 c 0,4.48861 0.39755,6.78763 1.49023,7.87891 1.09268,1.09128 3.39566,1.48828 7.88868,1.48828 h 10.24218 c 4.49303,0 6.796,-0.397 7.88868,-1.48828 1.09268,-1.09128 1.49023,-3.3903 1.49023,-7.87891 v -8.26562 c 0,-4.48862 -0.39756,-6.78763 -1.49023,-7.87891 C 347.91709,134.897 345.61412,134.5 341.12109,134.5 Z"/><path style="display:inline;enable-background:accumulate;color:#000;font-style:normal;font-variant:normal;font-weight:400;font-stretch:normal;font-size:medium;line-height:normal;font-family:sans-serif;font-variant-ligatures:normal;font-variant-position:normal;font-variant-caps:normal;font-variant-numeric:normal;font-variant-alternates:normal;font-feature-settings:normal;text-indent:0;text-align:start;text-decoration:none;text-decoration-line:none;text-decoration-style:solid;text-decoration-color:#000;letter-spacing:normal;word-spacing:normal;text-transform:none;writing-mode:lr-tb;direction:ltr;text-orientation:mixed;dominant-baseline:auto;baseline-shift:baseline;text-anchor:start;white-space:normal;shape-padding:0;clip-rule:nonzero;overflow:visible;visibility:visible;opacity:.5;isolation:auto;mix-blend-mode:normal;color-interpolation:sRGB;color-interpolation-filters:linearRGB;solid-color:#000;solid-opacity:1;vector-effect:none;fill:none;fill-opacity:1;fill-rule:nonzero;stroke:url(#linearGradient1006);stroke-width:1;stroke-linecap:round;stroke-linejoin:round;stroke-miterlimit:4;stroke-dasharray:none;stroke-dashoffset:0;stroke-opacity:1;color-rendering:auto;image-rendering:auto;shape-rendering:auto;text-rendering:auto" id="path974" d="m 335.71484,190.5 h -7.43164 c -3.35788,0 -5.0105,0.31612 -5.73828,1.04297 -0.72778,0.72685 -1.04492,2.37787 -1.04492,5.73242 v 5.44922 c 0,3.35454 0.31714,5.00557 1.04492,5.73242 0.72778,0.72685 2.38235,1.04297 5.74024,1.04297 h 7.42968 c 3.35789,0 5.01246,-0.31612 5.74024,-1.04297 0.72778,-0.72685 1.04492,-2.37788 1.04492,-5.73242 v -5.44922 c 0,-3.35455 -0.31714,-5.00558 -1.04492,-5.73242 C 340.7273,190.81612 339.07273,190.5 335.71484,190.5 Z"/><path style="display:inline;enable-background:accumulate;color:#000;font-style:normal;font-variant:normal;font-weight:400;font-stretch:normal;font-size:medium;line-height:normal;font-family:sans-serif;font-variant-ligatures:normal;font-variant-position:normal;font-variant-caps:normal;font-variant-numeric:normal;font-variant-alternates:normal;font-feature-settings:normal;text-indent:0;text-align:start;text-decoration:none;text-decoration-line:none;text-decoration-style:solid;text-decoration-color:#000;letter-spacing:normal;word-spacing:normal;text-transform:none;writing-mode:lr-tb;direction:ltr;text-orientation:mixed;dominant-baseline:auto;baseline-shift:baseline;text-anchor:start;white-space:normal;shape-padding:0;clip-rule:nonzero;overflow:visible;visibility:visible;opacity:.5;isolation:auto;mix-blend-mode:normal;color-interpolation:sRGB;color-interpolation-filters:linearRGB;solid-color:#000;solid-opacity:1;vector-effect:none;fill:none;fill-opacity:1;fill-rule:nonzero;stroke:url(#linearGradient1045);stroke-width:1;stroke-linecap:round;stroke-linejoin:round;stroke-miterlimit:4;stroke-dasharray:none;stroke-dashoffset:0;stroke-opacity:1;color-rendering:auto;image-rendering:auto;shape-rendering:auto;text-rendering:auto" id="path1035" d="m 325.68945,237.5 h 4.6211 c 2.22275,0 3.22696,0.23524 3.58984,0.59766 0.36288,0.36241 0.59961,1.36547 0.59961,3.58593 v 3.63282 c 0,2.22046 -0.23673,3.22352 -0.59961,3.58593 -0.36288,0.36242 -1.36709,0.59766 -3.58984,0.59766 h -4.6211 c -2.22274,0 -3.22696,-0.23524 -3.58984,-0.59766 -0.36288,-0.36242 -0.59961,-1.36547 -0.59961,-3.58593 v -3.63282 c 0,-2.22046 0.23673,-3.22352 0.59961,-3.58593 0.36288,-0.36242 1.36709,-0.59766 3.58984,-0.59766 z"/></g></g></svg>