<svg xmlns="http://www.w3.org/2000/svg" xmlns:svg="http://www.w3.org/2000/svg" xmlns:xlink="http://www.w3.org/1999/xlink" id="svg11300" width="400" height="300" version="1.0" style="display:inline;enable-background:new"><title id="title3004">Suru Icon Theme Template</title><defs id="defs3"><linearGradient id="linearGradient927"><stop style="stop-color:#fff;stop-opacity:1" id="stop923" offset="0"/><stop id="stop933" offset=".125" style="stop-color:#fff;stop-opacity:.09803922"/><stop id="stop931" offset=".925" style="stop-color:#fff;stop-opacity:.09803922"/><stop style="stop-color:#fff;stop-opacity:.49803922" id="stop925" offset="1"/></linearGradient><clipPath id="clipPath9430" clipPathUnits="userSpaceOnUse"><path id="path9432" d="m 166.0625,-196 h 179.875 C 491.2348,-196 512,-175.28677 512,-30.125 v 148.25 C 512,263.28618 491.2348,284 345.9375,284 H 166.0625 C 20.7652,284 0,263.28618 0,118.125 V -30.125 C 0,-175.28677 20.7652,-196 166.0625,-196 Z" style="color:#000;display:inline;overflow:visible;visibility:visible;fill:#fff;fill-opacity:1;fill-rule:nonzero;stroke:none;stroke-width:1;marker:none;enable-background:new"/></clipPath><linearGradient id="linearGradient929" x1="168" x2="168" y1="239" y2="279" gradientTransform="matrix(-1,0,0,1,512,-175)" gradientUnits="userSpaceOnUse" xlink:href="#linearGradient927"/><linearGradient id="linearGradient965" x1="112" x2="112" y1="255" y2="281" gradientTransform="matrix(-1,0,0,1,448,-120)" gradientUnits="userSpaceOnUse" xlink:href="#linearGradient927"/><linearGradient id="linearGradient1006" x1="64" x2="64" y1="263" y2="281" gradientTransform="matrix(-1,0,0,1,396,-72)" gradientUnits="userSpaceOnUse" xlink:href="#linearGradient927"/><linearGradient id="linearGradient1045" x1="760" x2="760" y1="254" y2="265" gradientTransform="translate(-432,-16)" gradientUnits="userSpaceOnUse" xlink:href="#linearGradient927"/><clipPath id="clipPath1082" clipPathUnits="userSpaceOnUse"><path id="path1084" d="M 361.9375,-212 C 507.2348,-212 528,-191.28677 528,-46.125 V 70.125 C 528,215.28618 507.2348,236 361.9375,236 H 214.0625 C 68.7652,236 48,215.28618 48,70.125 V -46.125 C 48,-191.28677 68.7652,-212 214.0625,-212 Z" style="display:inline;opacity:1;fill:#8c59d9;fill-opacity:1;stroke:none;stroke-width:2;stroke-linecap:round;stroke-linejoin:round;stroke-miterlimit:4;stroke-dasharray:none;stroke-dashoffset:0;stroke-opacity:1;enable-background:new"/></clipPath><filter style="color-interpolation-filters:sRGB" id="filter4569" width="1.023" height="1.025" x="-.012" y="-.012"><feGaussianBlur id="feGaussianBlur4571" stdDeviation="1.16"/></filter><linearGradient id="linearGradient4338-7"><stop id="stop4342-6" offset="0" style="stop-color:#c8c4b7;stop-opacity:1"/><stop id="stop4340-2" offset="1" style="stop-color:#e3dfd5;stop-opacity:1"/></linearGradient><linearGradient id="linearGradient933" x1="160" x2="160" y1="28" y2="284" gradientUnits="userSpaceOnUse" xlink:href="#linearGradient4338-7"/><clipPath id="clipPath949" clipPathUnits="userSpaceOnUse"><path id="path951" d="M 329.9375,32 C 475.2348,32 496,52.71323 496,197.875 v 116.25 C 496,459.28618 475.2348,480 329.9375,480 H 182.0625 C 36.7652,480 16,459.28618 16,314.125 V 197.875 C 16,52.71323 36.7652,32 182.0625,32 Z" style="opacity:1;fill:#eab305;fill-opacity:1;stroke:none;stroke-width:4;stroke-linecap:round;stroke-linejoin:round;stroke-miterlimit:4;stroke-dasharray:none;stroke-dashoffset:0;stroke-opacity:1"/></clipPath><filter style="color-interpolation-filters:sRGB" id="filter930" width="1.046" height="1.05" x="-.023" y="-.025"><feGaussianBlur id="feGaussianBlur932" stdDeviation="2.32"/></filter><linearGradient id="linearGradient1108" x1="296" x2="296" y1="-212" y2="236" gradientUnits="userSpaceOnUse" xlink:href="#linearGradient1013"/><linearGradient id="linearGradient1013"><stop id="stop1005" offset="0" style="stop-color:#fff;stop-opacity:1"/><stop style="stop-color:#fff;stop-opacity:.09803922" id="stop1007" offset=".125"/><stop style="stop-color:#000;stop-opacity:.09803922" id="stop1009" offset=".925"/><stop id="stop1011" offset="1" style="stop-color:#000;stop-opacity:.49803922"/></linearGradient><clipPath id="clipPath1082-3" clipPathUnits="userSpaceOnUse"><path id="path1084-6" d="M 361.9375,-212 C 507.2348,-212 528,-191.28677 528,-46.125 V 70.125 C 528,215.28618 507.2348,236 361.9375,236 H 214.0625 C 68.7652,236 48,215.28618 48,70.125 V -46.125 C 48,-191.28677 68.7652,-212 214.0625,-212 Z" style="display:inline;opacity:1;fill:#8c59d9;fill-opacity:1;stroke:none;stroke-width:2;stroke-linecap:round;stroke-linejoin:round;stroke-miterlimit:4;stroke-dasharray:none;stroke-dashoffset:0;stroke-opacity:1;enable-background:new"/></clipPath><linearGradient id="linearGradient930" x1="320.5" x2="367.5" y1="84" y2="84" gradientTransform="rotate(90,344,84)" gradientUnits="userSpaceOnUse" xlink:href="#linearGradient4338-7"/><linearGradient id="linearGradient932" x1="320.5" x2="351.5" y1="148" y2="148" gradientTransform="rotate(90,336,148)" gradientUnits="userSpaceOnUse" xlink:href="#linearGradient4338-7"/><linearGradient id="linearGradient934" x1="320.5" x2="335.5" y1="243.5" y2="243.5" gradientTransform="rotate(90,328,243.5)" gradientUnits="userSpaceOnUse" xlink:href="#linearGradient4338-7"/><linearGradient id="linearGradient936" x1="320.5" x2="343.5" y1="200" y2="200" gradientTransform="rotate(90,332,200.00015)" gradientUnits="userSpaceOnUse" xlink:href="#linearGradient4338-7"/><filter style="color-interpolation-filters:sRGB" id="filter1496" width="1.103" height="1.144" x="-.051" y="-.072"><feGaussianBlur id="feGaussianBlur1498" stdDeviation="1.2"/></filter><filter style="color-interpolation-filters:sRGB" id="filter1507" width="1.12" height="1.12" x="-.06" y="-.06"><feGaussianBlur id="feGaussianBlur1509" stdDeviation="1.2"/></filter></defs><metadata id="metadata4"/><g style="display:inline" id="layer1"><g style="display:none" id="layer7"><text style="font-style:normal;font-variant:normal;font-weight:400;font-stretch:normal;line-height:0%;font-family:'DejaVu Sans';-inkscape-font-specification:'DejaVu Sans';display:inline;fill:#000;fill-opacity:1;stroke:none;enable-background:new" id="context" x="19.007" y="-8.255" xml:space="preserve"><tspan style="font-style:normal;font-variant:normal;font-weight:400;font-stretch:normal;font-size:18px;line-height:1.25;font-family:'DejaVu Sans';-inkscape-font-specification:'DejaVu Sans'" id="tspan3933" x="19.007" y="-8.255">apps</tspan></text><text style="font-style:normal;font-variant:normal;font-weight:700;font-stretch:normal;line-height:0%;font-family:'DejaVu Sans';-inkscape-font-specification:'DejaVu Sans Bold';text-align:start;writing-mode:lr-tb;text-anchor:start;display:inline;fill:#000;fill-opacity:1;stroke:none;enable-background:new" id="icon-name" x="146.488" y="-8.255" xml:space="preserve"><tspan style="font-style:normal;font-variant:normal;font-weight:700;font-stretch:normal;font-size:18px;line-height:1.25;font-family:'DejaVu Sans';-inkscape-font-specification:'DejaVu Sans Bold'" id="tspan3937" x="146.488" y="-8.255">games-app</tspan></text><rect style="display:inline;overflow:visible;visibility:visible;fill:#cdcdcd;fill-opacity:1;fill-rule:nonzero;stroke:none;stroke-width:2;marker:none;enable-background:accumulate" id="rect16x16" width="16" height="16" x="320" y="236"/><rect style="display:inline;overflow:visible;visibility:visible;fill:#cdcdcd;fill-opacity:1;fill-rule:nonzero;stroke:none;stroke-width:2;marker:none;enable-background:accumulate" id="rect24x24" width="24" height="24" x="320" y="188"/><rect style="display:inline;overflow:visible;visibility:visible;fill:#cdcdcd;fill-opacity:1;fill-rule:nonzero;stroke:none;stroke-width:2;marker:none;enable-background:accumulate" id="rect32x32" width="32" height="32" x="320" y="132"/><rect id="rect48x48" width="48" height="48" x="320" y="60" style="display:inline;overflow:visible;visibility:visible;fill:#cdcdcd;fill-opacity:1;fill-rule:nonzero;stroke:none;stroke-width:2;marker:none;enable-background:accumulate"/><rect style="display:inline;overflow:visible;visibility:visible;fill:#cdcdcd;fill-opacity:1;fill-rule:nonzero;stroke:none;stroke-width:2;marker:none;enable-background:accumulate" id="rect3951" width="256" height="256" x="24" y="28"/></g><g id="layer4" style="display:inline"><path id="path963" d="M 188.96875,44 C 261.6174,44 272,54.35661 272,126.9375 v 58.125 C 272,257.64309 261.6174,268 188.96875,268 h -73.9375 C 42.3826,268 32,257.64309 32,185.0625 v -58.125 C 32,54.35661 42.3826,44 115.03125,44 Z" style="display:inline;opacity:.2;fill:none;fill-opacity:1;stroke:#000;stroke-width:4;stroke-linecap:round;stroke-linejoin:round;stroke-miterlimit:4;stroke-dasharray:none;stroke-dashoffset:0;stroke-opacity:1;enable-background:new"/><path style="color:#000;font-style:normal;font-variant:normal;font-weight:400;font-stretch:normal;font-size:medium;line-height:normal;font-family:sans-serif;font-variant-ligatures:normal;font-variant-position:normal;font-variant-caps:normal;font-variant-numeric:normal;font-variant-alternates:normal;font-feature-settings:normal;text-indent:0;text-align:start;text-decoration:none;text-decoration-line:none;text-decoration-style:solid;text-decoration-color:#000;letter-spacing:normal;word-spacing:normal;text-transform:none;writing-mode:lr-tb;direction:ltr;text-orientation:mixed;dominant-baseline:auto;baseline-shift:baseline;text-anchor:start;white-space:normal;shape-padding:0;clip-rule:nonzero;display:inline;overflow:visible;visibility:visible;opacity:.2;isolation:auto;mix-blend-mode:normal;color-interpolation:sRGB;color-interpolation-filters:linearRGB;solid-color:#000;solid-opacity:1;vector-effect:none;fill:#000;fill-opacity:1;fill-rule:nonzero;stroke:none;stroke-width:1;stroke-linecap:round;stroke-linejoin:round;stroke-miterlimit:4;stroke-dasharray:none;stroke-dashoffset:0;stroke-opacity:1;color-rendering:auto;image-rendering:auto;shape-rendering:auto;text-rendering:auto;enable-background:accumulate" id="path907" d="m 351.93164,63 c 6.83457,0 10.87325,0.44856 13.24609,2.81836 C 367.55058,68.18816 368,72.22248 368,79.05078 v 11.89844 c 0,6.82827 -0.44942,10.86261 -2.82227,13.23242 C 362.80489,106.55145 358.76621,107 351.93164,107 h -15.86328 c -6.83457,0 -10.87325,-0.44855 -13.24609,-2.81836 C 320.44942,101.81183 320,97.77749 320,90.94922 V 79.05078 c 0,-6.8283 0.44942,-10.86262 2.82227,-13.23242 C 325.19511,63.44856 329.23379,63 336.06836,63 Z"/><path style="color:#000;font-style:normal;font-variant:normal;font-weight:400;font-stretch:normal;font-size:medium;line-height:normal;font-family:sans-serif;font-variant-ligatures:normal;font-variant-position:normal;font-variant-caps:normal;font-variant-numeric:normal;font-variant-alternates:normal;font-feature-settings:normal;text-indent:0;text-align:start;text-decoration:none;text-decoration-line:none;text-decoration-style:solid;text-decoration-color:#000;letter-spacing:normal;word-spacing:normal;text-transform:none;writing-mode:lr-tb;direction:ltr;text-orientation:mixed;dominant-baseline:auto;baseline-shift:baseline;text-anchor:start;white-space:normal;shape-padding:0;clip-rule:nonzero;display:inline;overflow:visible;visibility:visible;opacity:.2;isolation:auto;mix-blend-mode:normal;color-interpolation:sRGB;color-interpolation-filters:linearRGB;solid-color:#000;solid-opacity:1;vector-effect:none;fill:#000;fill-opacity:1;fill-rule:nonzero;stroke:none;stroke-width:1;stroke-linecap:round;stroke-linejoin:round;stroke-miterlimit:4;stroke-dasharray:none;stroke-dashoffset:0;stroke-opacity:1;color-rendering:auto;image-rendering:auto;shape-rendering:auto;text-rendering:auto;enable-background:new" id="path1011" d="m 341.12109,134 c 4.56431,0 7.30422,0.28679 8.94727,1.92773 1.64305,1.64095 1.93164,4.37931 1.93164,8.93946 v 8.26562 c 0,4.56013 -0.28859,7.29851 -1.93164,8.93946 C 348.42531,163.71321 345.6854,164 341.12109,164 h -10.24218 c -4.5643,0 -7.30422,-0.28679 -8.94727,-1.92773 C 320.28859,160.43132 320,157.69294 320,153.13281 v -8.26562 c 0,-4.56015 0.28859,-7.29851 1.93164,-8.93946 C 323.57469,134.28679 326.31461,134 330.87891,134 Z"/><path style="color:#000;font-style:normal;font-variant:normal;font-weight:400;font-stretch:normal;font-size:medium;line-height:normal;font-family:sans-serif;font-variant-ligatures:normal;font-variant-position:normal;font-variant-caps:normal;font-variant-numeric:normal;font-variant-alternates:normal;font-feature-settings:normal;text-indent:0;text-align:start;text-decoration:none;text-decoration-line:none;text-decoration-style:solid;text-decoration-color:#000;letter-spacing:normal;word-spacing:normal;text-transform:none;writing-mode:lr-tb;direction:ltr;text-orientation:mixed;dominant-baseline:auto;baseline-shift:baseline;text-anchor:start;white-space:normal;shape-padding:0;clip-rule:nonzero;display:inline;overflow:visible;visibility:visible;opacity:.2;isolation:auto;mix-blend-mode:normal;color-interpolation:sRGB;color-interpolation-filters:linearRGB;solid-color:#000;solid-opacity:1;vector-effect:none;fill:#000;fill-opacity:1;fill-rule:nonzero;stroke:none;stroke-width:1;stroke-linecap:round;stroke-linejoin:round;stroke-miterlimit:4;stroke-dasharray:none;stroke-dashoffset:0;stroke-opacity:1;color-rendering:auto;image-rendering:auto;shape-rendering:auto;text-rendering:auto;enable-background:new" id="path1013" d="m 335.71484,190 c 3.42917,1e-5 5.52264,0.20591 6.80078,1.48242 1.27815,1.27651 1.48438,3.3669 1.48438,6.79297 v 5.44922 c 0,3.42606 -0.20623,5.51645 -1.48438,6.79297 C 341.23748,211.79409 339.14401,212 335.71484,212 h -7.42968 c -3.42917,0 -5.52263,-0.20591 -6.80079,-1.48242 C 320.20622,209.24106 320,207.15067 320,203.72461 v -5.44922 c 0,-3.42607 0.20622,-5.51646 1.48437,-6.79297 1.27816,-1.27651 3.37162,-1.48243 6.80079,-1.48242 z"/><path style="color:#000;font-style:normal;font-variant:normal;font-weight:400;font-stretch:normal;font-size:medium;line-height:normal;font-family:sans-serif;font-variant-ligatures:normal;font-variant-position:normal;font-variant-caps:normal;font-variant-numeric:normal;font-variant-alternates:normal;font-feature-settings:normal;text-indent:0;text-align:start;text-decoration:none;text-decoration-line:none;text-decoration-style:solid;text-decoration-color:#000;letter-spacing:normal;word-spacing:normal;text-transform:none;writing-mode:lr-tb;direction:ltr;text-orientation:mixed;dominant-baseline:auto;baseline-shift:baseline;text-anchor:start;white-space:normal;shape-padding:0;clip-rule:nonzero;display:inline;overflow:visible;visibility:visible;opacity:.2;isolation:auto;mix-blend-mode:normal;color-interpolation:sRGB;color-interpolation-filters:linearRGB;solid-color:#000;solid-opacity:1;vector-effect:none;fill:#000;fill-opacity:1;fill-rule:nonzero;stroke:none;stroke-width:1;stroke-linecap:round;stroke-linejoin:round;stroke-miterlimit:4;stroke-dasharray:none;stroke-dashoffset:0;stroke-opacity:1;color-rendering:auto;image-rendering:auto;shape-rendering:auto;text-rendering:auto;enable-background:new" id="path1050" d="m 325.68945,237 c -2.29403,0 -3.73713,0.12503 -4.65039,1.03711 C 320.12581,238.94919 320,240.3916 320,242.68359 v 3.63282 c 0,2.29198 0.12581,3.7344 1.03906,4.64648 0.91325,0.91208 2.35637,1.03711 4.65039,1.03711 h 4.6211 c 2.29403,0 3.73713,-0.12503 4.65039,-1.03711 0.91325,-0.91208 1.03906,-2.3545 1.03906,-4.64648 v -3.63282 c 0,-2.29199 -0.12581,-3.7344 -1.03906,-4.64648 C 334.04768,237.12503 332.60458,237 330.31055,237 Z"/><path id="path4567" d="m 188.96876,43.999995 c 72.64865,0 83.03125,10.356615 83.03125,82.937505 v 58.125 c 0,72.58059 -10.3826,82.9375 -83.03125,82.9375 h -73.9375 C 42.382606,268 32.000006,257.64309 32.000006,185.0625 v -58.125 c 0,-72.58089 10.3826,-82.937505 83.031254,-82.937505 z" style="display:inline;opacity:.1;fill:#000;fill-opacity:1;stroke:none;stroke-width:2;stroke-linecap:round;stroke-linejoin:round;stroke-miterlimit:4;stroke-dasharray:none;stroke-dashoffset:0;stroke-opacity:1;filter:url(#filter4569);enable-background:new"/><path style="display:inline;opacity:.2;fill:#000;fill-opacity:1;stroke:none;stroke-width:2;stroke-linecap:round;stroke-linejoin:round;stroke-miterlimit:4;stroke-dasharray:none;stroke-dashoffset:0;stroke-opacity:1;filter:url(#filter930);enable-background:new" id="path928" d="m 188.96876,45.999995 c 72.64865,0 83.03125,10.356615 83.03125,82.937505 v 58.125 c 0,72.58059 -10.3826,82.9375 -83.03125,82.9375 h -73.9375 C 42.382606,270 32.000006,259.64309 32.000006,187.0625 v -58.125 c 0,-72.58089 10.3826,-82.937505 83.031254,-82.937505 z"/></g><g id="layer2" style="display:inline"><path style="opacity:1;fill:url(#linearGradient933);fill-opacity:1;stroke:none;stroke-width:2;stroke-linecap:round;stroke-linejoin:round;stroke-miterlimit:4;stroke-dasharray:none;stroke-dashoffset:0;stroke-opacity:1" id="rect877" d="M 188.96875,43.999999 C 261.6174,43.999999 272,54.356614 272,126.9375 v 58.125 C 272,257.64309 261.6174,268 188.96875,268 h -73.9375 C 42.3826,268 32,257.64309 32,185.0625 v -58.125 C 32,54.356614 42.3826,43.999999 115.03125,43.999999 Z"/><path id="path888" d="M 351.93164,62.5 C 365.55326,62.5 367.5,64.44187 367.5,78.05078 V 89.94922 C 367.5,103.55808 365.55326,105.5 351.93164,105.5 H 336.06836 C 322.44674,105.5 320.5,103.55808 320.5,89.94922 V 78.05078 C 320.5,64.44187 322.44674,62.5 336.06836,62.5 Z" style="opacity:1;fill:url(#linearGradient930);fill-opacity:1;stroke:none;stroke-width:2;stroke-linecap:round;stroke-linejoin:round;stroke-miterlimit:4;stroke-dasharray:none;stroke-dashoffset:0;stroke-opacity:1"/><path id="path942" d="m 341.12109,133.5 c 9.08109,0 10.37891,1.29458 10.37891,10.36719 v 8.26562 c 0,9.07258 -1.29782,10.36719 -10.37891,10.36719 H 330.87891 C 321.79783,162.5 320.5,161.20539 320.5,152.13281 v -8.26562 c 0,-9.07261 1.29783,-10.36719 10.37891,-10.36719 z" style="opacity:1;fill:url(#linearGradient932);fill-opacity:1;stroke:none;stroke-width:2;stroke-linecap:round;stroke-linejoin:round;stroke-miterlimit:4;stroke-dasharray:none;stroke-dashoffset:0;stroke-opacity:1"/><path style="opacity:1;fill:url(#linearGradient934);fill-opacity:1;stroke:none;stroke-width:2;stroke-linecap:round;stroke-linejoin:round;stroke-miterlimit:4;stroke-dasharray:none;stroke-dashoffset:0;stroke-opacity:1" id="path946" d="m 330.31054,236.5 c 4.54055,0 5.18946,0.64729 5.18946,5.18359 v 3.63282 c 0,4.53629 -0.64891,5.18359 -5.18946,5.18359 h -4.62109 c -4.54053,0 -5.18945,-0.6473 -5.18945,-5.18359 v -3.63282 c 0,-4.5363 0.64892,-5.18359 5.18946,-5.18359 z"/><path style="opacity:1;fill:url(#linearGradient936);fill-opacity:1;stroke:none;stroke-width:2;stroke-linecap:round;stroke-linejoin:round;stroke-miterlimit:4;stroke-dasharray:none;stroke-dashoffset:0;stroke-opacity:1" id="path948" d="m 335.71582,189.50031 c 6.81081,10e-6 7.78418,0.97093 7.78418,7.77539 v 5.44891 c 0,6.80444 -0.97337,7.77539 -7.78418,7.77539 h -7.43164 c -6.81081,0 -7.78418,-0.97095 -7.78418,-7.77539 v -5.44892 c 0,-6.80446 0.97337,-7.7754 7.78418,-7.77539 z"/><path id="path1068" d="M 361.9375,-212 C 507.2348,-212 528,-191.28677 528,-46.125 V 70.125 C 528,215.28618 507.2348,236 361.9375,236 H 214.0625 C 68.7652,236 48,215.28618 48,70.125 V -46.125 C 48,-191.28677 68.7652,-212 214.0625,-212 Z" clip-path="url(#clipPath1082-3)" transform="matrix(0.5,0,0,0.5,8,150)" style="display:inline;opacity:.5;fill:none;fill-opacity:1;stroke:url(#linearGradient1108);stroke-width:8;stroke-linecap:round;stroke-linejoin:round;stroke-miterlimit:4;stroke-dasharray:none;stroke-dashoffset:0;stroke-opacity:1;enable-background:new"/><path style="opacity:.2;fill:#fff;fill-opacity:1;stroke:none;stroke-width:2;stroke-linecap:round;stroke-linejoin:round;stroke-miterlimit:4;stroke-dasharray:none;stroke-dashoffset:0;stroke-opacity:1" id="path4836" d="M 32 156 L 32 185.0625 C 32 257.64309 42.3826 268 115.03125 268 L 188.96875 268 C 261.6174 268 272 257.64309 272 185.0625 L 272 156 L 32 156 z"/><path style="opacity:.2;fill:#fff;fill-opacity:1;stroke:none;stroke-width:2;stroke-linecap:round;stroke-linejoin:round;stroke-miterlimit:4;stroke-dasharray:none;stroke-dashoffset:0;stroke-opacity:1" id="path1561" d="M 320.5 84 L 320.5 89.949219 C 320.5 103.55808 322.44674 105.5 336.06836 105.5 L 351.93164 105.5 C 365.55326 105.5 367.5 103.55808 367.5 89.949219 L 367.5 84 L 320.5 84 z"/><path style="opacity:.2;fill:#fff;fill-opacity:1;stroke:none;stroke-width:2;stroke-linecap:round;stroke-linejoin:round;stroke-miterlimit:4;stroke-dasharray:none;stroke-dashoffset:0;stroke-opacity:1" id="path1572" d="M 320.5 148 L 320.5 152.13281 C 320.5 161.20539 321.79783 162.5 330.87891 162.5 L 341.12109 162.5 C 350.20218 162.5 351.5 161.20539 351.5 152.13281 L 351.5 148 L 320.5 148 z"/><path style="opacity:.2;fill:#fff;fill-opacity:1;stroke:none;stroke-width:2;stroke-linecap:round;stroke-linejoin:round;stroke-miterlimit:4;stroke-dasharray:none;stroke-dashoffset:0;stroke-opacity:1" id="path1589" d="M 320.5 200 L 320.5 202.72461 C 320.5 209.52905 321.47435 210.5 328.28516 210.5 L 335.71484 210.5 C 342.52565 210.5 343.5 209.52905 343.5 202.72461 L 343.5 200 L 320.5 200 z"/></g><g id="layer6" style="display:inline"><path style="display:inline;opacity:.2;fill:#000;fill-opacity:1;stroke:none;stroke-width:1;stroke-linecap:butt;stroke-linejoin:miter;stroke-miterlimit:4;stroke-dasharray:none;stroke-dashoffset:1;stroke-opacity:1;filter:url(#filter1496);enable-background:new" id="circle1487" d="m 228,186 a 12,12 0 0 0 -12,12 12,12 0 0 0 12,12 12,12 0 0 0 12,-12 12,12 0 0 0 -12,-12 z m -32,16 a 12,12 0 0 0 -12,12 12,12 0 0 0 12,12 12,12 0 0 0 12,-12 12,12 0 0 0 -12,-12 z"/><path id="path1501" d="m 84,182 c -2.216,0 -4,1.784 -4,4 v 12 H 68 c -2.216,0 -4,1.784 -4,4 v 8 c 0,2.216 1.784,4 4,4 h 12 v 12 c 0,2.216 1.784,4 4,4 h 8 c 2.216,0 4,-1.784 4,-4 v -12 h 12 c 2.216,0 4,-1.784 4,-4 v -8 c 0,-2.216 -1.784,-4 -4,-4 H 96 v -12 c 0,-2.216 -1.784,-4 -4,-4 z" style="display:inline;opacity:.2;fill:#000;fill-opacity:1;stroke:none;stroke-width:1;stroke-linecap:butt;stroke-linejoin:miter;stroke-miterlimit:4;stroke-dasharray:none;stroke-dashoffset:1;stroke-opacity:1;enable-background:new;filter:url(#filter1507)"/><path style="display:inline;opacity:1;fill:#5d5d5d;fill-opacity:1;stroke:none;stroke-width:1;stroke-linecap:butt;stroke-linejoin:miter;stroke-miterlimit:4;stroke-dasharray:none;stroke-dashoffset:1;stroke-opacity:1;enable-background:new" id="rect1426" d="M 84 180 C 81.784 180 80 181.784 80 184 L 80 196 L 68 196 C 65.784 196 64 197.784 64 200 L 64 208 C 64 210.216 65.784 212 68 212 L 80 212 L 80 224 C 80 226.216 81.784 228 84 228 L 92 228 C 94.216 228 96 226.216 96 224 L 96 212 L 108 212 C 110.216 212 112 210.216 112 208 L 112 200 C 112 197.784 110.216 196 108 196 L 96 196 L 96 184 C 96 181.784 94.216 180 92 180 L 84 180 z"/><path style="display:inline;opacity:1;fill:#f22c42;fill-opacity:1;stroke:none;stroke-width:1;stroke-linecap:butt;stroke-linejoin:miter;stroke-miterlimit:4;stroke-dasharray:none;stroke-dashoffset:1;stroke-opacity:1;enable-background:new" id="path1432" d="m 228,184 a 12,12 0 0 0 -12,12 12,12 0 0 0 12,12 12,12 0 0 0 12,-12 12,12 0 0 0 -12,-12 z m -32,16 a 12,12 0 0 0 -12,12 12,12 0 0 0 12,12 12,12 0 0 0 12,-12 12,12 0 0 0 -12,-12 z"/><path style="display:inline;opacity:.5;fill:#aea795;fill-opacity:1;stroke:none;stroke-width:1;stroke-linecap:butt;stroke-linejoin:miter;stroke-miterlimit:4;stroke-dasharray:none;stroke-dashoffset:1;stroke-opacity:1;enable-background:new" id="rect1443" d="M 130 236 C 128.892 236 128 236.892 128 238 L 128 242 C 128 243.108 128.892 244 130 244 L 142 244 C 143.108 244 144 243.108 144 242 L 144 238 C 144 236.892 143.108 236 142 236 L 130 236 z M 162 236 C 160.892 236 160 236.892 160 238 L 160 242 C 160 243.108 160.892 244 162 244 L 174 244 C 175.108 244 176 243.108 176 242 L 176 238 C 176 236.892 175.108 236 174 236 L 162 236 z"/><rect style="display:inline;opacity:.2;fill:#fff;fill-opacity:1;stroke:none;stroke-width:1;stroke-linecap:butt;stroke-linejoin:miter;stroke-miterlimit:4;stroke-dasharray:none;stroke-dashoffset:1;stroke-opacity:1;enable-background:new" id="rect1511" width="144" height="80" x="80" y="78" ry="4"/><rect id="rect1481" width="144" height="80" x="80" y="76" style="display:inline;opacity:1;fill:#5d5d5d;fill-opacity:1;stroke:none;stroke-width:1;stroke-linecap:butt;stroke-linejoin:miter;stroke-miterlimit:4;stroke-dasharray:none;stroke-dashoffset:1;stroke-opacity:1;enable-background:new"/><path id="path1525" d="m 344.5,152 a 1.5,1.5 0 0 0 -1.5,1.5 1.5,1.5 0 0 0 1.5,1.5 1.5,1.5 0 0 0 1.5,-1.5 1.5,1.5 0 0 0 -1.5,-1.5 z m -4,2 a 1.5,1.5 0 0 0 -1.5,1.5 1.5,1.5 0 0 0 1.5,1.5 1.5,1.5 0 0 0 1.5,-1.5 1.5,1.5 0 0 0 -1.5,-1.5 z" style="display:inline;opacity:1;fill:#f22c42;fill-opacity:1;stroke:none;stroke-width:1;stroke-linecap:butt;stroke-linejoin:miter;stroke-miterlimit:4;stroke-dasharray:none;stroke-dashoffset:1;stroke-opacity:1;enable-background:new"/><path id="path1527" d="m 328.5,151 c -0.277,0 -0.5,0.223 -0.5,0.5 v 1.5 h -1.5 c -0.277,0 -0.5,0.223 -0.5,0.5 v 1 c 0,0.277 0.223,0.5 0.5,0.5 h 1.5 v 1.5 c 0,0.277 0.223,0.5 0.5,0.5 h 1 c 0.277,0 0.5,-0.223 0.5,-0.5 V 155 h 1.5 c 0.277,0 0.5,-0.223 0.5,-0.5 v -1 c 0,-0.277 -0.223,-0.5 -0.5,-0.5 H 330 v -1.5 c 0,-0.277 -0.223,-0.5 -0.5,-0.5 z" style="display:inline;opacity:1;fill:#5d5d5d;fill-opacity:1;stroke:none;stroke-width:1;stroke-linecap:butt;stroke-linejoin:miter;stroke-miterlimit:4;stroke-dasharray:none;stroke-dashoffset:1;stroke-opacity:1;enable-background:new"/><rect style="display:inline;opacity:1;fill:#5d5d5d;fill-opacity:1;stroke:none;stroke-width:1;stroke-linecap:butt;stroke-linejoin:miter;stroke-miterlimit:4;stroke-dasharray:none;stroke-dashoffset:1;stroke-opacity:1;enable-background:new" id="rect1529" width="18" height="10" x="327" y="138"/><path style="display:inline;opacity:1;fill:#f22c42;fill-opacity:1;stroke:none;stroke-width:1;stroke-linecap:butt;stroke-linejoin:miter;stroke-miterlimit:4;stroke-dasharray:none;stroke-dashoffset:1;stroke-opacity:1;enable-background:new" id="path1531" d="m 331.5,244.75 c -0.41421,0 -0.75,0.33579 -0.75,0.75 0,0.41421 0.33579,0.75 0.75,0.75 0.41421,0 0.75,-0.33579 0.75,-0.75 0,-0.41421 -0.33579,-0.75 -0.75,-0.75 z m -2,1 c -0.41421,0 -0.75,0.33579 -0.75,0.75 0,0.41421 0.33579,0.75 0.75,0.75 0.41421,0 0.75,-0.33579 0.75,-0.75 0,-0.41421 -0.33579,-0.75 -0.75,-0.75 z"/><path style="display:inline;opacity:1;fill:#5d5d5d;fill-opacity:1;stroke:none;stroke-width:1;stroke-linecap:butt;stroke-linejoin:miter;stroke-miterlimit:4;stroke-dasharray:none;stroke-dashoffset:1;stroke-opacity:1;enable-background:new" id="path1533" d="m 325.25,244 c -0.1385,0 -0.25,0.1115 -0.25,0.25 V 245 h -0.75 c -0.1385,0 -0.25,0.1115 -0.25,0.25 v 0.5 c 0,0.1385 0.1115,0.25 0.25,0.25 H 325 v 0.75 c 0,0.1385 0.1115,0.25 0.25,0.25 h 0.5 c 0.1385,0 0.25,-0.1115 0.25,-0.25 V 246 h 0.75 c 0.1385,0 0.25,-0.1115 0.25,-0.25 v -0.5 c 0,-0.1385 -0.1115,-0.25 -0.25,-0.25 H 326 v -0.75 c 0,-0.1385 -0.1115,-0.25 -0.25,-0.25 z"/><rect id="rect1535" width="8" height="4" x="324" y="239" style="display:inline;opacity:1;fill:#5d5d5d;fill-opacity:1;stroke:none;stroke-width:1;stroke-linecap:butt;stroke-linejoin:miter;stroke-miterlimit:4;stroke-dasharray:none;stroke-dashoffset:1;stroke-opacity:1;enable-background:new"/><path style="display:inline;opacity:1;fill:#5d5d5d;fill-opacity:1;stroke:none;stroke-width:1;stroke-linecap:butt;stroke-linejoin:miter;stroke-miterlimit:4;stroke-dasharray:none;stroke-dashoffset:1;stroke-opacity:1;enable-background:new" id="path1543" d="M 332.75,89 C 332.3345,89 332,89.3345 332,89.75 V 92 h -2.25 c -0.4155,0 -0.75,0.3345 -0.75,0.75 v 1.5 c 0,0.4155 0.3345,0.75 0.75,0.75 H 332 v 2.25 c 0,0.4155 0.3345,0.75 0.75,0.75 h 1.5 c 0.4155,0 0.75,-0.3345 0.75,-0.75 V 95 h 2.25 c 0.4155,0 0.75,-0.3345 0.75,-0.75 v -1.5 C 338,92.3345 337.6655,92 337.25,92 H 335 V 89.75 C 335,89.3345 334.6655,89 334.25,89 Z"/><rect id="rect1545" width="26" height="15" x="331" y="69" style="display:inline;opacity:1;fill:#5d5d5d;fill-opacity:1;stroke:none;stroke-width:1;stroke-linecap:butt;stroke-linejoin:miter;stroke-miterlimit:4;stroke-dasharray:none;stroke-dashoffset:1;stroke-opacity:1;enable-background:new"/><g id="g1570"><path id="path1541" d="m 350.99999,93 c -1.10457,0 -2,0.89543 -2,2 0,1.104569 0.89543,2 2,2 1.10458,0 2,-0.895431 2,-2 0,-1.10457 -0.89542,-2 -2,-2 z" style="display:inline;opacity:1;fill:#f22c42;fill-opacity:1;stroke:none;stroke-width:1;stroke-linecap:butt;stroke-linejoin:miter;stroke-miterlimit:4;stroke-dasharray:none;stroke-dashoffset:1;stroke-opacity:1;enable-background:new"/><path style="display:inline;opacity:1;fill:#f22c42;fill-opacity:1;stroke:none;stroke-width:1;stroke-linecap:butt;stroke-linejoin:miter;stroke-miterlimit:4;stroke-dasharray:none;stroke-dashoffset:1;stroke-opacity:1;enable-background:new" id="path1559" d="m 355.99999,90 c -1.10457,0 -2,0.89543 -2,2 0,1.104569 0.89543,2 2,2 1.10458,0 2,-0.895431 2,-2 0,-1.10457 -0.89542,-2 -2,-2 z"/></g><rect style="display:inline;opacity:1;fill:#5d5d5d;fill-opacity:1;stroke:none;stroke-width:1;stroke-linecap:butt;stroke-linejoin:miter;stroke-miterlimit:4;stroke-dasharray:none;stroke-dashoffset:1;stroke-opacity:1;enable-background:new" id="rect1581" width="12" height="7" x="326" y="193"/><path style="display:inline;opacity:1;fill:#f22c42;fill-opacity:1;stroke:none;stroke-width:1;stroke-linecap:butt;stroke-linejoin:miter;stroke-miterlimit:4;stroke-dasharray:none;stroke-dashoffset:1;stroke-opacity:1;enable-background:new" id="path1602" d="m 337.3,203 a 0.9,0.9 0 0 0 -0.9,0.9 0.9,0.9 0 0 0 0.9,0.9 0.9,0.9 0 0 0 0.9,-0.9 0.9,0.9 0 0 0 -0.9,-0.9 z m -2.4,1.2 a 0.9,0.9 0 0 0 -0.9,0.9 0.9,0.9 0 0 0 0.9,0.9 0.9,0.9 0 0 0 0.9,-0.9 0.9,0.9 0 0 0 -0.9,-0.9 z"/><path style="display:inline;opacity:1;fill:#5d5d5d;fill-opacity:1;stroke:none;stroke-width:1;stroke-linecap:butt;stroke-linejoin:miter;stroke-miterlimit:4;stroke-dasharray:none;stroke-dashoffset:1;stroke-opacity:1;enable-background:new" id="path1604" d="m 327.25,203 c -0.1385,0 -0.25,0.1115 -0.25,0.25 V 204 h -0.75 c -0.1385,0 -0.25,0.1115 -0.25,0.25 v 0.5 c 0,0.1385 0.1115,0.25 0.25,0.25 H 327 v 0.75 c 0,0.1385 0.1115,0.25 0.25,0.25 h 0.5 c 0.1385,0 0.25,-0.1115 0.25,-0.25 V 205 h 0.75 c 0.1385,0 0.25,-0.1115 0.25,-0.25 v -0.5 c 0,-0.1385 -0.1115,-0.25 -0.25,-0.25 H 328 v -0.75 c 0,-0.1385 -0.1115,-0.25 -0.25,-0.25 z"/></g><g id="layer5" style="display:inline"><path style="display:inline;opacity:.4;fill:none;fill-opacity:1;stroke:#000;stroke-width:1;stroke-linecap:round;stroke-linejoin:round;stroke-miterlimit:4;stroke-dasharray:none;stroke-dashoffset:0;stroke-opacity:1;enable-background:new" id="path950" d="m 341.12109,133.5 c 9.08109,0 10.37891,1.29458 10.37891,10.36719 v 8.26562 c 0,9.07258 -1.29782,10.36719 -10.37891,10.36719 H 330.87891 C 321.79783,162.5 320.5,161.20539 320.5,152.13281 v -8.26562 c 0,-9.07261 1.29783,-10.36719 10.37891,-10.36719 z"/><path style="display:inline;opacity:.4;fill:none;fill-opacity:1;stroke:#000;stroke-width:1;stroke-linecap:round;stroke-linejoin:round;stroke-miterlimit:4;stroke-dasharray:none;stroke-dashoffset:0;stroke-opacity:1;enable-background:new" id="path892" d="M 351.93164,62.5 C 365.55326,62.5 367.5,64.44187 367.5,78.05078 V 89.94922 C 367.5,103.55808 365.55326,105.5 351.93164,105.5 H 336.06836 C 322.44674,105.5 320.5,103.55808 320.5,89.94922 V 78.05078 C 320.5,64.44187 322.44674,62.5 336.06836,62.5 Z"/><path id="path970" d="m 335.71582,189.50031 c 6.81081,10e-6 7.78418,0.97093 7.78418,7.77539 v 5.44891 c 0,6.80444 -0.97337,7.77539 -7.78418,7.77539 h -7.43164 c -6.81081,0 -7.78418,-0.97095 -7.78418,-7.77539 v -5.44892 c 0,-6.80446 0.97337,-7.7754 7.78418,-7.77539 z" style="display:inline;opacity:.4;fill:none;fill-opacity:1;stroke:#000;stroke-width:1;stroke-linecap:round;stroke-linejoin:round;stroke-miterlimit:4;stroke-dasharray:none;stroke-dashoffset:0;stroke-opacity:1;enable-background:new"/><path id="path1025" d="m 330.31054,236.5 c 4.54055,0 5.18946,0.64729 5.18946,5.18359 v 3.63282 c 0,4.53629 -0.64891,5.18359 -5.18946,5.18359 h -4.62109 c -4.54053,0 -5.18945,-0.6473 -5.18945,-5.18359 v -3.63282 c 0,-4.5363 0.64892,-5.18359 5.18946,-5.18359 z" style="display:inline;opacity:.4;fill:none;fill-opacity:1;stroke:#000;stroke-width:1;stroke-linecap:round;stroke-linejoin:round;stroke-miterlimit:4;stroke-dasharray:none;stroke-dashoffset:0;stroke-opacity:1;enable-background:new"/><path style="color:#000;font-style:normal;font-variant:normal;font-weight:400;font-stretch:normal;font-size:medium;line-height:normal;font-family:sans-serif;font-variant-ligatures:normal;font-variant-position:normal;font-variant-caps:normal;font-variant-numeric:normal;font-variant-alternates:normal;font-feature-settings:normal;text-indent:0;text-align:start;text-decoration:none;text-decoration-line:none;text-decoration-style:solid;text-decoration-color:#000;letter-spacing:normal;word-spacing:normal;text-transform:none;writing-mode:lr-tb;direction:ltr;text-orientation:mixed;dominant-baseline:auto;baseline-shift:baseline;text-anchor:start;white-space:normal;shape-padding:0;clip-rule:nonzero;display:inline;overflow:visible;visibility:visible;opacity:.5;isolation:auto;mix-blend-mode:normal;color-interpolation:sRGB;color-interpolation-filters:linearRGB;solid-color:#000;solid-opacity:1;vector-effect:none;fill:none;fill-opacity:1;fill-rule:nonzero;stroke:url(#linearGradient929);stroke-width:1;stroke-linecap:round;stroke-linejoin:round;stroke-miterlimit:4;stroke-dasharray:none;stroke-dashoffset:0;stroke-opacity:1;color-rendering:auto;image-rendering:auto;shape-rendering:auto;text-rendering:auto;enable-background:accumulate" id="path911" d="m 351.93164,63.5 h -15.86328 c -6.76329,0 -10.36307,0.55877 -12.18555,2.37891 -1.82247,1.82013 -2.38281,5.4151 -2.38281,12.17187 v 11.89844 c 0,6.75675 0.56034,10.35173 2.38281,12.17187 1.82248,1.82015 5.42226,2.37891 12.18555,2.37891 h 15.86328 c 6.76329,0 10.36307,-0.55876 12.18555,-2.37891 C 365.93966,100.30095 366.5,96.70597 366.5,89.94922 V 78.05078 c 0,-6.75677 -0.56034,-10.35174 -2.38281,-12.17187 C 362.29471,64.05877 358.69493,63.5 351.93164,63.5 Z"/><path style="color:#000;font-style:normal;font-variant:normal;font-weight:400;font-stretch:normal;font-size:medium;line-height:normal;font-family:sans-serif;font-variant-ligatures:normal;font-variant-position:normal;font-variant-caps:normal;font-variant-numeric:normal;font-variant-alternates:normal;font-feature-settings:normal;text-indent:0;text-align:start;text-decoration:none;text-decoration-line:none;text-decoration-style:solid;text-decoration-color:#000;letter-spacing:normal;word-spacing:normal;text-transform:none;writing-mode:lr-tb;direction:ltr;text-orientation:mixed;dominant-baseline:auto;baseline-shift:baseline;text-anchor:start;white-space:normal;shape-padding:0;clip-rule:nonzero;display:inline;overflow:visible;visibility:visible;opacity:.5;isolation:auto;mix-blend-mode:normal;color-interpolation:sRGB;color-interpolation-filters:linearRGB;solid-color:#000;solid-opacity:1;vector-effect:none;fill:none;fill-opacity:1;fill-rule:nonzero;stroke:url(#linearGradient965);stroke-width:1;stroke-linecap:round;stroke-linejoin:round;stroke-miterlimit:4;stroke-dasharray:none;stroke-dashoffset:0;stroke-opacity:1;color-rendering:auto;image-rendering:auto;shape-rendering:auto;text-rendering:auto;enable-background:accumulate" id="path955" d="m 341.12109,134.5 h -10.24218 c -4.49302,0 -6.796,0.397 -7.88868,1.48828 -1.09267,1.09128 -1.49023,3.39029 -1.49023,7.87891 v 8.26562 c 0,4.48861 0.39755,6.78763 1.49023,7.87891 1.09268,1.09128 3.39566,1.48828 7.88868,1.48828 h 10.24218 c 4.49303,0 6.796,-0.397 7.88868,-1.48828 1.09268,-1.09128 1.49023,-3.3903 1.49023,-7.87891 v -8.26562 c 0,-4.48862 -0.39756,-6.78763 -1.49023,-7.87891 C 347.91709,134.897 345.61412,134.5 341.12109,134.5 Z"/><path style="color:#000;font-style:normal;font-variant:normal;font-weight:400;font-stretch:normal;font-size:medium;line-height:normal;font-family:sans-serif;font-variant-ligatures:normal;font-variant-position:normal;font-variant-caps:normal;font-variant-numeric:normal;font-variant-alternates:normal;font-feature-settings:normal;text-indent:0;text-align:start;text-decoration:none;text-decoration-line:none;text-decoration-style:solid;text-decoration-color:#000;letter-spacing:normal;word-spacing:normal;text-transform:none;writing-mode:lr-tb;direction:ltr;text-orientation:mixed;dominant-baseline:auto;baseline-shift:baseline;text-anchor:start;white-space:normal;shape-padding:0;clip-rule:nonzero;display:inline;overflow:visible;visibility:visible;opacity:.5;isolation:auto;mix-blend-mode:normal;color-interpolation:sRGB;color-interpolation-filters:linearRGB;solid-color:#000;solid-opacity:1;vector-effect:none;fill:none;fill-opacity:1;fill-rule:nonzero;stroke:url(#linearGradient1006);stroke-width:1;stroke-linecap:round;stroke-linejoin:round;stroke-miterlimit:4;stroke-dasharray:none;stroke-dashoffset:0;stroke-opacity:1;color-rendering:auto;image-rendering:auto;shape-rendering:auto;text-rendering:auto;enable-background:accumulate" id="path974" d="m 335.71484,190.5 h -7.43164 c -3.35788,0 -5.0105,0.31612 -5.73828,1.04297 -0.72778,0.72685 -1.04492,2.37787 -1.04492,5.73242 v 5.44922 c 0,3.35454 0.31714,5.00557 1.04492,5.73242 0.72778,0.72685 2.38235,1.04297 5.74024,1.04297 h 7.42968 c 3.35789,0 5.01246,-0.31612 5.74024,-1.04297 0.72778,-0.72685 1.04492,-2.37788 1.04492,-5.73242 v -5.44922 c 0,-3.35455 -0.31714,-5.00558 -1.04492,-5.73242 C 340.7273,190.81612 339.07273,190.5 335.71484,190.5 Z"/><path style="color:#000;font-style:normal;font-variant:normal;font-weight:400;font-stretch:normal;font-size:medium;line-height:normal;font-family:sans-serif;font-variant-ligatures:normal;font-variant-position:normal;font-variant-caps:normal;font-variant-numeric:normal;font-variant-alternates:normal;font-feature-settings:normal;text-indent:0;text-align:start;text-decoration:none;text-decoration-line:none;text-decoration-style:solid;text-decoration-color:#000;letter-spacing:normal;word-spacing:normal;text-transform:none;writing-mode:lr-tb;direction:ltr;text-orientation:mixed;dominant-baseline:auto;baseline-shift:baseline;text-anchor:start;white-space:normal;shape-padding:0;clip-rule:nonzero;display:inline;overflow:visible;visibility:visible;opacity:.5;isolation:auto;mix-blend-mode:normal;color-interpolation:sRGB;color-interpolation-filters:linearRGB;solid-color:#000;solid-opacity:1;vector-effect:none;fill:none;fill-opacity:1;fill-rule:nonzero;stroke:url(#linearGradient1045);stroke-width:1;stroke-linecap:round;stroke-linejoin:round;stroke-miterlimit:4;stroke-dasharray:none;stroke-dashoffset:0;stroke-opacity:1;color-rendering:auto;image-rendering:auto;shape-rendering:auto;text-rendering:auto;enable-background:accumulate" id="path1035" d="m 325.68945,237.5 h 4.6211 c 2.22275,0 3.22696,0.23524 3.58984,0.59766 0.36288,0.36241 0.59961,1.36547 0.59961,3.58593 v 3.63282 c 0,2.22046 -0.23673,3.22352 -0.59961,3.58593 -0.36288,0.36242 -1.36709,0.59766 -3.58984,0.59766 h -4.6211 c -2.22274,0 -3.22696,-0.23524 -3.58984,-0.59766 -0.36288,-0.36242 -0.59961,-1.36547 -0.59961,-3.58593 v -3.63282 c 0,-2.22046 0.23673,-3.22352 0.59961,-3.58593 0.36288,-0.36242 1.36709,-0.59766 3.58984,-0.59766 z"/></g></g></svg>