<svg xmlns="http://www.w3.org/2000/svg" xmlns:svg="http://www.w3.org/2000/svg" xmlns:xlink="http://www.w3.org/1999/xlink" id="svg11300" width="400" height="300" version="1.0" style="display:inline;enable-background:new"><title id="title3004">Suru Icon Theme Template</title><defs id="defs3"><linearGradient id="linearGradient927"><stop style="stop-color:#fff;stop-opacity:1" id="stop923" offset="0"/><stop id="stop933" offset=".125" style="stop-color:#fff;stop-opacity:.09803922"/><stop id="stop931" offset=".925" style="stop-color:#fff;stop-opacity:.09803922"/><stop style="stop-color:#fff;stop-opacity:.49803922" id="stop925" offset="1"/></linearGradient><clipPath id="clipPath9430" clipPathUnits="userSpaceOnUse"><path id="path9432" d="m 166.0625,-196 h 179.875 C 491.2348,-196 512,-175.28677 512,-30.125 v 148.25 C 512,263.28618 491.2348,284 345.9375,284 H 166.0625 C 20.7652,284 0,263.28618 0,118.125 V -30.125 C 0,-175.28677 20.7652,-196 166.0625,-196 Z" style="color:#000;display:inline;overflow:visible;visibility:visible;fill:#fff;fill-opacity:1;fill-rule:nonzero;stroke:none;stroke-width:1;marker:none;enable-background:new"/></clipPath><linearGradient id="linearGradient929" x1="168" x2="168" y1="239" y2="279" gradientTransform="matrix(-1,0,0,1,512,-175)" gradientUnits="userSpaceOnUse" xlink:href="#linearGradient927"/><linearGradient id="linearGradient965" x1="112" x2="112" y1="255" y2="281" gradientTransform="matrix(-1,0,0,1,448,-120)" gradientUnits="userSpaceOnUse" xlink:href="#linearGradient927"/><linearGradient id="linearGradient1006" x1="64" x2="64" y1="263" y2="281" gradientTransform="matrix(-1,0,0,1,396,-72)" gradientUnits="userSpaceOnUse" xlink:href="#linearGradient927"/><linearGradient id="linearGradient1045" x1="760" x2="760" y1="254" y2="265" gradientTransform="translate(-432,-16)" gradientUnits="userSpaceOnUse" xlink:href="#linearGradient927"/><clipPath id="clipPath1082" clipPathUnits="userSpaceOnUse"><path id="path1084" d="M 361.9375,-212 C 507.2348,-212 528,-191.28677 528,-46.125 V 70.125 C 528,215.28618 507.2348,236 361.9375,236 H 214.0625 C 68.7652,236 48,215.28618 48,70.125 V -46.125 C 48,-191.28677 68.7652,-212 214.0625,-212 Z" style="display:inline;opacity:1;fill:#8c59d9;fill-opacity:1;stroke:none;stroke-width:2;stroke-linecap:round;stroke-linejoin:round;stroke-miterlimit:4;stroke-dasharray:none;stroke-dashoffset:0;stroke-opacity:1;enable-background:new"/></clipPath><filter style="color-interpolation-filters:sRGB" id="filter4569" width="1.023" height="1.025" x="-.012" y="-.012"><feGaussianBlur id="feGaussianBlur4571" stdDeviation="1.16"/></filter><linearGradient id="linearGradient4221"><stop style="stop-color:#f37e40;stop-opacity:1" id="stop4223" offset="0"/><stop style="stop-color:#fac82e;stop-opacity:1" id="stop4225" offset="1"/></linearGradient><linearGradient id="linearGradient4479" x1="211.404" x2="232.776" y1="344.742" y2="375.408" gradientTransform="matrix(7.4113839,0,0,7.4113839,-1355.3904,-2406.6168)" gradientUnits="userSpaceOnUse" xlink:href="#linearGradient4486"/><linearGradient id="linearGradient4486"><stop id="stop4488" offset="0" style="stop-color:#000;stop-opacity:0"/><stop style="stop-color:#000;stop-opacity:1" id="stop4490" offset=".67"/><stop id="stop4492" offset="1" style="stop-color:#000;stop-opacity:0"/></linearGradient><filter style="color-interpolation-filters:sRGB" id="filter4482" width="1.17" height="1.221" x="-.085" y="-.11"><feGaussianBlur id="feGaussianBlur4484" stdDeviation="10.766"/></filter><filter style="color-interpolation-filters:sRGB" id="filter4500" width="1.021" height="1.028" x="-.011" y="-.014"><feGaussianBlur id="feGaussianBlur4502" stdDeviation="1.346"/></filter><linearGradient id="linearGradient4143" x1="297.987" x2="299.397" y1="344.067" y2="141.4" gradientTransform="matrix(0.5,0,0,0.5,24,28)" gradientUnits="userSpaceOnUse" xlink:href="#linearGradient4155"/><linearGradient id="linearGradient4155"><stop id="stop4318-2" offset="0" style="stop-color:#f3e6d2;stop-opacity:.99607843"/><stop id="stop4320-4" offset="1" style="stop-color:#f7f4ee;stop-opacity:1"/></linearGradient><linearGradient id="linearGradient4134" x1="211.404" x2="211.404" y1="344.742" y2="375.678" gradientTransform="matrix(3.7056919,0,0,3.7056919,-653.6952,-1176.3084)" gradientUnits="userSpaceOnUse" xlink:href="#linearGradient4289"/><linearGradient id="linearGradient4289"><stop id="stop4291" offset="0" style="stop-color:#fdfdfb;stop-opacity:1"/><stop id="stop4293" offset="1" style="stop-color:#f0e9df;stop-opacity:1"/></linearGradient><linearGradient id="linearGradient4164" x1="354.037" x2="370.342" y1="292.996" y2="314.245" gradientTransform="matrix(0.5,0,0,0.5,24,19)" gradientUnits="userSpaceOnUse" xlink:href="#linearGradient4120"/><linearGradient id="linearGradient4120"><stop style="stop-color:#e6a240;stop-opacity:.996" id="stop4122" offset="0"/><stop style="stop-color:#eab261;stop-opacity:.27450982" id="stop4124" offset="1"/></linearGradient><linearGradient id="linearGradient4177" x1="121.976" x2="108.56" y1="330.553" y2="348.038" gradientTransform="matrix(0.5,0,0,0.5,24,19)" gradientUnits="userSpaceOnUse" xlink:href="#linearGradient4120"/><linearGradient id="linearGradient985" x1="24" x2="376" y1="28" y2="380" gradientUnits="userSpaceOnUse" xlink:href="#linearGradient4221"/><linearGradient id="linearGradient943" x1="320" x2="340" y1="236" y2="256" gradientUnits="userSpaceOnUse" xlink:href="#linearGradient4221"/><linearGradient id="linearGradient945" x1="320" x2="352" y1="188" y2="220" gradientUnits="userSpaceOnUse" xlink:href="#linearGradient4221"/><linearGradient id="linearGradient947" x1="320" x2="368" y1="132" y2="180" gradientUnits="userSpaceOnUse" xlink:href="#linearGradient4221"/><linearGradient id="linearGradient949" x1="320" x2="384" y1="60" y2="124" gradientUnits="userSpaceOnUse" xlink:href="#linearGradient4221"/><linearGradient id="linearGradient1108-7" x1="296" x2="296" y1="-212" y2="236" gradientUnits="userSpaceOnUse" xlink:href="#linearGradient1013"/><linearGradient id="linearGradient1013"><stop id="stop1005" offset="0" style="stop-color:#fff;stop-opacity:1"/><stop style="stop-color:#fff;stop-opacity:.09803922" id="stop1007" offset=".125"/><stop style="stop-color:#000;stop-opacity:.09803922" id="stop1009" offset=".925"/><stop id="stop1011" offset="1" style="stop-color:#000;stop-opacity:.49803922"/></linearGradient><clipPath id="clipPath1082-3" clipPathUnits="userSpaceOnUse"><path id="path1084-6" d="M 361.9375,-212 C 507.2348,-212 528,-191.28677 528,-46.125 V 70.125 C 528,215.28618 507.2348,236 361.9375,236 H 214.0625 C 68.7652,236 48,215.28618 48,70.125 V -46.125 C 48,-191.28677 68.7652,-212 214.0625,-212 Z" style="display:inline;opacity:1;fill:#8c59d9;fill-opacity:1;stroke:none;stroke-width:2;stroke-linecap:round;stroke-linejoin:round;stroke-miterlimit:4;stroke-dasharray:none;stroke-dashoffset:0;stroke-opacity:1;enable-background:new"/></clipPath><filter style="color-interpolation-filters:sRGB" id="filter958" width="1.046" height="1.05" x="-.023" y="-.025"><feGaussianBlur id="feGaussianBlur960" stdDeviation="2.32"/></filter><linearGradient id="linearGradient931" x1="297.987" x2="299.397" y1="344.067" y2="141.4" gradientTransform="matrix(0.0875,0,0,0.0875,321.6,61.427974)" gradientUnits="userSpaceOnUse" xlink:href="#linearGradient4155"/><linearGradient id="linearGradient933" x1="211.404" x2="211.404" y1="344.742" y2="375.678" gradientTransform="matrix(0.64849608,0,0,0.64849608,203.00334,-149.326)" gradientUnits="userSpaceOnUse" xlink:href="#linearGradient4289"/><clipPath id="clipPath981" clipPathUnits="userSpaceOnUse"><path style="opacity:1;fill:url(#linearGradient986);fill-opacity:1;stroke:none;stroke-width:2;stroke-linecap:round;stroke-linejoin:round;stroke-miterlimit:4;stroke-dasharray:none;stroke-dashoffset:0;stroke-opacity:1" id="path983" d="M 351.93164,62.5 C 365.55326,62.5 367.5,64.44187 367.5,78.05078 V 89.94922 C 367.5,103.55808 365.55326,105.5 351.93164,105.5 H 336.06836 C 322.44674,105.5 320.5,103.55808 320.5,89.94922 V 78.05078 C 320.5,64.44187 322.44674,62.5 336.06836,62.5 Z"/></clipPath><linearGradient id="linearGradient986" x1="320" x2="384" y1="60" y2="124" gradientUnits="userSpaceOnUse" xlink:href="#linearGradient4221"/><linearGradient id="linearGradient1007" x1="297.987" x2="299.397" y1="344.067" y2="141.4" gradientTransform="matrix(0.04375,0,0,0.04375,320.75108,189.22293)" gradientUnits="userSpaceOnUse" xlink:href="#linearGradient4155"/><linearGradient id="linearGradient1009" x1="211.404" x2="211.404" y1="344.742" y2="375.678" gradientTransform="matrix(0.32424804,0,0,0.32424804,261.45275,83.84594)" gradientUnits="userSpaceOnUse" xlink:href="#linearGradient4289"/><linearGradient id="linearGradient1028" x1="297.987" x2="299.397" y1="344.067" y2="141.4" gradientTransform="matrix(0.0625,0,0,0.0625,320,132.83224)" gradientUnits="userSpaceOnUse" xlink:href="#linearGradient4155"/><linearGradient id="linearGradient1030" x1="211.404" x2="211.404" y1="344.742" y2="375.678" gradientTransform="matrix(0.46321148,0,0,0.46321148,235.2881,-17.706318)" gradientUnits="userSpaceOnUse" xlink:href="#linearGradient4289"/><linearGradient id="linearGradient1049" x1="297.987" x2="299.397" y1="344.067" y2="141.4" gradientTransform="matrix(0.04375,0,0,0.04375,320.75108,189.22293)" gradientUnits="userSpaceOnUse" xlink:href="#linearGradient4155"/><linearGradient id="linearGradient1051" x1="211.404" x2="211.404" y1="344.742" y2="375.678" gradientTransform="matrix(0.32424804,0,0,0.32424804,261.45275,83.84594)" gradientUnits="userSpaceOnUse" xlink:href="#linearGradient4289"/></defs><metadata id="metadata4"/><g style="display:inline" id="layer1"><g style="display:none" id="layer7"><text style="font-style:normal;font-variant:normal;font-weight:400;font-stretch:normal;line-height:0%;font-family:'DejaVu Sans';-inkscape-font-specification:'DejaVu Sans';display:inline;fill:#000;fill-opacity:1;stroke:none;enable-background:new" id="context" x="19.007" y="-8.255" xml:space="preserve"><tspan style="font-style:normal;font-variant:normal;font-weight:400;font-stretch:normal;font-size:18px;line-height:1.25;font-family:'DejaVu Sans';-inkscape-font-specification:'DejaVu Sans'" id="tspan3933" x="19.007" y="-8.255">apps</tspan></text><text style="font-style:normal;font-variant:normal;font-weight:700;font-stretch:normal;line-height:0%;font-family:'DejaVu Sans';-inkscape-font-specification:'DejaVu Sans Bold';text-align:start;writing-mode:lr-tb;text-anchor:start;display:inline;fill:#000;fill-opacity:1;stroke:none;enable-background:new" id="icon-name" x="146.488" y="-8.255" xml:space="preserve"><tspan style="font-style:normal;font-variant:normal;font-weight:700;font-stretch:normal;font-size:18px;line-height:1.25;font-family:'DejaVu Sans';-inkscape-font-specification:'DejaVu Sans Bold'" id="tspan3937" x="146.488" y="-8.255">messaging-app</tspan></text><rect style="display:inline;overflow:visible;visibility:visible;fill:#cdcdcd;fill-opacity:1;fill-rule:nonzero;stroke:none;stroke-width:2;marker:none;enable-background:accumulate" id="rect16x16" width="16" height="16" x="320" y="236"/><rect style="display:inline;overflow:visible;visibility:visible;fill:#cdcdcd;fill-opacity:1;fill-rule:nonzero;stroke:none;stroke-width:2;marker:none;enable-background:accumulate" id="rect24x24" width="24" height="24" x="320" y="188"/><rect style="display:inline;overflow:visible;visibility:visible;fill:#cdcdcd;fill-opacity:1;fill-rule:nonzero;stroke:none;stroke-width:2;marker:none;enable-background:accumulate" id="rect32x32" width="32" height="32" x="320" y="132"/><rect id="rect48x48" width="48" height="48" x="320" y="60" style="display:inline;overflow:visible;visibility:visible;fill:#cdcdcd;fill-opacity:1;fill-rule:nonzero;stroke:none;stroke-width:2;marker:none;enable-background:accumulate"/><rect style="display:inline;overflow:visible;visibility:visible;fill:#cdcdcd;fill-opacity:1;fill-rule:nonzero;stroke:none;stroke-width:2;marker:none;enable-background:accumulate" id="rect3951" width="256" height="256" x="24" y="28"/></g><g id="layer4" style="display:inline"><path style="color:#000;font-style:normal;font-variant:normal;font-weight:400;font-stretch:normal;font-size:medium;line-height:normal;font-family:sans-serif;font-variant-ligatures:normal;font-variant-position:normal;font-variant-caps:normal;font-variant-numeric:normal;font-variant-alternates:normal;font-feature-settings:normal;text-indent:0;text-align:start;text-decoration:none;text-decoration-line:none;text-decoration-style:solid;text-decoration-color:#000;letter-spacing:normal;word-spacing:normal;text-transform:none;writing-mode:lr-tb;direction:ltr;text-orientation:mixed;dominant-baseline:auto;baseline-shift:baseline;text-anchor:start;white-space:normal;shape-padding:0;clip-rule:nonzero;display:inline;overflow:visible;visibility:visible;opacity:.2;isolation:auto;mix-blend-mode:normal;color-interpolation:sRGB;color-interpolation-filters:linearRGB;solid-color:#000;solid-opacity:1;vector-effect:none;fill:#000;fill-opacity:1;fill-rule:nonzero;stroke:none;stroke-width:1;stroke-linecap:round;stroke-linejoin:round;stroke-miterlimit:4;stroke-dasharray:none;stroke-dashoffset:0;stroke-opacity:1;color-rendering:auto;image-rendering:auto;shape-rendering:auto;text-rendering:auto;enable-background:accumulate" id="path907" d="m 351.93164,63 c 6.83457,0 10.87325,0.44856 13.24609,2.81836 C 367.55058,68.18816 368,72.22248 368,79.05078 v 11.89844 c 0,6.82827 -0.44942,10.86261 -2.82227,13.23242 C 362.80489,106.55145 358.76621,107 351.93164,107 h -15.86328 c -6.83457,0 -10.87325,-0.44855 -13.24609,-2.81836 C 320.44942,101.81183 320,97.77749 320,90.94922 V 79.05078 c 0,-6.8283 0.44942,-10.86262 2.82227,-13.23242 C 325.19511,63.44856 329.23379,63 336.06836,63 Z"/><path style="color:#000;font-style:normal;font-variant:normal;font-weight:400;font-stretch:normal;font-size:medium;line-height:normal;font-family:sans-serif;font-variant-ligatures:normal;font-variant-position:normal;font-variant-caps:normal;font-variant-numeric:normal;font-variant-alternates:normal;font-feature-settings:normal;text-indent:0;text-align:start;text-decoration:none;text-decoration-line:none;text-decoration-style:solid;text-decoration-color:#000;letter-spacing:normal;word-spacing:normal;text-transform:none;writing-mode:lr-tb;direction:ltr;text-orientation:mixed;dominant-baseline:auto;baseline-shift:baseline;text-anchor:start;white-space:normal;shape-padding:0;clip-rule:nonzero;display:inline;overflow:visible;visibility:visible;opacity:.2;isolation:auto;mix-blend-mode:normal;color-interpolation:sRGB;color-interpolation-filters:linearRGB;solid-color:#000;solid-opacity:1;vector-effect:none;fill:#000;fill-opacity:1;fill-rule:nonzero;stroke:none;stroke-width:1;stroke-linecap:round;stroke-linejoin:round;stroke-miterlimit:4;stroke-dasharray:none;stroke-dashoffset:0;stroke-opacity:1;color-rendering:auto;image-rendering:auto;shape-rendering:auto;text-rendering:auto;enable-background:new" id="path1011" d="m 341.12109,134 c 4.56431,0 7.30422,0.28679 8.94727,1.92773 1.64305,1.64095 1.93164,4.37931 1.93164,8.93946 v 8.26562 c 0,4.56013 -0.28859,7.29851 -1.93164,8.93946 C 348.42531,163.71321 345.6854,164 341.12109,164 h -10.24218 c -4.5643,0 -7.30422,-0.28679 -8.94727,-1.92773 C 320.28859,160.43132 320,157.69294 320,153.13281 v -8.26562 c 0,-4.56015 0.28859,-7.29851 1.93164,-8.93946 C 323.57469,134.28679 326.31461,134 330.87891,134 Z"/><path style="color:#000;font-style:normal;font-variant:normal;font-weight:400;font-stretch:normal;font-size:medium;line-height:normal;font-family:sans-serif;font-variant-ligatures:normal;font-variant-position:normal;font-variant-caps:normal;font-variant-numeric:normal;font-variant-alternates:normal;font-feature-settings:normal;text-indent:0;text-align:start;text-decoration:none;text-decoration-line:none;text-decoration-style:solid;text-decoration-color:#000;letter-spacing:normal;word-spacing:normal;text-transform:none;writing-mode:lr-tb;direction:ltr;text-orientation:mixed;dominant-baseline:auto;baseline-shift:baseline;text-anchor:start;white-space:normal;shape-padding:0;clip-rule:nonzero;display:inline;overflow:visible;visibility:visible;opacity:.2;isolation:auto;mix-blend-mode:normal;color-interpolation:sRGB;color-interpolation-filters:linearRGB;solid-color:#000;solid-opacity:1;vector-effect:none;fill:#000;fill-opacity:1;fill-rule:nonzero;stroke:none;stroke-width:1;stroke-linecap:round;stroke-linejoin:round;stroke-miterlimit:4;stroke-dasharray:none;stroke-dashoffset:0;stroke-opacity:1;color-rendering:auto;image-rendering:auto;shape-rendering:auto;text-rendering:auto;enable-background:new" id="path1013" d="m 335.71484,190 c 3.42917,1e-5 5.52264,0.20591 6.80078,1.48242 1.27815,1.27651 1.48438,3.3669 1.48438,6.79297 v 5.44922 c 0,3.42606 -0.20623,5.51645 -1.48438,6.79297 C 341.23748,211.79409 339.14401,212 335.71484,212 h -7.42968 c -3.42917,0 -5.52263,-0.20591 -6.80079,-1.48242 C 320.20622,209.24106 320,207.15067 320,203.72461 v -5.44922 c 0,-3.42607 0.20622,-5.51646 1.48437,-6.79297 1.27816,-1.27651 3.37162,-1.48243 6.80079,-1.48242 z"/><path style="color:#000;font-style:normal;font-variant:normal;font-weight:400;font-stretch:normal;font-size:medium;line-height:normal;font-family:sans-serif;font-variant-ligatures:normal;font-variant-position:normal;font-variant-caps:normal;font-variant-numeric:normal;font-variant-alternates:normal;font-feature-settings:normal;text-indent:0;text-align:start;text-decoration:none;text-decoration-line:none;text-decoration-style:solid;text-decoration-color:#000;letter-spacing:normal;word-spacing:normal;text-transform:none;writing-mode:lr-tb;direction:ltr;text-orientation:mixed;dominant-baseline:auto;baseline-shift:baseline;text-anchor:start;white-space:normal;shape-padding:0;clip-rule:nonzero;display:inline;overflow:visible;visibility:visible;opacity:.2;isolation:auto;mix-blend-mode:normal;color-interpolation:sRGB;color-interpolation-filters:linearRGB;solid-color:#000;solid-opacity:1;vector-effect:none;fill:#000;fill-opacity:1;fill-rule:nonzero;stroke:none;stroke-width:1;stroke-linecap:round;stroke-linejoin:round;stroke-miterlimit:4;stroke-dasharray:none;stroke-dashoffset:0;stroke-opacity:1;color-rendering:auto;image-rendering:auto;shape-rendering:auto;text-rendering:auto;enable-background:new" id="path1050" d="m 325.68945,237 c -2.29403,0 -3.73713,0.12503 -4.65039,1.03711 C 320.12581,238.94919 320,240.3916 320,242.68359 v 3.63282 c 0,2.29198 0.12581,3.7344 1.03906,4.64648 0.91325,0.91208 2.35637,1.03711 4.65039,1.03711 h 4.6211 c 2.29403,0 3.73713,-0.12503 4.65039,-1.03711 0.91325,-0.91208 1.03906,-2.3545 1.03906,-4.64648 v -3.63282 c 0,-2.29199 -0.12581,-3.7344 -1.03906,-4.64648 C 334.04768,237.12503 332.60458,237 330.31055,237 Z"/><path id="path4567" d="m 188.96876,43.999995 c 72.64865,0 83.03125,10.356615 83.03125,82.937505 v 58.125 c 0,72.58059 -10.3826,82.9375 -83.03125,82.9375 h -73.9375 C 42.382606,268 32.000006,257.64309 32.000006,185.0625 v -58.125 c 0,-72.58089 10.3826,-82.937505 83.031254,-82.937505 z" style="display:inline;opacity:.1;fill:#000;fill-opacity:1;stroke:none;stroke-width:2;stroke-linecap:round;stroke-linejoin:round;stroke-miterlimit:4;stroke-dasharray:none;stroke-dashoffset:0;stroke-opacity:1;filter:url(#filter4569);enable-background:new"/><path style="display:inline;opacity:.2;fill:#000;fill-opacity:1;stroke:none;stroke-width:2;stroke-linecap:round;stroke-linejoin:round;stroke-miterlimit:4;stroke-dasharray:none;stroke-dashoffset:0;stroke-opacity:1;filter:url(#filter958);enable-background:new" id="path956" d="m 188.96876,45.999995 c 72.64865,0 83.03125,10.356615 83.03125,82.937505 v 58.125 c 0,72.58059 -10.3826,82.9375 -83.03125,82.9375 h -73.9375 C 42.382606,270 32.000006,259.64309 32.000006,187.0625 v -58.125 c 0,-72.58089 10.3826,-82.937505 83.031254,-82.937505 z"/></g><g id="layer2" style="display:inline"><path style="opacity:1;fill:url(#linearGradient985);fill-opacity:1;stroke:none;stroke-width:2;stroke-linecap:round;stroke-linejoin:round;stroke-miterlimit:4;stroke-dasharray:none;stroke-dashoffset:0;stroke-opacity:1" id="rect877" d="M 188.96875,44 C 261.6174,44 272,54.356615 272,126.9375 v 58.125 C 272,257.64309 261.6174,268 188.96875,268 h -73.9375 C 42.3826,268 32,257.64309 32,185.0625 v -58.125 C 32,54.356615 42.3826,44 115.03125,44 Z"/><path style="opacity:.1;fill:#fff;fill-opacity:1;stroke:none;stroke-width:2;stroke-linecap:round;stroke-linejoin:round;stroke-miterlimit:4;stroke-dasharray:none;stroke-dashoffset:0;stroke-opacity:1" id="path989" d="M 271.87891 114.91602 L 70.373047 265.03906 C 81.715105 267.30618 96.297431 268 115.03125 268 L 188.96875 268 C 261.6174 268 272 257.64309 272 185.0625 L 272 126.9375 C 272 122.71633 271.9593 118.72646 271.87891 114.91602 z"/><path id="path888" d="M 351.93164,62.5 C 365.55326,62.5 367.5,64.44187 367.5,78.05078 V 89.94922 C 367.5,103.55808 365.55326,105.5 351.93164,105.5 H 336.06836 C 322.44674,105.5 320.5,103.55808 320.5,89.94922 V 78.05078 C 320.5,64.44187 322.44674,62.5 336.06836,62.5 Z" style="opacity:1;fill:url(#linearGradient949);fill-opacity:1;stroke:none;stroke-width:2;stroke-linecap:round;stroke-linejoin:round;stroke-miterlimit:4;stroke-dasharray:none;stroke-dashoffset:0;stroke-opacity:1"/><path id="path942" d="m 341.12109,133.5 c 9.08109,0 10.37891,1.29458 10.37891,10.36719 v 8.26562 c 0,9.07258 -1.29782,10.36719 -10.37891,10.36719 H 330.87891 C 321.79783,162.5 320.5,161.20539 320.5,152.13281 v -8.26562 c 0,-9.07261 1.29783,-10.36719 10.37891,-10.36719 z" style="opacity:1;fill:url(#linearGradient947);fill-opacity:1;stroke:none;stroke-width:2;stroke-linecap:round;stroke-linejoin:round;stroke-miterlimit:4;stroke-dasharray:none;stroke-dashoffset:0;stroke-opacity:1"/><path style="opacity:1;fill:url(#linearGradient943);fill-opacity:1;stroke:none;stroke-width:2;stroke-linecap:round;stroke-linejoin:round;stroke-miterlimit:4;stroke-dasharray:none;stroke-dashoffset:0;stroke-opacity:1" id="path946" d="m 330.31054,236.5 c 4.54055,0 5.18946,0.64729 5.18946,5.18359 v 3.63282 c 0,4.53629 -0.64891,5.18359 -5.18946,5.18359 h -4.62109 c -4.54053,0 -5.18945,-0.6473 -5.18945,-5.18359 v -3.63282 c 0,-4.5363 0.64892,-5.18359 5.18946,-5.18359 z"/><path style="opacity:1;fill:url(#linearGradient945);fill-opacity:1;stroke:none;stroke-width:2;stroke-linecap:round;stroke-linejoin:round;stroke-miterlimit:4;stroke-dasharray:none;stroke-dashoffset:0;stroke-opacity:1" id="path948" d="m 335.71582,189.50031 c 6.81081,10e-6 7.78418,0.97093 7.78418,7.77539 v 5.44891 c 0,6.80444 -0.97337,7.77539 -7.78418,7.77539 h -7.43164 c -6.81081,0 -7.78418,-0.97095 -7.78418,-7.77539 v -5.44892 c 0,-6.80446 0.97337,-7.7754 7.78418,-7.77539 z"/><path style="display:inline;opacity:.1;fill:#fff;fill-opacity:1;stroke:none;stroke-width:.60275584;stroke-linecap:round;stroke-linejoin:round;stroke-miterlimit:4;stroke-dasharray:none;stroke-dashoffset:0;stroke-opacity:1;enable-background:new" id="path954" d="M 370.09552,73.57833 340,96 326.09552,106.35907 h 44 z" clip-path="url(#clipPath981)"/></g><g id="layer6" style="display:inline"><path style="font-style:normal;font-variant:normal;font-weight:400;font-stretch:normal;font-size:15px;line-height:125%;font-family:Ubuntu;-inkscape-font-specification:Ubuntu;text-align:center;letter-spacing:0;word-spacing:0;writing-mode:lr-tb;text-anchor:middle;display:inline;fill:#000;fill-opacity:1;stroke:none;stroke-width:.12499999;enable-background:new;opacity:.1" id="path1038" d="m 328.29102,142.07422 c -0.89356,-0.0114 -1.49265,0.20054 -1.80079,0.57031 C 326.16667,143.02971 326,143.66086 326,144.53906 v 8.69336 l 4.41406,2.76172 2.79883,1.97656 2.79883,-1.97656 9.98828,-7.1875 v -4.26758 c 0,-0.87821 -0.16669,-1.50935 -0.49023,-1.89453 -0.30814,-0.36977 -0.90717,-0.57031 -1.80079,-0.57031 h -1.49218 -9.86719 z"/><path style="font-style:normal;font-variant:normal;font-weight:400;font-stretch:normal;font-size:15px;line-height:125%;font-family:Ubuntu;-inkscape-font-specification:Ubuntu;text-align:center;letter-spacing:0;word-spacing:0;writing-mode:lr-tb;text-anchor:middle;display:inline;fill:#000;fill-opacity:.99607843;stroke:none;stroke-width:.175;enable-background:new;opacity:.1" id="path992" d="m 333.20898,75.027344 c -1.25097,-0.01564 -2.09203,0.281146 -2.52343,0.798828 C 330.23258,76.365424 330,77.249024 330,78.478516 V 82 v 8.144531 0.429688 c 0,1.229497 0.23258,2.115045 0.68555,2.654297 0.4314,0.517682 1.27236,0.783203 2.52343,0.783203 h 2.97071 l 3.91797,2.765625 3.91796,-2.765625 h 10.7754 c 1.25106,0 2.09201,-0.265521 2.52343,-0.783203 C 357.76742,92.689264 358,91.803715 358,90.574219 V 83.392578 82 78.478516 c 0,-1.229494 -0.23258,-2.113092 -0.68555,-2.652344 -0.43139,-0.51768 -1.27237,-0.798828 -2.52343,-0.798828 h -2.0879 -13.81445 z"/><path style="font-style:normal;font-variant:normal;font-weight:400;font-stretch:normal;font-size:15px;line-height:125%;font-family:Ubuntu;-inkscape-font-specification:Ubuntu;text-align:center;letter-spacing:0;word-spacing:0;writing-mode:lr-tb;text-anchor:middle;display:inline;opacity:.2;fill:url(#linearGradient4479);fill-opacity:1;stroke:none;stroke-width:2;filter:url(#filter4482);enable-background:new" id="path4473" d="m 132.66406,147.40039 c -14.29675,-0.17869 -23.90367,3.03093 -28.83398,8.94727 C 98.6533,162.51055 96,172.62248 96,186.67383 v 123.18945 4.92969 c 0,14.05139 2.6533,24.16133 7.83008,30.32422 4.93031,5.91635 14.53612,8.94922 28.83398,8.94922 h 33.95703 l 44.78321,31.61132 44.7832,-31.61132 h 123.14844 c 14.29779,0 23.90344,-3.03287 28.83398,-8.94922 C 413.3467,338.9543 416,328.84436 416,314.79297 V 238.9043 186.67383 c 0,-14.05135 -2.6533,-24.16328 -7.83008,-30.32617 -4.9302,-5.91634 -14.53619,-8.94727 -28.83398,-8.94727 H 355.47266 197.58594 Z" transform="matrix(0.5,0,0,0.5,24,28)"/><path id="path4494" d="m 132.66406,147.40039 c -14.29675,-0.17869 -23.90367,3.03093 -28.83398,8.94727 C 98.6533,162.51055 96,172.62248 96,186.67383 v 123.18945 4.92969 c 0,14.05139 2.6533,24.16133 7.83008,30.32422 4.93031,5.91635 14.53612,8.94922 28.83398,8.94922 h 33.95703 l 44.78321,31.61132 44.7832,-31.61132 h 123.14844 c 14.29779,0 23.90344,-3.03287 28.83398,-8.94922 C 413.3467,338.9543 416,328.84436 416,314.79297 V 238.9043 186.67383 c 0,-14.05135 -2.6533,-24.16328 -7.83008,-30.32617 -4.9302,-5.91634 -14.53619,-8.94727 -28.83398,-8.94727 H 355.47266 197.58594 Z" transform="matrix(0.5,0,0,0.5,24,28)" style="font-style:normal;font-variant:normal;font-weight:400;font-stretch:normal;font-size:15px;line-height:125%;font-family:Ubuntu;-inkscape-font-specification:Ubuntu;text-align:center;letter-spacing:0;word-spacing:0;writing-mode:lr-tb;text-anchor:middle;display:inline;opacity:.1;fill:#000;fill-opacity:1;stroke:none;stroke-width:2;filter:url(#filter4500);enable-background:new"/><path style="font-style:normal;font-variant:normal;font-weight:400;font-stretch:normal;font-size:15px;line-height:125%;font-family:Ubuntu;-inkscape-font-specification:Ubuntu;text-align:center;letter-spacing:0;word-spacing:0;writing-mode:lr-tb;text-anchor:middle;display:inline;fill:url(#linearGradient4143);fill-opacity:1;stroke:none;stroke-width:1;enable-background:new" id="path1634" d="m 72,132 v 52.39648 c 0,7.0257 1.325672,12.08067 3.914062,15.16211 2.465155,2.95818 7.269039,4.47461 14.417969,4.47461 h 16.978519 l 22.39062,15.80664 22.39258,-15.80664 h 61.57422 c 7.1489,0 11.95269,-1.51643 14.41797,-4.47461 C 230.67432,196.47715 232,191.42217 232,184.39648 V 132 Z"/><path style="font-style:normal;font-variant:normal;font-weight:400;font-stretch:normal;font-size:15px;line-height:125%;font-family:Ubuntu;-inkscape-font-specification:Ubuntu;text-align:center;letter-spacing:0;word-spacing:0;writing-mode:lr-tb;text-anchor:middle;display:inline;fill:url(#linearGradient4134);fill-opacity:1;stroke:none;stroke-width:1;enable-background:new" id="path4163" d="M 90.331975,100 C 83.1836,99.91066 78.380115,101.59758 75.91496,104.55576 73.32657,107.6372 72,112.69281 72,119.71848 v 62.21326 l 35.31042,22.10157 22.39148,15.80573 22.39142,-15.80573 h 4e-5 L 232,143.35824 v -23.63976 c 0,-7.02568 -1.32646,-12.08128 -3.91485,-15.16272 C 225.62005,101.59759 220.81702,100 213.66812,100 H 201.7368 122.79317 Z"/><path style="display:inline;opacity:1;fill:#fbc58c;fill-opacity:1;stroke-width:1;enable-background:new" id="path4227" d="m 104,132 v 8 h 96 v -8 z"/><path style="font-style:normal;font-variant:normal;font-weight:400;font-stretch:normal;font-size:15px;line-height:125%;font-family:Ubuntu;-inkscape-font-specification:Ubuntu;text-align:center;letter-spacing:0;word-spacing:0;writing-mode:lr-tb;text-anchor:middle;display:inline;opacity:.1;fill:url(#linearGradient4164);fill-opacity:1;stroke:none;stroke-width:1;enable-background:new" id="path4175" d="m 232,143.35824 -79.90664,60.67507 h 61.57476 c 7.1489,0 11.95176,-1.51608 14.41703,-4.47426 C 230.67354,196.47761 232,191.42202 232,184.39633 Z"/><path style="font-style:normal;font-variant:normal;font-weight:400;font-stretch:normal;font-size:15px;line-height:125%;font-family:Ubuntu;-inkscape-font-specification:Ubuntu;text-align:center;letter-spacing:0;word-spacing:0;writing-mode:lr-tb;text-anchor:middle;display:inline;opacity:.1;fill:url(#linearGradient4177);fill-opacity:1;stroke:none;stroke-width:1;enable-background:new" id="path4171" d="m 72,181.93174 v 2.46459 c 0,7.02569 1.32657,12.08128 3.91496,15.16272 2.465155,2.95818 7.317174,5.3106 14.417015,4.47426 h 16.978445 z"/><path id="path975" d="m 104,156 v 8 h 48 v -8 z" style="display:inline;opacity:1;fill:#fbc58c;fill-opacity:1;stroke-width:1;enable-background:new"/><path style="font-style:normal;font-variant:normal;font-weight:400;font-stretch:normal;font-size:15px;line-height:125%;font-family:Ubuntu;-inkscape-font-specification:Ubuntu;text-align:center;letter-spacing:0;word-spacing:0;writing-mode:lr-tb;text-anchor:middle;display:inline;fill:#fff;fill-opacity:1;stroke:none;stroke-width:1;enable-background:new" id="path1008" d="M 90.332031,100 C 83.183656,99.91066 78.379218,101.59846 75.914062,104.55664 73.325673,107.63808 72,112.69308 72,119.71875 v 2 c 0,-7.02567 1.325673,-12.08067 3.914062,-15.16211 2.465156,-2.95818 7.269594,-4.64598 14.417969,-4.55664 h 32.460939 78.94336 11.93164 c 7.1489,0 11.95287,1.59847 14.41797,4.55664 2.58839,3.08144 3.91406,8.13643 3.91406,15.16211 v -2 c 0,-7.02568 -1.32567,-12.08067 -3.91406,-15.16211 C 225.62084,101.59847 220.81687,100 213.66797,100 h -11.93164 -78.94336 z"/><path id="path923" d="m 330,81 v 8.575085 c 0,1.229497 0.23199,2.114117 0.68496,2.653369 0.4314,0.517682 1.27208,0.783057 2.52315,0.783057 h 2.97124 l 3.91835,2.766162 3.91871,-2.766162 h 10.77548 c 1.25106,0 2.09173,-0.265375 2.52315,-0.783057 C 357.76801,91.689202 358,90.804581 358,89.575085 V 81 Z" style="font-style:normal;font-variant:normal;font-weight:400;font-stretch:normal;font-size:15px;line-height:125%;font-family:Ubuntu;-inkscape-font-specification:Ubuntu;text-align:center;letter-spacing:0;word-spacing:0;writing-mode:lr-tb;text-anchor:middle;display:inline;fill:url(#linearGradient931);fill-opacity:1;stroke:none;stroke-width:.175;enable-background:new"/><path id="path925" d="m 333.2081,74.027974 c -1.25097,-0.01564 -2.09158,0.279576 -2.52298,0.797258 C 330.23215,75.364484 330,76.249216 330,77.478708 v 11.665047 l 6.17932,3.867775 3.91851,2.766003 3.9185,-2.766003 h 1e-5 L 358,82.393393 v -4.914685 c 0,-1.229494 -0.23213,-2.114224 -0.6851,-2.653476 -0.43139,-0.51768 -1.27192,-0.797258 -2.52298,-0.797258 h -2.08798 -13.81514 z" style="font-style:normal;font-variant:normal;font-weight:400;font-stretch:normal;font-size:15px;line-height:125%;font-family:Ubuntu;-inkscape-font-specification:Ubuntu;text-align:center;letter-spacing:0;word-spacing:0;writing-mode:lr-tb;text-anchor:middle;display:inline;fill:url(#linearGradient933);fill-opacity:1;stroke:none;stroke-width:.175;enable-background:new"/><path style="display:inline;opacity:1;fill:#fbc58c;fill-opacity:1;stroke-width:.125;enable-background:new" id="path4227-3" d="m 335,80 v 1 h 18 v -1 z"/><path id="path952" d="m 335,83 v 1 h 8 v -1 z" style="display:inline;opacity:1;fill:#fbc58c;fill-opacity:1;stroke-width:.125;enable-background:new"/><g id="g1020"><path id="path999" d="m 324.95108,199.00894 v 4.28754 c 0,0.61475 0.11599,1.05706 0.34248,1.32669 0.2157,0.25884 0.63604,0.39153 1.26157,0.39153 h 1.48562 l 1.95918,1.38308 1.95935,-1.38308 h 5.38774 c 0.62553,0 1.04587,-0.13269 1.26158,-0.39153 0.22648,-0.26963 0.34248,-0.71194 0.34248,-1.32669 v -4.28754 z" style="font-style:normal;font-variant:normal;font-weight:400;font-stretch:normal;font-size:15px;line-height:125%;font-family:Ubuntu;-inkscape-font-specification:Ubuntu;text-align:center;letter-spacing:0;word-spacing:0;writing-mode:lr-tb;text-anchor:middle;display:inline;fill:url(#linearGradient1007);fill-opacity:1;stroke:none;stroke-width:.0875;enable-background:new"/><path id="path1001" d="m 326.55513,194.99259 c -0.62549,-0.008 -1.04579,0.13979 -1.26149,0.39863 -0.22649,0.26963 -0.34256,0.712 -0.34256,1.32674 v 6.36286 l 3.08966,1.93388 1.95926,1.38301 1.95924,-1.38301 h 10e-6 l 6.99183,-5.30906 v -2.98768 c 0,-0.61475 -0.11607,-1.05711 -0.34255,-1.32674 -0.2157,-0.25884 -0.63596,-0.39863 -1.26149,-0.39863 h -1.04399 -6.90757 z" style="font-style:normal;font-variant:normal;font-weight:400;font-stretch:normal;font-size:15px;line-height:125%;font-family:Ubuntu;-inkscape-font-specification:Ubuntu;text-align:center;letter-spacing:0;word-spacing:0;writing-mode:lr-tb;text-anchor:middle;display:inline;fill:url(#linearGradient1009);fill-opacity:1;stroke:none;stroke-width:.0875;enable-background:new"/></g><path id="path1022" d="m 326,146.81225 v 5.72731 c 0,0.87821 0.1657,1.51008 0.48926,1.89527 0.30814,0.36977 0.90862,0.55933 1.80224,0.55933 h 2.12231 l 2.79883,1.97583 2.79907,-1.97583 h 7.69677 c 0.89362,0 1.4941,-0.18956 1.80226,-0.55933 C 345.83428,154.04964 346,153.41777 346,152.53956 v -5.72731 z" style="font-style:normal;font-variant:normal;font-weight:400;font-stretch:normal;font-size:15px;line-height:125%;font-family:Ubuntu;-inkscape-font-specification:Ubuntu;text-align:center;letter-spacing:0;word-spacing:0;writing-mode:lr-tb;text-anchor:middle;display:inline;fill:url(#linearGradient1028);fill-opacity:1;stroke:none;stroke-width:.12499999;enable-background:new"/><path id="path1024" d="m 328.2915,141.07461 c -0.89356,-0.0114 -1.49399,0.1997 -1.80213,0.56947 C 326.16581,142.02926 326,142.66122 326,143.53942 v 8.69205 l 4.4138,2.76269 2.79894,1.97573 2.79892,-1.97573 h 10e-6 L 346,147.80754 v -4.26812 c 0,-0.87821 -0.16582,-1.51016 -0.48936,-1.89534 -0.30814,-0.36977 -0.90851,-0.56947 -1.80213,-0.56947 h -1.49141 -9.86796 z" style="font-style:normal;font-variant:normal;font-weight:400;font-stretch:normal;font-size:15px;line-height:125%;font-family:Ubuntu;-inkscape-font-specification:Ubuntu;text-align:center;letter-spacing:0;word-spacing:0;writing-mode:lr-tb;text-anchor:middle;display:inline;fill:url(#linearGradient1030);fill-opacity:1;stroke:none;stroke-width:.12499999;enable-background:new"/><path id="path1034" d="m 330,145 v 1 h 12 v -1 z" style="display:inline;opacity:1;fill:#fbc58c;fill-opacity:1;stroke-width:.125;enable-background:new"/><path style="display:inline;opacity:1;fill:#fbc58c;fill-opacity:1;stroke-width:.125;enable-background:new" id="path1036" d="m 330,148 v 1 h 6 v -1 z"/><g id="g1047" transform="matrix(0.71428571,0,0,0.71428571,90.843166,100.97079)"><path style="font-style:normal;font-variant:normal;font-weight:400;font-stretch:normal;font-size:15px;line-height:125%;font-family:Ubuntu;-inkscape-font-specification:Ubuntu;text-align:center;letter-spacing:0;word-spacing:0;writing-mode:lr-tb;text-anchor:middle;display:inline;fill:url(#linearGradient1049);fill-opacity:1;stroke:none;stroke-width:.0875;enable-background:new" id="path1043" d="m 324.95108,199.00894 v 4.28754 c 0,0.61475 0.11599,1.05706 0.34248,1.32669 0.2157,0.25884 0.63604,0.39153 1.26157,0.39153 h 1.48562 l 1.95918,1.38308 1.95935,-1.38308 h 5.38774 c 0.62553,0 1.04587,-0.13269 1.26158,-0.39153 0.22648,-0.26963 0.34248,-0.71194 0.34248,-1.32669 v -4.28754 z"/><path style="font-style:normal;font-variant:normal;font-weight:400;font-stretch:normal;font-size:15px;line-height:125%;font-family:Ubuntu;-inkscape-font-specification:Ubuntu;text-align:center;letter-spacing:0;word-spacing:0;writing-mode:lr-tb;text-anchor:middle;display:inline;fill:url(#linearGradient1051);fill-opacity:1;stroke:none;stroke-width:.0875;enable-background:new" id="path1045" d="m 326.55513,194.99259 c -0.62549,-0.008 -1.04579,0.13979 -1.26149,0.39863 -0.22649,0.26963 -0.34256,0.712 -0.34256,1.32674 v 6.36286 l 3.08966,1.93388 1.95926,1.38301 1.95924,-1.38301 h 10e-6 l 6.99183,-5.30906 v -2.98768 c 0,-0.61475 -0.11607,-1.05711 -0.34255,-1.32674 -0.2157,-0.25884 -0.63596,-0.39863 -1.26149,-0.39863 h -1.04399 -6.90757 z"/></g></g><g id="layer5" style="display:inline"><path style="display:inline;opacity:.4;fill:none;fill-opacity:1;stroke:#000;stroke-width:1;stroke-linecap:round;stroke-linejoin:round;stroke-miterlimit:4;stroke-dasharray:none;stroke-dashoffset:0;stroke-opacity:1;enable-background:new" id="path950" d="m 341.12109,133.5 c 9.08109,0 10.37891,1.29458 10.37891,10.36719 v 8.26562 c 0,9.07258 -1.29782,10.36719 -10.37891,10.36719 H 330.87891 C 321.79783,162.5 320.5,161.20539 320.5,152.13281 v -8.26562 c 0,-9.07261 1.29783,-10.36719 10.37891,-10.36719 z"/><path style="display:inline;opacity:.4;fill:none;fill-opacity:1;stroke:#000;stroke-width:1;stroke-linecap:round;stroke-linejoin:round;stroke-miterlimit:4;stroke-dasharray:none;stroke-dashoffset:0;stroke-opacity:1;enable-background:new" id="path892" d="M 351.93164,62.5 C 365.55326,62.5 367.5,64.44187 367.5,78.05078 V 89.94922 C 367.5,103.55808 365.55326,105.5 351.93164,105.5 H 336.06836 C 322.44674,105.5 320.5,103.55808 320.5,89.94922 V 78.05078 C 320.5,64.44187 322.44674,62.5 336.06836,62.5 Z"/><path id="path970" d="m 335.71582,189.50031 c 6.81081,10e-6 7.78418,0.97093 7.78418,7.77539 v 5.44891 c 0,6.80444 -0.97337,7.77539 -7.78418,7.77539 h -7.43164 c -6.81081,0 -7.78418,-0.97095 -7.78418,-7.77539 v -5.44892 c 0,-6.80446 0.97337,-7.7754 7.78418,-7.77539 z" style="display:inline;opacity:.4;fill:none;fill-opacity:1;stroke:#000;stroke-width:1;stroke-linecap:round;stroke-linejoin:round;stroke-miterlimit:4;stroke-dasharray:none;stroke-dashoffset:0;stroke-opacity:1;enable-background:new"/><path id="path1025" d="m 330.31054,236.5 c 4.54055,0 5.18946,0.64729 5.18946,5.18359 v 3.63282 c 0,4.53629 -0.64891,5.18359 -5.18946,5.18359 h -4.62109 c -4.54053,0 -5.18945,-0.6473 -5.18945,-5.18359 v -3.63282 c 0,-4.5363 0.64892,-5.18359 5.18946,-5.18359 z" style="display:inline;opacity:.4;fill:none;fill-opacity:1;stroke:#000;stroke-width:1;stroke-linecap:round;stroke-linejoin:round;stroke-miterlimit:4;stroke-dasharray:none;stroke-dashoffset:0;stroke-opacity:1;enable-background:new"/></g><g id="layer3" style="display:inline"><path style="color:#000;font-style:normal;font-variant:normal;font-weight:400;font-stretch:normal;font-size:medium;line-height:normal;font-family:sans-serif;font-variant-ligatures:normal;font-variant-position:normal;font-variant-caps:normal;font-variant-numeric:normal;font-variant-alternates:normal;font-feature-settings:normal;text-indent:0;text-align:start;text-decoration:none;text-decoration-line:none;text-decoration-style:solid;text-decoration-color:#000;letter-spacing:normal;word-spacing:normal;text-transform:none;writing-mode:lr-tb;direction:ltr;text-orientation:mixed;dominant-baseline:auto;baseline-shift:baseline;text-anchor:start;white-space:normal;shape-padding:0;clip-rule:nonzero;display:inline;overflow:visible;visibility:visible;opacity:.5;isolation:auto;mix-blend-mode:normal;color-interpolation:sRGB;color-interpolation-filters:linearRGB;solid-color:#000;solid-opacity:1;vector-effect:none;fill:none;fill-opacity:1;fill-rule:nonzero;stroke:url(#linearGradient929);stroke-width:1;stroke-linecap:round;stroke-linejoin:round;stroke-miterlimit:4;stroke-dasharray:none;stroke-dashoffset:0;stroke-opacity:1;color-rendering:auto;image-rendering:auto;shape-rendering:auto;text-rendering:auto;enable-background:accumulate" id="path911" d="m 351.93164,63.5 h -15.86328 c -6.76329,0 -10.36307,0.55877 -12.18555,2.37891 -1.82247,1.82013 -2.38281,5.4151 -2.38281,12.17187 v 11.89844 c 0,6.75675 0.56034,10.35173 2.38281,12.17187 1.82248,1.82015 5.42226,2.37891 12.18555,2.37891 h 15.86328 c 6.76329,0 10.36307,-0.55876 12.18555,-2.37891 C 365.93966,100.30095 366.5,96.70597 366.5,89.94922 V 78.05078 c 0,-6.75677 -0.56034,-10.35174 -2.38281,-12.17187 C 362.29471,64.05877 358.69493,63.5 351.93164,63.5 Z"/><path style="color:#000;font-style:normal;font-variant:normal;font-weight:400;font-stretch:normal;font-size:medium;line-height:normal;font-family:sans-serif;font-variant-ligatures:normal;font-variant-position:normal;font-variant-caps:normal;font-variant-numeric:normal;font-variant-alternates:normal;font-feature-settings:normal;text-indent:0;text-align:start;text-decoration:none;text-decoration-line:none;text-decoration-style:solid;text-decoration-color:#000;letter-spacing:normal;word-spacing:normal;text-transform:none;writing-mode:lr-tb;direction:ltr;text-orientation:mixed;dominant-baseline:auto;baseline-shift:baseline;text-anchor:start;white-space:normal;shape-padding:0;clip-rule:nonzero;display:inline;overflow:visible;visibility:visible;opacity:.5;isolation:auto;mix-blend-mode:normal;color-interpolation:sRGB;color-interpolation-filters:linearRGB;solid-color:#000;solid-opacity:1;vector-effect:none;fill:none;fill-opacity:1;fill-rule:nonzero;stroke:url(#linearGradient965);stroke-width:1;stroke-linecap:round;stroke-linejoin:round;stroke-miterlimit:4;stroke-dasharray:none;stroke-dashoffset:0;stroke-opacity:1;color-rendering:auto;image-rendering:auto;shape-rendering:auto;text-rendering:auto;enable-background:accumulate" id="path955" d="m 341.12109,134.5 h -10.24218 c -4.49302,0 -6.796,0.397 -7.88868,1.48828 -1.09267,1.09128 -1.49023,3.39029 -1.49023,7.87891 v 8.26562 c 0,4.48861 0.39755,6.78763 1.49023,7.87891 1.09268,1.09128 3.39566,1.48828 7.88868,1.48828 h 10.24218 c 4.49303,0 6.796,-0.397 7.88868,-1.48828 1.09268,-1.09128 1.49023,-3.3903 1.49023,-7.87891 v -8.26562 c 0,-4.48862 -0.39756,-6.78763 -1.49023,-7.87891 C 347.91709,134.897 345.61412,134.5 341.12109,134.5 Z"/><path style="color:#000;font-style:normal;font-variant:normal;font-weight:400;font-stretch:normal;font-size:medium;line-height:normal;font-family:sans-serif;font-variant-ligatures:normal;font-variant-position:normal;font-variant-caps:normal;font-variant-numeric:normal;font-variant-alternates:normal;font-feature-settings:normal;text-indent:0;text-align:start;text-decoration:none;text-decoration-line:none;text-decoration-style:solid;text-decoration-color:#000;letter-spacing:normal;word-spacing:normal;text-transform:none;writing-mode:lr-tb;direction:ltr;text-orientation:mixed;dominant-baseline:auto;baseline-shift:baseline;text-anchor:start;white-space:normal;shape-padding:0;clip-rule:nonzero;display:inline;overflow:visible;visibility:visible;opacity:.5;isolation:auto;mix-blend-mode:normal;color-interpolation:sRGB;color-interpolation-filters:linearRGB;solid-color:#000;solid-opacity:1;vector-effect:none;fill:none;fill-opacity:1;fill-rule:nonzero;stroke:url(#linearGradient1006);stroke-width:1;stroke-linecap:round;stroke-linejoin:round;stroke-miterlimit:4;stroke-dasharray:none;stroke-dashoffset:0;stroke-opacity:1;color-rendering:auto;image-rendering:auto;shape-rendering:auto;text-rendering:auto;enable-background:accumulate" id="path974" d="m 335.71484,190.5 h -7.43164 c -3.35788,0 -5.0105,0.31612 -5.73828,1.04297 -0.72778,0.72685 -1.04492,2.37787 -1.04492,5.73242 v 5.44922 c 0,3.35454 0.31714,5.00557 1.04492,5.73242 0.72778,0.72685 2.38235,1.04297 5.74024,1.04297 h 7.42968 c 3.35789,0 5.01246,-0.31612 5.74024,-1.04297 0.72778,-0.72685 1.04492,-2.37788 1.04492,-5.73242 v -5.44922 c 0,-3.35455 -0.31714,-5.00558 -1.04492,-5.73242 C 340.7273,190.81612 339.07273,190.5 335.71484,190.5 Z"/><path style="color:#000;font-style:normal;font-variant:normal;font-weight:400;font-stretch:normal;font-size:medium;line-height:normal;font-family:sans-serif;font-variant-ligatures:normal;font-variant-position:normal;font-variant-caps:normal;font-variant-numeric:normal;font-variant-alternates:normal;font-feature-settings:normal;text-indent:0;text-align:start;text-decoration:none;text-decoration-line:none;text-decoration-style:solid;text-decoration-color:#000;letter-spacing:normal;word-spacing:normal;text-transform:none;writing-mode:lr-tb;direction:ltr;text-orientation:mixed;dominant-baseline:auto;baseline-shift:baseline;text-anchor:start;white-space:normal;shape-padding:0;clip-rule:nonzero;display:inline;overflow:visible;visibility:visible;opacity:.5;isolation:auto;mix-blend-mode:normal;color-interpolation:sRGB;color-interpolation-filters:linearRGB;solid-color:#000;solid-opacity:1;vector-effect:none;fill:none;fill-opacity:1;fill-rule:nonzero;stroke:url(#linearGradient1045);stroke-width:1;stroke-linecap:round;stroke-linejoin:round;stroke-miterlimit:4;stroke-dasharray:none;stroke-dashoffset:0;stroke-opacity:1;color-rendering:auto;image-rendering:auto;shape-rendering:auto;text-rendering:auto;enable-background:accumulate" id="path1035" d="m 325.68945,237.5 h 4.6211 c 2.22275,0 3.22696,0.23524 3.58984,0.59766 0.36288,0.36241 0.59961,1.36547 0.59961,3.58593 v 3.63282 c 0,2.22046 -0.23673,3.22352 -0.59961,3.58593 -0.36288,0.36242 -1.36709,0.59766 -3.58984,0.59766 h -4.6211 c -2.22274,0 -3.22696,-0.23524 -3.58984,-0.59766 -0.36288,-0.36242 -0.59961,-1.36547 -0.59961,-3.58593 v -3.63282 c 0,-2.22046 0.23673,-3.22352 0.59961,-3.58593 0.36288,-0.36242 1.36709,-0.59766 3.58984,-0.59766 z"/><path id="path1068-5" d="M 361.9375,-212 C 507.2348,-212 528,-191.28677 528,-46.125 V 70.125 C 528,215.28618 507.2348,236 361.9375,236 H 214.0625 C 68.7652,236 48,215.28618 48,70.125 V -46.125 C 48,-191.28677 68.7652,-212 214.0625,-212 Z" clip-path="url(#clipPath1082-3)" transform="matrix(0.5,0,0,0.5,8,150)" style="display:inline;opacity:.6;fill:none;fill-opacity:1;stroke:url(#linearGradient1108-7);stroke-width:8;stroke-linecap:round;stroke-linejoin:round;stroke-miterlimit:4;stroke-dasharray:none;stroke-dashoffset:0;stroke-opacity:1;enable-background:new"/></g></g></svg>