<svg xmlns="http://www.w3.org/2000/svg" xmlns:svg="http://www.w3.org/2000/svg" xmlns:xlink="http://www.w3.org/1999/xlink" id="svg11300" width="400" height="300" version="1.0" style="display:inline;enable-background:new"><title id="title3004">Suru Icon Theme Template</title><defs id="defs3"><linearGradient id="linearGradient927"><stop style="stop-color:#fff;stop-opacity:1" id="stop923" offset="0"/><stop id="stop933" offset=".125" style="stop-color:#fff;stop-opacity:.09803922"/><stop id="stop931" offset=".925" style="stop-color:#fff;stop-opacity:.09803922"/><stop style="stop-color:#fff;stop-opacity:.49803922" id="stop925" offset="1"/></linearGradient><linearGradient id="linearGradient929" x1="168" x2="168" y1="239" y2="279" gradientTransform="matrix(-1,0,0,1,512,-175)" gradientUnits="userSpaceOnUse" xlink:href="#linearGradient927"/><linearGradient id="linearGradient965" x1="112" x2="112" y1="255" y2="281" gradientTransform="matrix(-1,0,0,1,448,-120)" gradientUnits="userSpaceOnUse" xlink:href="#linearGradient927"/><linearGradient id="linearGradient1006" x1="64" x2="64" y1="263" y2="281" gradientTransform="matrix(-1,0,0,1,396,-72)" gradientUnits="userSpaceOnUse" xlink:href="#linearGradient927"/><linearGradient id="linearGradient1045" x1="760" x2="760" y1="254" y2="265" gradientTransform="translate(-432,-16)" gradientUnits="userSpaceOnUse" xlink:href="#linearGradient927"/><clipPath id="clipPath1082" clipPathUnits="userSpaceOnUse"><path id="path1084" d="M 361.9375,-212 C 507.2348,-212 528,-191.28677 528,-46.125 V 70.125 C 528,215.28618 507.2348,236 361.9375,236 H 214.0625 C 68.7652,236 48,215.28618 48,70.125 V -46.125 C 48,-191.28677 68.7652,-212 214.0625,-212 Z" style="display:inline;opacity:1;fill:#8c59d9;fill-opacity:1;stroke:none;stroke-width:2;stroke-linecap:round;stroke-linejoin:round;stroke-miterlimit:4;stroke-dasharray:none;stroke-dashoffset:0;stroke-opacity:1;enable-background:new"/></clipPath><filter style="color-interpolation-filters:sRGB" id="filter4569" width="1.023" height="1.025" x="-.012" y="-.012"><feGaussianBlur id="feGaussianBlur4571" stdDeviation="1.16"/></filter><linearGradient id="linearGradient3797-5"><stop id="stop3801" offset="0" style="stop-color:#f7f7f7;stop-opacity:1"/><stop id="stop3799" offset="1" style="stop-color:#e6e6e6;stop-opacity:1"/></linearGradient><linearGradient id="linearGradient3822"><stop style="stop-color:#e3dfd5;stop-opacity:1" id="stop3824" offset="0"/><stop style="stop-color:#f1f0e9;stop-opacity:1" id="stop3826" offset="1"/></linearGradient><linearGradient id="linearGradient3838"><stop style="stop-color:#f34f17;stop-opacity:1" id="stop3840" offset="0"/><stop style="stop-color:#fda463;stop-opacity:1" id="stop3842" offset="1"/></linearGradient><linearGradient id="linearGradient3838-0"><stop style="stop-color:#d6d4cf;stop-opacity:1" id="stop3840-4" offset="0"/><stop style="stop-color:#fbfaf9;stop-opacity:1" id="stop3842-9" offset="1"/></linearGradient><linearGradient id="linearGradient5267"><stop style="stop-color:#aea795;stop-opacity:1" id="stop5269" offset="0"/><stop style="stop-color:#c8c4b7;stop-opacity:1" id="stop5271" offset="1"/></linearGradient><linearGradient id="linearGradient4259"><stop style="stop-color:#000;stop-opacity:.15584415" id="stop4261" offset="0"/><stop id="stop4267" offset=".736" style="stop-color:#000;stop-opacity:.5151515"/><stop style="stop-color:#000;stop-opacity:1" id="stop4263" offset="1"/></linearGradient><linearGradient id="linearGradient4449-7"><stop style="stop-color:#aba699;stop-opacity:1" id="stop4451-1" offset="0"/><stop style="stop-color:#bcb8ad;stop-opacity:1" id="stop4453-3" offset="1"/></linearGradient><linearGradient id="linearGradient2059" x1="168" x2="168" y1="284" y2="28" gradientUnits="userSpaceOnUse" xlink:href="#linearGradient3797-5"/><linearGradient id="linearGradient2271" x1="332" x2="332" y1="252" y2="236" gradientUnits="userSpaceOnUse" xlink:href="#linearGradient3797-5"/><linearGradient id="linearGradient2273" x1="332" x2="332" y1="212" y2="188" gradientUnits="userSpaceOnUse" xlink:href="#linearGradient3797-5"/><linearGradient id="linearGradient2275" x1="344" x2="344" y1="164" y2="132" gradientUnits="userSpaceOnUse" xlink:href="#linearGradient3797-5"/><linearGradient id="linearGradient2277" x1="360" x2="360" y1="108" y2="60" gradientUnits="userSpaceOnUse" xlink:href="#linearGradient3797-5"/><filter style="color-interpolation-filters:sRGB" id="filter1132" width="1.046" height="1.05" x="-.023" y="-.025"><feGaussianBlur id="feGaussianBlur1134" stdDeviation="2.32"/></filter><linearGradient id="linearGradient1108" x1="296" x2="296" y1="-212" y2="236" gradientUnits="userSpaceOnUse" xlink:href="#linearGradient1013"/><linearGradient id="linearGradient1013"><stop id="stop1005" offset="0" style="stop-color:#fff;stop-opacity:1"/><stop style="stop-color:#fff;stop-opacity:.09803922" id="stop1007" offset=".125"/><stop style="stop-color:#000;stop-opacity:0" id="stop1009" offset=".925"/><stop id="stop1011" offset="1" style="stop-color:#000;stop-opacity:0"/></linearGradient><clipPath id="clipPath1082-3" clipPathUnits="userSpaceOnUse"><path id="path1084-6" d="M 361.9375,-212 C 507.2348,-212 528,-191.28677 528,-46.125 V 70.125 C 528,215.28618 507.2348,236 361.9375,236 H 214.0625 C 68.7652,236 48,215.28618 48,70.125 V -46.125 C 48,-191.28677 68.7652,-212 214.0625,-212 Z" style="display:inline;opacity:1;fill:#8c59d9;fill-opacity:1;stroke:none;stroke-width:2;stroke-linecap:round;stroke-linejoin:round;stroke-miterlimit:4;stroke-dasharray:none;stroke-dashoffset:0;stroke-opacity:1;enable-background:new"/></clipPath></defs><metadata id="metadata4"/><g style="display:inline" id="layer1"><g style="display:none" id="layer7"><text style="font-style:normal;font-variant:normal;font-weight:400;font-stretch:normal;line-height:0%;font-family:'DejaVu Sans';-inkscape-font-specification:'DejaVu Sans';display:inline;fill:#000;fill-opacity:1;stroke:none;enable-background:new" id="context" x="19.007" y="-8.255" xml:space="preserve"><tspan style="font-style:normal;font-variant:normal;font-weight:400;font-stretch:normal;font-size:18px;line-height:1.25;font-family:'DejaVu Sans';-inkscape-font-specification:'DejaVu Sans'" id="tspan3933" x="19.007" y="-8.255">apps</tspan></text><text style="font-style:normal;font-variant:normal;font-weight:700;font-stretch:normal;line-height:0%;font-family:'DejaVu Sans';-inkscape-font-specification:'DejaVu Sans Bold';text-align:start;writing-mode:lr-tb;text-anchor:start;display:inline;fill:#000;fill-opacity:1;stroke:none;enable-background:new" id="icon-name" x="146.488" y="-8.255" xml:space="preserve"><tspan style="font-style:normal;font-variant:normal;font-weight:700;font-stretch:normal;font-size:18px;line-height:1.25;font-family:'DejaVu Sans';-inkscape-font-specification:'DejaVu Sans Bold'" id="tspan3937" x="146.488" y="-8.255">power-statistics</tspan></text><rect style="display:inline;overflow:visible;visibility:visible;fill:#cdcdcd;fill-opacity:1;fill-rule:nonzero;stroke:none;stroke-width:2;marker:none;enable-background:accumulate" id="rect16x16" width="16" height="16" x="320" y="236"/><rect style="display:inline;overflow:visible;visibility:visible;fill:#cdcdcd;fill-opacity:1;fill-rule:nonzero;stroke:none;stroke-width:2;marker:none;enable-background:accumulate" id="rect24x24" width="24" height="24" x="320" y="188"/><rect style="display:inline;overflow:visible;visibility:visible;fill:#cdcdcd;fill-opacity:1;fill-rule:nonzero;stroke:none;stroke-width:2;marker:none;enable-background:accumulate" id="rect32x32" width="32" height="32" x="320" y="132"/><rect id="rect48x48" width="48" height="48" x="320" y="60" style="display:inline;overflow:visible;visibility:visible;fill:#cdcdcd;fill-opacity:1;fill-rule:nonzero;stroke:none;stroke-width:2;marker:none;enable-background:accumulate"/><rect style="display:inline;overflow:visible;visibility:visible;fill:#cdcdcd;fill-opacity:1;fill-rule:nonzero;stroke:none;stroke-width:2;marker:none;enable-background:accumulate" id="rect3951" width="256" height="256" x="24" y="28"/></g><g id="layer4" style="display:inline"><path id="path1143" d="M 188.96875,44 C 261.6174,44 272,54.356615 272,126.9375 v 58.125 C 272,257.64309 261.6174,268 188.96875,268 h -73.9375 C 42.3826,268 32,257.64309 32,185.0625 v -58.125 C 32,54.356615 42.3826,44 115.03125,44 Z" style="display:inline;opacity:.1;fill:none;fill-opacity:1;stroke:#000;stroke-width:4;stroke-linecap:round;stroke-linejoin:round;stroke-miterlimit:4;stroke-dasharray:none;stroke-dashoffset:0;stroke-opacity:1;enable-background:new"/><path style="color:#000;font-style:normal;font-variant:normal;font-weight:400;font-stretch:normal;font-size:medium;line-height:normal;font-family:sans-serif;font-variant-ligatures:normal;font-variant-position:normal;font-variant-caps:normal;font-variant-numeric:normal;font-variant-alternates:normal;font-feature-settings:normal;text-indent:0;text-align:start;text-decoration:none;text-decoration-line:none;text-decoration-style:solid;text-decoration-color:#000;letter-spacing:normal;word-spacing:normal;text-transform:none;writing-mode:lr-tb;direction:ltr;text-orientation:mixed;dominant-baseline:auto;baseline-shift:baseline;text-anchor:start;white-space:normal;shape-padding:0;clip-rule:nonzero;display:inline;overflow:visible;visibility:visible;opacity:.2;isolation:auto;mix-blend-mode:normal;color-interpolation:sRGB;color-interpolation-filters:linearRGB;solid-color:#000;solid-opacity:1;vector-effect:none;fill:#000;fill-opacity:1;fill-rule:nonzero;stroke:none;stroke-width:1;stroke-linecap:round;stroke-linejoin:round;stroke-miterlimit:4;stroke-dasharray:none;stroke-dashoffset:0;stroke-opacity:1;color-rendering:auto;image-rendering:auto;shape-rendering:auto;text-rendering:auto;enable-background:accumulate" id="path907" d="m 351.93164,63 c 6.83457,0 10.87325,0.44856 13.24609,2.81836 C 367.55058,68.18816 368,72.22248 368,79.05078 v 11.89844 c 0,6.82827 -0.44942,10.86261 -2.82227,13.23242 C 362.80489,106.55145 358.76621,107 351.93164,107 h -15.86328 c -6.83457,0 -10.87325,-0.44855 -13.24609,-2.81836 C 320.44942,101.81183 320,97.77749 320,90.94922 V 79.05078 c 0,-6.8283 0.44942,-10.86262 2.82227,-13.23242 C 325.19511,63.44856 329.23379,63 336.06836,63 Z"/><path style="color:#000;font-style:normal;font-variant:normal;font-weight:400;font-stretch:normal;font-size:medium;line-height:normal;font-family:sans-serif;font-variant-ligatures:normal;font-variant-position:normal;font-variant-caps:normal;font-variant-numeric:normal;font-variant-alternates:normal;font-feature-settings:normal;text-indent:0;text-align:start;text-decoration:none;text-decoration-line:none;text-decoration-style:solid;text-decoration-color:#000;letter-spacing:normal;word-spacing:normal;text-transform:none;writing-mode:lr-tb;direction:ltr;text-orientation:mixed;dominant-baseline:auto;baseline-shift:baseline;text-anchor:start;white-space:normal;shape-padding:0;clip-rule:nonzero;display:inline;overflow:visible;visibility:visible;opacity:.2;isolation:auto;mix-blend-mode:normal;color-interpolation:sRGB;color-interpolation-filters:linearRGB;solid-color:#000;solid-opacity:1;vector-effect:none;fill:#000;fill-opacity:1;fill-rule:nonzero;stroke:none;stroke-width:1;stroke-linecap:round;stroke-linejoin:round;stroke-miterlimit:4;stroke-dasharray:none;stroke-dashoffset:0;stroke-opacity:1;color-rendering:auto;image-rendering:auto;shape-rendering:auto;text-rendering:auto;enable-background:new" id="path1011" d="m 341.12109,134 c 4.56431,0 7.30422,0.28679 8.94727,1.92773 1.64305,1.64095 1.93164,4.37931 1.93164,8.93946 v 8.26562 c 0,4.56013 -0.28859,7.29851 -1.93164,8.93946 C 348.42531,163.71321 345.6854,164 341.12109,164 h -10.24218 c -4.5643,0 -7.30422,-0.28679 -8.94727,-1.92773 C 320.28859,160.43132 320,157.69294 320,153.13281 v -8.26562 c 0,-4.56015 0.28859,-7.29851 1.93164,-8.93946 C 323.57469,134.28679 326.31461,134 330.87891,134 Z"/><path style="color:#000;font-style:normal;font-variant:normal;font-weight:400;font-stretch:normal;font-size:medium;line-height:normal;font-family:sans-serif;font-variant-ligatures:normal;font-variant-position:normal;font-variant-caps:normal;font-variant-numeric:normal;font-variant-alternates:normal;font-feature-settings:normal;text-indent:0;text-align:start;text-decoration:none;text-decoration-line:none;text-decoration-style:solid;text-decoration-color:#000;letter-spacing:normal;word-spacing:normal;text-transform:none;writing-mode:lr-tb;direction:ltr;text-orientation:mixed;dominant-baseline:auto;baseline-shift:baseline;text-anchor:start;white-space:normal;shape-padding:0;clip-rule:nonzero;display:inline;overflow:visible;visibility:visible;opacity:.2;isolation:auto;mix-blend-mode:normal;color-interpolation:sRGB;color-interpolation-filters:linearRGB;solid-color:#000;solid-opacity:1;vector-effect:none;fill:#000;fill-opacity:1;fill-rule:nonzero;stroke:none;stroke-width:1;stroke-linecap:round;stroke-linejoin:round;stroke-miterlimit:4;stroke-dasharray:none;stroke-dashoffset:0;stroke-opacity:1;color-rendering:auto;image-rendering:auto;shape-rendering:auto;text-rendering:auto;enable-background:new" id="path1013" d="m 335.71484,190 c 3.42917,1e-5 5.52264,0.20591 6.80078,1.48242 1.27815,1.27651 1.48438,3.3669 1.48438,6.79297 v 5.44922 c 0,3.42606 -0.20623,5.51645 -1.48438,6.79297 C 341.23748,211.79409 339.14401,212 335.71484,212 h -7.42968 c -3.42917,0 -5.52263,-0.20591 -6.80079,-1.48242 C 320.20622,209.24106 320,207.15067 320,203.72461 v -5.44922 c 0,-3.42607 0.20622,-5.51646 1.48437,-6.79297 1.27816,-1.27651 3.37162,-1.48243 6.80079,-1.48242 z"/><path style="color:#000;font-style:normal;font-variant:normal;font-weight:400;font-stretch:normal;font-size:medium;line-height:normal;font-family:sans-serif;font-variant-ligatures:normal;font-variant-position:normal;font-variant-caps:normal;font-variant-numeric:normal;font-variant-alternates:normal;font-feature-settings:normal;text-indent:0;text-align:start;text-decoration:none;text-decoration-line:none;text-decoration-style:solid;text-decoration-color:#000;letter-spacing:normal;word-spacing:normal;text-transform:none;writing-mode:lr-tb;direction:ltr;text-orientation:mixed;dominant-baseline:auto;baseline-shift:baseline;text-anchor:start;white-space:normal;shape-padding:0;clip-rule:nonzero;display:inline;overflow:visible;visibility:visible;opacity:.2;isolation:auto;mix-blend-mode:normal;color-interpolation:sRGB;color-interpolation-filters:linearRGB;solid-color:#000;solid-opacity:1;vector-effect:none;fill:#000;fill-opacity:1;fill-rule:nonzero;stroke:none;stroke-width:1;stroke-linecap:round;stroke-linejoin:round;stroke-miterlimit:4;stroke-dasharray:none;stroke-dashoffset:0;stroke-opacity:1;color-rendering:auto;image-rendering:auto;shape-rendering:auto;text-rendering:auto;enable-background:new" id="path1050" d="m 325.68945,237 c -2.29403,0 -3.73713,0.12503 -4.65039,1.03711 C 320.12581,238.94919 320,240.3916 320,242.68359 v 3.63282 c 0,2.29198 0.12581,3.7344 1.03906,4.64648 0.91325,0.91208 2.35637,1.03711 4.65039,1.03711 h 4.6211 c 2.29403,0 3.73713,-0.12503 4.65039,-1.03711 0.91325,-0.91208 1.03906,-2.3545 1.03906,-4.64648 v -3.63282 c 0,-2.29199 -0.12581,-3.7344 -1.03906,-4.64648 C 334.04768,237.12503 332.60458,237 330.31055,237 Z"/><path id="path4567" d="m 188.96876,43.999995 c 72.64865,0 83.03125,10.356615 83.03125,82.937505 v 58.125 c 0,72.58059 -10.3826,82.9375 -83.03125,82.9375 h -73.9375 C 42.382606,268 32.000006,257.64309 32.000006,185.0625 v -58.125 c 0,-72.58089 10.3826,-82.937505 83.031254,-82.937505 z" style="display:inline;opacity:.1;fill:#000;fill-opacity:1;stroke:none;stroke-width:2;stroke-linecap:round;stroke-linejoin:round;stroke-miterlimit:4;stroke-dasharray:none;stroke-dashoffset:0;stroke-opacity:1;filter:url(#filter4569);enable-background:new"/><path style="display:inline;opacity:.2;fill:#000;fill-opacity:1;stroke:none;stroke-width:2;stroke-linecap:round;stroke-linejoin:round;stroke-miterlimit:4;stroke-dasharray:none;stroke-dashoffset:0;stroke-opacity:1;filter:url(#filter1132);enable-background:new" id="path1130" d="m 188.96876,45.999995 c 72.64865,0 83.03125,10.356615 83.03125,82.937505 v 58.125 c 0,72.58059 -10.3826,82.9375 -83.03125,82.9375 h -73.9375 C 42.382606,270 32.000006,259.64309 32.000006,187.0625 v -58.125 c 0,-72.58089 10.3826,-82.937505 83.031254,-82.937505 z"/></g><g id="layer2" style="display:inline"><path style="opacity:1;fill:url(#linearGradient2059);fill-opacity:1;stroke:none;stroke-width:2;stroke-linecap:round;stroke-linejoin:round;stroke-miterlimit:4;stroke-dasharray:none;stroke-dashoffset:0;stroke-opacity:1" id="rect877" d="M 188.96875,44 C 261.6174,44 272,54.356615 272,126.9375 v 58.125 C 272,257.64309 261.6174,268 188.96875,268 h -73.9375 C 42.3826,268 32,257.64309 32,185.0625 v -58.125 C 32,54.356615 42.3826,44 115.03125,44 Z"/><path id="path888" d="M 351.93164,62.5 C 365.55326,62.5 367.5,64.44187 367.5,78.05078 V 89.94922 C 367.5,103.55808 365.55326,105.5 351.93164,105.5 H 336.06836 C 322.44674,105.5 320.5,103.55808 320.5,89.94922 V 78.05078 C 320.5,64.44187 322.44674,62.5 336.06836,62.5 Z" style="opacity:1;fill:url(#linearGradient2277);fill-opacity:1;stroke:none;stroke-width:2;stroke-linecap:round;stroke-linejoin:round;stroke-miterlimit:4;stroke-dasharray:none;stroke-dashoffset:0;stroke-opacity:1"/><path id="path942" d="m 341.12109,133.5 c 9.08109,0 10.37891,1.29458 10.37891,10.36719 v 8.26562 c 0,9.07258 -1.29782,10.36719 -10.37891,10.36719 H 330.87891 C 321.79783,162.5 320.5,161.20539 320.5,152.13281 v -8.26562 c 0,-9.07261 1.29783,-10.36719 10.37891,-10.36719 z" style="opacity:1;fill:url(#linearGradient2275);fill-opacity:1;stroke:none;stroke-width:2;stroke-linecap:round;stroke-linejoin:round;stroke-miterlimit:4;stroke-dasharray:none;stroke-dashoffset:0;stroke-opacity:1"/><path style="opacity:1;fill:url(#linearGradient2271);fill-opacity:1;stroke:none;stroke-width:2;stroke-linecap:round;stroke-linejoin:round;stroke-miterlimit:4;stroke-dasharray:none;stroke-dashoffset:0;stroke-opacity:1" id="path946" d="m 330.31054,236.5 c 4.54055,0 5.18946,0.64729 5.18946,5.18359 v 3.63282 c 0,4.53629 -0.64891,5.18359 -5.18946,5.18359 h -4.62109 c -4.54053,0 -5.18945,-0.6473 -5.18945,-5.18359 v -3.63282 c 0,-4.5363 0.64892,-5.18359 5.18946,-5.18359 z"/><path style="opacity:1;fill:url(#linearGradient2273);fill-opacity:1;stroke:none;stroke-width:2;stroke-linecap:round;stroke-linejoin:round;stroke-miterlimit:4;stroke-dasharray:none;stroke-dashoffset:0;stroke-opacity:1" id="path948" d="m 335.71582,189.50031 c 6.81081,10e-6 7.78418,0.97093 7.78418,7.77539 v 5.44891 c 0,6.80444 -0.97337,7.77539 -7.78418,7.77539 h -7.43164 c -6.81081,0 -7.78418,-0.97095 -7.78418,-7.77539 v -5.44892 c 0,-6.80446 0.97337,-7.7754 7.78418,-7.77539 z"/><path id="path1068" d="M 361.9375,-212 C 507.2348,-212 528,-191.28677 528,-46.125 V 70.125 C 528,215.28618 507.2348,236 361.9375,236 H 214.0625 C 68.7652,236 48,215.28618 48,70.125 V -46.125 C 48,-191.28677 68.7652,-212 214.0625,-212 Z" clip-path="url(#clipPath1082-3)" transform="matrix(0.5,0,0,0.5,8,150)" style="display:inline;opacity:.5;fill:none;fill-opacity:1;stroke:url(#linearGradient1108);stroke-width:8;stroke-linecap:round;stroke-linejoin:round;stroke-miterlimit:4;stroke-dasharray:none;stroke-dashoffset:0;stroke-opacity:1;enable-background:new"/></g><g id="layer6" style="display:inline"><path id="path1314" d="m 321.00001,75.4818 h 6.82693 c 8.13301,-0.06234 4.65598,19.539437 10.73982,20.050312 h 1.88325 4.18325 c 6.89386,0 4.13098,-23.184176 8.94951,-23.184176 4.55955,0 3.68357,15.017961 6.54926,15.017961 2.43162,0 1.6331,-6.862659 3.84105,-6.862659 h 3.02693" style="color:#000;clip-rule:nonzero;display:inline;overflow:visible;visibility:visible;opacity:.5;isolation:auto;mix-blend-mode:normal;color-interpolation:sRGB;color-interpolation-filters:linearRGB;solid-color:#000;solid-opacity:1;vector-effect:none;fill:none;fill-opacity:1;fill-rule:nonzero;stroke:#1a7fd4;stroke-width:.99999994;stroke-linecap:butt;stroke-linejoin:miter;stroke-miterlimit:4;stroke-dasharray:none;stroke-dashoffset:0;stroke-opacity:1;marker:none;marker-start:none;marker-mid:none;marker-end:none;paint-order:normal;color-rendering:auto;image-rendering:auto;shape-rendering:auto;text-rendering:auto;enable-background:accumulate"/><path style="color:#000;clip-rule:nonzero;display:inline;overflow:visible;visibility:visible;opacity:1;isolation:auto;mix-blend-mode:normal;color-interpolation:sRGB;color-interpolation-filters:linearRGB;solid-color:#000;solid-opacity:1;vector-effect:none;fill:none;fill-opacity:1;fill-rule:nonzero;stroke:#da1636;stroke-width:.99999994;stroke-linecap:butt;stroke-linejoin:miter;stroke-miterlimit:4;stroke-dasharray:none;stroke-dashoffset:0;stroke-opacity:1;marker:none;marker-start:none;marker-mid:none;marker-end:none;paint-order:normal;color-rendering:auto;image-rendering:auto;shape-rendering:auto;text-rendering:auto;enable-background:accumulate" id="path4909" d="m 367,92.54656 h -4.52693 c -2.20795,0 -2.40942,-8.7783 -4.84105,-8.7783 -2.33536,0 -1.04489,2.33813 -3.75376,2.29733 -2.59855,-0.0391 -1.08864,-11.55357 -6.74501,-11.55357 H 345.25 343.36675 c -6.89386,0 -4.13098,21.70262 -8.94951,21.70262 -4.55956,0 -3.68357,-14.44638 -6.54926,-14.44638 -2.43163,0 -1.6331,6.7783 -3.84105,6.7783 H 321"/><path style="color:#000;clip-rule:nonzero;display:inline;overflow:visible;visibility:visible;opacity:.5;isolation:auto;mix-blend-mode:normal;color-interpolation:sRGB;color-interpolation-filters:linearRGB;solid-color:#000;solid-opacity:1;vector-effect:none;fill:none;fill-opacity:1;fill-rule:nonzero;stroke:#1a7fd4;stroke-width:.99999994;stroke-linecap:butt;stroke-linejoin:miter;stroke-miterlimit:4;stroke-dasharray:none;stroke-dashoffset:0;stroke-opacity:1;marker:none;marker-start:none;marker-mid:none;marker-end:none;paint-order:normal;color-rendering:auto;image-rendering:auto;shape-rendering:auto;text-rendering:auto;enable-background:accumulate" id="path1316" d="m 321.00001,141.53443 h 5.45235 c 5.30413,-0.0397 3.03651,12.64997 7.00423,12.97548 h 1.2282 1.72821 c 4.496,0 2.69412,-14.97229 5.83664,-14.97229 2.97362,0 2.40233,9.56902 4.27125,9.56902 1.58584,0 1.06507,-4.59491 2.50504,-4.59491 h 1.97408"/><path id="path4932" d="m 350.99999,154.6078 h -2.95234 c -1.43997,0 -1.57136,-6.19622 -3.15721,-6.19622 -1.52306,0 -0.68145,1.48559 -2.4481,1.45966 -1.69471,-0.0249 -0.7195,-7.78239 -4.39892,-7.5176 h -1.22821 -1.2282 c -4.496,0 -2.69412,13.33066 -5.83664,13.33066 -2.97363,0 -2.40233,-8.54346 -4.27126,-8.54346 -1.58584,0 -1.06506,4.30674 -2.50503,4.30674 H 321" style="color:#000;clip-rule:nonzero;display:inline;overflow:visible;visibility:visible;opacity:1;isolation:auto;mix-blend-mode:normal;color-interpolation:sRGB;color-interpolation-filters:linearRGB;solid-color:#000;solid-opacity:1;vector-effect:none;fill:none;fill-opacity:1;fill-rule:nonzero;stroke:#da1636;stroke-width:.99999994;stroke-linecap:butt;stroke-linejoin:miter;stroke-miterlimit:4;stroke-dasharray:none;stroke-dashoffset:0;stroke-opacity:1;marker:none;marker-start:none;marker-mid:none;marker-end:none;paint-order:normal;color-rendering:auto;image-rendering:auto;shape-rendering:auto;text-rendering:auto;enable-background:accumulate"/><path id="path1318" d="m 321.00001,195.51897 h 4.26506 c 3.88969,-0.0284 2.22677,8.7906 5.13643,9.02351 h 0.90068 1.00069 c 3.29707,0 1.97569,-10.45227 4.2802,-10.45227 2.18066,0 1.76171,6.84685 3.13225,6.84685 1.16295,0 0.78105,-3.41814 1.83703,-3.41814 h 1.44766" style="color:#000;clip-rule:nonzero;display:inline;overflow:visible;visibility:visible;opacity:.5;isolation:auto;mix-blend-mode:normal;color-interpolation:sRGB;color-interpolation-filters:linearRGB;solid-color:#000;solid-opacity:1;vector-effect:none;fill:none;fill-opacity:1;fill-rule:nonzero;stroke:#1a7fd4;stroke-width:.99999994;stroke-linecap:butt;stroke-linejoin:miter;stroke-miterlimit:4;stroke-dasharray:none;stroke-dashoffset:0;stroke-opacity:1;marker:none;marker-start:none;marker-mid:none;marker-end:none;paint-order:normal;color-rendering:auto;image-rendering:auto;shape-rendering:auto;text-rendering:auto;enable-background:accumulate"/><path style="color:#000;clip-rule:nonzero;display:inline;overflow:visible;visibility:visible;opacity:1;isolation:auto;mix-blend-mode:normal;color-interpolation:sRGB;color-interpolation-filters:linearRGB;solid-color:#000;solid-opacity:1;vector-effect:none;fill:none;fill-opacity:1;fill-rule:nonzero;stroke:#da1636;stroke-width:.99999988;stroke-linecap:butt;stroke-linejoin:miter;stroke-miterlimit:4;stroke-dasharray:none;stroke-dashoffset:0;stroke-opacity:1;marker:none;marker-start:none;marker-mid:none;marker-end:none;paint-order:normal;color-rendering:auto;image-rendering:auto;shape-rendering:auto;text-rendering:auto;enable-background:accumulate" id="path4934" d="m 343,204.49222 h -2.16505 c -1.05598,0 -1.15233,-4.14564 -2.31529,-4.14564 -1.11691,0 -0.49973,1.05975 -1.79527,1.04125 -1.24279,-0.0178 -0.52206,-5.93661 -3.22588,-5.86171 h -0.90068 -0.90068 c -3.29707,0 -1.97569,10.00848 -4.28021,10.00848 -2.18066,0 -1.76171,-6.09451 -3.13226,-6.09451 -1.16295,0 -0.78104,3.07223 -1.83702,3.07223 H 321"/><path style="color:#000;clip-rule:nonzero;display:inline;overflow:visible;visibility:visible;opacity:.5;isolation:auto;mix-blend-mode:normal;color-interpolation:sRGB;color-interpolation-filters:linearRGB;solid-color:#000;solid-opacity:1;vector-effect:none;fill:none;fill-opacity:1;fill-rule:nonzero;stroke:#1a7fd4;stroke-width:1;stroke-linecap:butt;stroke-linejoin:miter;stroke-miterlimit:4;stroke-dasharray:none;stroke-dashoffset:0;stroke-opacity:1;marker:none;marker-start:none;marker-mid:none;marker-end:none;paint-order:normal;color-rendering:auto;image-rendering:auto;shape-rendering:auto;text-rendering:auto;enable-background:accumulate" id="path1320" d="m 321.00001,240.50824 h 2.76527 c 2.47526,-0.0171 1.41704,4.85263 3.26864,4.99274 h 0.57316 0.58566 c 2.09814,0 1.25726,-5.95595 2.72377,-5.95595 1.38769,0 1.12109,4.22259 1.99325,4.22259 0.74006,0 0.49703,-2.26368 1.16902,-2.26368 h 0.92123"/><path id="path4936" d="m 335,245.50993 h -1.37776 c -0.67199,0 -0.7333,-2.28793 -1.47337,-2.28793 -0.71076,0 -0.31801,0.63589 -1.14244,0.62479 -0.79087,-0.0107 -0.33163,-3.37145 -2.05283,-3.37145 h -0.57316 -0.57316 c -2.09814,0 -1.25726,5.85966 -2.72377,5.85966 -1.3877,0 -1.12109,-3.65693 -1.99326,-3.65693 -0.74006,0 -0.49703,1.84345 -1.16901,1.84345 H 321" style="color:#000;clip-rule:nonzero;display:inline;overflow:visible;visibility:visible;opacity:1;isolation:auto;mix-blend-mode:normal;color-interpolation:sRGB;color-interpolation-filters:linearRGB;solid-color:#000;solid-opacity:1;vector-effect:none;fill:none;fill-opacity:1;fill-rule:nonzero;stroke:#da1636;stroke-width:.99999988;stroke-linecap:butt;stroke-linejoin:miter;stroke-miterlimit:4;stroke-dasharray:none;stroke-dashoffset:0;stroke-opacity:1;marker:none;marker-start:none;marker-mid:none;marker-end:none;paint-order:normal;color-rendering:auto;image-rendering:auto;shape-rendering:auto;text-rendering:auto;enable-background:accumulate"/><path style="color:#000;clip-rule:nonzero;display:inline;overflow:visible;visibility:visible;opacity:1;isolation:auto;mix-blend-mode:normal;color-interpolation:sRGB;color-interpolation-filters:linearRGB;solid-color:#000;solid-opacity:1;vector-effect:none;fill:none;fill-opacity:1;fill-rule:nonzero;stroke:#1a7fd4;stroke-width:2;stroke-linecap:butt;stroke-linejoin:miter;stroke-miterlimit:4;stroke-dasharray:none;stroke-dashoffset:0;stroke-opacity:1;marker:none;marker-start:none;marker-mid:none;marker-end:none;paint-order:normal;color-rendering:auto;image-rendering:auto;shape-rendering:auto;text-rendering:auto;enable-background:accumulate" id="path4963" d="m 32,109.12141 h 35.61877 c 42.43308,-0.33693 24.2921,101.21151 56.03384,103.97071 h 9.82565 21.82566 c 35.96796,0 21.55293,-124.06522 46.69309,-124.06522 23.78901,0 19.21863,81.11184 34.17005,81.11184 12.68677,0 8.52053,-37.06514 20.04026,-37.06514 H 272"/><path id="path4938" d="m 272,196.99761 h -19.61877 c -18.6792,0 -14.00952,-48.95284 -29.25765,-48.95284 -15.24813,0 -6.73939,17.28667 -18.45984,13.67056 -11.72045,-3.61611 -6.80521,-68.54392 -36.31635,-68.68843 h -9.82565 -9.82566 c -35.96796,0 -21.55293,124.06522 -46.69309,124.06522 -23.78901,0 -19.21863,-81.11184 -34.17005,-81.11184 -12.68677,0 -8.52053,37.06514 -20.04026,37.06514 H 32" style="color:#000;clip-rule:nonzero;display:inline;overflow:visible;visibility:visible;opacity:1;isolation:auto;mix-blend-mode:normal;color-interpolation:sRGB;color-interpolation-filters:linearRGB;solid-color:#000;solid-opacity:1;vector-effect:none;fill:none;fill-opacity:1;fill-rule:nonzero;stroke:#da1636;stroke-width:2;stroke-linecap:butt;stroke-linejoin:miter;stroke-miterlimit:4;stroke-dasharray:none;stroke-dashoffset:0;stroke-opacity:1;marker:none;marker-start:none;marker-mid:none;marker-end:none;paint-order:normal;color-rendering:auto;image-rendering:auto;shape-rendering:auto;text-rendering:auto;enable-background:accumulate"/></g><g id="layer5" style="display:inline"><path style="display:inline;opacity:.4;fill:none;fill-opacity:1;stroke:#000;stroke-width:1;stroke-linecap:round;stroke-linejoin:round;stroke-miterlimit:4;stroke-dasharray:none;stroke-dashoffset:0;stroke-opacity:1;enable-background:new" id="path950" d="m 341.12109,133.5 c 9.08109,0 10.37891,1.29458 10.37891,10.36719 v 8.26562 c 0,9.07258 -1.29782,10.36719 -10.37891,10.36719 H 330.87891 C 321.79783,162.5 320.5,161.20539 320.5,152.13281 v -8.26562 c 0,-9.07261 1.29783,-10.36719 10.37891,-10.36719 z"/><path style="display:inline;opacity:.4;fill:none;fill-opacity:1;stroke:#000;stroke-width:1;stroke-linecap:round;stroke-linejoin:round;stroke-miterlimit:4;stroke-dasharray:none;stroke-dashoffset:0;stroke-opacity:1;enable-background:new" id="path892" d="M 351.93164,62.5 C 365.55326,62.5 367.5,64.44187 367.5,78.05078 V 89.94922 C 367.5,103.55808 365.55326,105.5 351.93164,105.5 H 336.06836 C 322.44674,105.5 320.5,103.55808 320.5,89.94922 V 78.05078 C 320.5,64.44187 322.44674,62.5 336.06836,62.5 Z"/><path id="path970" d="m 335.71582,189.50031 c 6.81081,10e-6 7.78418,0.97093 7.78418,7.77539 v 5.44891 c 0,6.80444 -0.97337,7.77539 -7.78418,7.77539 h -7.43164 c -6.81081,0 -7.78418,-0.97095 -7.78418,-7.77539 v -5.44892 c 0,-6.80446 0.97337,-7.7754 7.78418,-7.77539 z" style="display:inline;opacity:.4;fill:none;fill-opacity:1;stroke:#000;stroke-width:1;stroke-linecap:round;stroke-linejoin:round;stroke-miterlimit:4;stroke-dasharray:none;stroke-dashoffset:0;stroke-opacity:1;enable-background:new"/><path id="path1025" d="m 330.31054,236.5 c 4.54055,0 5.18946,0.64729 5.18946,5.18359 v 3.63282 c 0,4.53629 -0.64891,5.18359 -5.18946,5.18359 h -4.62109 c -4.54053,0 -5.18945,-0.6473 -5.18945,-5.18359 v -3.63282 c 0,-4.5363 0.64892,-5.18359 5.18946,-5.18359 z" style="display:inline;opacity:.4;fill:none;fill-opacity:1;stroke:#000;stroke-width:1;stroke-linecap:round;stroke-linejoin:round;stroke-miterlimit:4;stroke-dasharray:none;stroke-dashoffset:0;stroke-opacity:1;enable-background:new"/><path style="color:#000;font-style:normal;font-variant:normal;font-weight:400;font-stretch:normal;font-size:medium;line-height:normal;font-family:sans-serif;font-variant-ligatures:normal;font-variant-position:normal;font-variant-caps:normal;font-variant-numeric:normal;font-variant-alternates:normal;font-feature-settings:normal;text-indent:0;text-align:start;text-decoration:none;text-decoration-line:none;text-decoration-style:solid;text-decoration-color:#000;letter-spacing:normal;word-spacing:normal;text-transform:none;writing-mode:lr-tb;direction:ltr;text-orientation:mixed;dominant-baseline:auto;baseline-shift:baseline;text-anchor:start;white-space:normal;shape-padding:0;clip-rule:nonzero;display:inline;overflow:visible;visibility:visible;opacity:.5;isolation:auto;mix-blend-mode:normal;color-interpolation:sRGB;color-interpolation-filters:linearRGB;solid-color:#000;solid-opacity:1;vector-effect:none;fill:none;fill-opacity:1;fill-rule:nonzero;stroke:url(#linearGradient929);stroke-width:1;stroke-linecap:round;stroke-linejoin:round;stroke-miterlimit:4;stroke-dasharray:none;stroke-dashoffset:0;stroke-opacity:1;color-rendering:auto;image-rendering:auto;shape-rendering:auto;text-rendering:auto;enable-background:accumulate" id="path911" d="m 351.93164,63.5 h -15.86328 c -6.76329,0 -10.36307,0.55877 -12.18555,2.37891 -1.82247,1.82013 -2.38281,5.4151 -2.38281,12.17187 v 11.89844 c 0,6.75675 0.56034,10.35173 2.38281,12.17187 1.82248,1.82015 5.42226,2.37891 12.18555,2.37891 h 15.86328 c 6.76329,0 10.36307,-0.55876 12.18555,-2.37891 C 365.93966,100.30095 366.5,96.70597 366.5,89.94922 V 78.05078 c 0,-6.75677 -0.56034,-10.35174 -2.38281,-12.17187 C 362.29471,64.05877 358.69493,63.5 351.93164,63.5 Z"/><path style="color:#000;font-style:normal;font-variant:normal;font-weight:400;font-stretch:normal;font-size:medium;line-height:normal;font-family:sans-serif;font-variant-ligatures:normal;font-variant-position:normal;font-variant-caps:normal;font-variant-numeric:normal;font-variant-alternates:normal;font-feature-settings:normal;text-indent:0;text-align:start;text-decoration:none;text-decoration-line:none;text-decoration-style:solid;text-decoration-color:#000;letter-spacing:normal;word-spacing:normal;text-transform:none;writing-mode:lr-tb;direction:ltr;text-orientation:mixed;dominant-baseline:auto;baseline-shift:baseline;text-anchor:start;white-space:normal;shape-padding:0;clip-rule:nonzero;display:inline;overflow:visible;visibility:visible;opacity:.5;isolation:auto;mix-blend-mode:normal;color-interpolation:sRGB;color-interpolation-filters:linearRGB;solid-color:#000;solid-opacity:1;vector-effect:none;fill:none;fill-opacity:1;fill-rule:nonzero;stroke:url(#linearGradient965);stroke-width:1;stroke-linecap:round;stroke-linejoin:round;stroke-miterlimit:4;stroke-dasharray:none;stroke-dashoffset:0;stroke-opacity:1;color-rendering:auto;image-rendering:auto;shape-rendering:auto;text-rendering:auto;enable-background:accumulate" id="path955" d="m 341.12109,134.5 h -10.24218 c -4.49302,0 -6.796,0.397 -7.88868,1.48828 -1.09267,1.09128 -1.49023,3.39029 -1.49023,7.87891 v 8.26562 c 0,4.48861 0.39755,6.78763 1.49023,7.87891 1.09268,1.09128 3.39566,1.48828 7.88868,1.48828 h 10.24218 c 4.49303,0 6.796,-0.397 7.88868,-1.48828 1.09268,-1.09128 1.49023,-3.3903 1.49023,-7.87891 v -8.26562 c 0,-4.48862 -0.39756,-6.78763 -1.49023,-7.87891 C 347.91709,134.897 345.61412,134.5 341.12109,134.5 Z"/><path style="color:#000;font-style:normal;font-variant:normal;font-weight:400;font-stretch:normal;font-size:medium;line-height:normal;font-family:sans-serif;font-variant-ligatures:normal;font-variant-position:normal;font-variant-caps:normal;font-variant-numeric:normal;font-variant-alternates:normal;font-feature-settings:normal;text-indent:0;text-align:start;text-decoration:none;text-decoration-line:none;text-decoration-style:solid;text-decoration-color:#000;letter-spacing:normal;word-spacing:normal;text-transform:none;writing-mode:lr-tb;direction:ltr;text-orientation:mixed;dominant-baseline:auto;baseline-shift:baseline;text-anchor:start;white-space:normal;shape-padding:0;clip-rule:nonzero;display:inline;overflow:visible;visibility:visible;opacity:.5;isolation:auto;mix-blend-mode:normal;color-interpolation:sRGB;color-interpolation-filters:linearRGB;solid-color:#000;solid-opacity:1;vector-effect:none;fill:none;fill-opacity:1;fill-rule:nonzero;stroke:url(#linearGradient1006);stroke-width:1;stroke-linecap:round;stroke-linejoin:round;stroke-miterlimit:4;stroke-dasharray:none;stroke-dashoffset:0;stroke-opacity:1;color-rendering:auto;image-rendering:auto;shape-rendering:auto;text-rendering:auto;enable-background:accumulate" id="path974" d="m 335.71484,190.5 h -7.43164 c -3.35788,0 -5.0105,0.31612 -5.73828,1.04297 -0.72778,0.72685 -1.04492,2.37787 -1.04492,5.73242 v 5.44922 c 0,3.35454 0.31714,5.00557 1.04492,5.73242 0.72778,0.72685 2.38235,1.04297 5.74024,1.04297 h 7.42968 c 3.35789,0 5.01246,-0.31612 5.74024,-1.04297 0.72778,-0.72685 1.04492,-2.37788 1.04492,-5.73242 v -5.44922 c 0,-3.35455 -0.31714,-5.00558 -1.04492,-5.73242 C 340.7273,190.81612 339.07273,190.5 335.71484,190.5 Z"/><path style="color:#000;font-style:normal;font-variant:normal;font-weight:400;font-stretch:normal;font-size:medium;line-height:normal;font-family:sans-serif;font-variant-ligatures:normal;font-variant-position:normal;font-variant-caps:normal;font-variant-numeric:normal;font-variant-alternates:normal;font-feature-settings:normal;text-indent:0;text-align:start;text-decoration:none;text-decoration-line:none;text-decoration-style:solid;text-decoration-color:#000;letter-spacing:normal;word-spacing:normal;text-transform:none;writing-mode:lr-tb;direction:ltr;text-orientation:mixed;dominant-baseline:auto;baseline-shift:baseline;text-anchor:start;white-space:normal;shape-padding:0;clip-rule:nonzero;display:inline;overflow:visible;visibility:visible;opacity:.5;isolation:auto;mix-blend-mode:normal;color-interpolation:sRGB;color-interpolation-filters:linearRGB;solid-color:#000;solid-opacity:1;vector-effect:none;fill:none;fill-opacity:1;fill-rule:nonzero;stroke:url(#linearGradient1045);stroke-width:1;stroke-linecap:round;stroke-linejoin:round;stroke-miterlimit:4;stroke-dasharray:none;stroke-dashoffset:0;stroke-opacity:1;color-rendering:auto;image-rendering:auto;shape-rendering:auto;text-rendering:auto;enable-background:accumulate" id="path1035" d="m 325.68945,237.5 h 4.6211 c 2.22275,0 3.22696,0.23524 3.58984,0.59766 0.36288,0.36241 0.59961,1.36547 0.59961,3.58593 v 3.63282 c 0,2.22046 -0.23673,3.22352 -0.59961,3.58593 -0.36288,0.36242 -1.36709,0.59766 -3.58984,0.59766 h -4.6211 c -2.22274,0 -3.22696,-0.23524 -3.58984,-0.59766 -0.36288,-0.36242 -0.59961,-1.36547 -0.59961,-3.58593 v -3.63282 c 0,-2.22046 0.23673,-3.22352 0.59961,-3.58593 0.36288,-0.36242 1.36709,-0.59766 3.58984,-0.59766 z"/></g></g></svg>