<svg xmlns="http://www.w3.org/2000/svg" width="16" height="16"><path fill="gray" d="M7 1C3.69 1 1 3.69 1 7s2.69 6 6 6a5.97 5.97 0 0 0 3.871-1.422l3.275 3.276.708-.708-3.276-3.275A5.97 5.97 0 0 0 13 7c0-3.31-2.69-6-6-6zm0 1a5 5 0 0 1 5 5 5 5 0 0 1-5 5 5 5 0 0 1-5-5 5 5 0 0 1 5-5z" color="#000" font-family="sans-serif" font-weight="400" overflow="visible" white-space="normal" style="line-height:normal;font-variant-ligatures:none;font-variant-position:normal;font-variant-caps:normal;font-variant-numeric:normal;font-variant-alternates:normal;font-feature-settings:normal;text-indent:0;text-align:start;text-decoration-line:none;text-decoration-style:solid;text-decoration-color:#000;text-transform:none;shape-padding:0;isolation:auto;mix-blend-mode:normal;marker:none"/></svg>